<svg xmlns="http://www.w3.org/2000/svg" xmlns:xlink="http://www.w3.org/1999/xlink" width="1080" zoomAndPan="magnify" viewBox="0 0 810 211.499994" height="282" preserveAspectRatio="xMidYMid meet" version="1.0"><defs><g/><clipPath id="9b86370b4c"><path d="M 8.78125 10.671875 L 159.699219 10.671875 L 159.699219 186.464844 L 8.78125 186.464844 Z M 8.78125 10.671875 " clip-rule="nonzero"/></clipPath><clipPath id="a89e5bb2cc"><path d="M 56.457031 98.179688 L 111.1875 98.179688 L 111.1875 179.445312 L 56.457031 179.445312 Z M 56.457031 98.179688 " clip-rule="nonzero"/></clipPath></defs><g clip-path="url(#9b86370b4c)"><path fill="#006a8c" d="M 150.050781 58.601562 C 150.050781 57.914062 149.363281 57.367188 148.679688 57.367188 L 124 57.367188 L 124 50.5 C 124 28.523438 106.175781 10.671875 84.238281 10.671875 C 62.300781 10.671875 44.476562 28.523438 44.476562 50.5 L 44.476562 57.367188 L 19.796875 57.367188 C 19.113281 57.367188 18.425781 57.914062 18.425781 58.601562 L 8.828125 184.953125 C 8.828125 185.367188 8.964844 185.777344 9.242188 186.050781 C 9.515625 186.328125 9.925781 186.464844 10.199219 186.464844 L 158.277344 186.464844 C 158.6875 186.464844 158.960938 186.328125 159.238281 186.050781 C 159.511719 185.777344 159.648438 185.367188 159.648438 184.953125 Z M 84.238281 21.65625 C 100.144531 21.65625 113.03125 34.566406 113.03125 50.5 L 113.03125 57.367188 L 55.445312 57.367188 L 55.445312 50.5 C 55.445312 34.566406 68.335938 21.65625 84.238281 21.65625 Z M 49.960938 95.820312 C 42.421875 95.820312 36.25 89.640625 36.25 82.085938 C 36.25 76.59375 38.992188 71.648438 44.476562 69.453125 L 44.476562 82.085938 C 44.476562 85.109375 46.945312 87.578125 49.960938 87.578125 C 52.976562 87.578125 55.445312 85.109375 55.445312 82.085938 L 55.445312 69.453125 C 60.929688 71.648438 63.671875 76.59375 63.671875 82.085938 C 63.671875 89.640625 57.503906 95.820312 49.960938 95.820312 Z M 118.515625 95.820312 C 110.976562 95.820312 104.804688 89.640625 104.804688 82.085938 C 104.804688 76.59375 107.546875 71.648438 113.03125 69.453125 L 113.03125 82.085938 C 113.03125 85.109375 115.5 87.578125 118.515625 87.578125 C 121.53125 87.578125 124 85.109375 124 82.085938 L 124 69.453125 C 129.484375 71.648438 132.226562 76.59375 132.226562 82.085938 C 132.226562 89.640625 126.058594 95.820312 118.515625 95.820312 Z M 118.515625 95.820312 " fill-opacity="1" fill-rule="nonzero"/></g><g clip-path="url(#a89e5bb2cc)"><path fill="#d3d4da" d="M 78.695312 116.484375 L 78.550781 117.523438 C 78.355469 117.671875 78.730469 117.296875 72.902344 123.164062 C 72.867188 122.792969 72.835938 123.214844 73.839844 115.816406 C 74.277344 112.597656 79.132812 113.265625 78.695312 116.484375 Z M 79.328125 117.136719 C 80.171875 116.890625 81.109375 117.085938 81.804688 117.753906 C 84.152344 119.964844 82.617188 122.078125 79.894531 125.945312 C 80.949219 126.417969 82.195312 126.09375 82.875 125.148438 C 83.34375 124.484375 83.246094 124.546875 84.25 117.214844 C 84.671875 114.160156 79.894531 112.910156 79.328125 117.136719 Z M 87.472656 115.507812 C 84.378906 115.085938 84.574219 118.582031 83.78125 124.433594 C 83.328125 127.667969 88.199219 128.320312 88.636719 125.101562 C 89.414062 119.394531 90.566406 115.933594 87.472656 115.507812 Z M 90.160156 118.679688 C 89.335938 124.773438 88.3125 128.285156 91.664062 128.285156 C 94.449219 128.285156 94.222656 125.214844 95.015625 119.34375 C 95.4375 116.144531 90.597656 115.445312 90.160156 118.679688 Z M 89.253906 159.089844 L 89.253906 142.085938 C 89.253906 140.917969 93.722656 133.992188 93.382812 128.207031 C 91.617188 129.503906 89.058594 128.464844 88.734375 126.253906 C 87.390625 128.546875 83.878906 128.011719 83.328125 125.359375 C 82.5 126.5625 80.914062 126.984375 79.621094 126.335938 C 76.949219 130.105469 76.933594 130.089844 76.691406 129.910156 C 76.382812 129.667969 76.65625 129.683594 79.328125 125.878906 C 82.210938 121.769531 83.523438 120.011719 81.464844 118.09375 C 80.65625 117.328125 79.441406 117.328125 78.695312 118.027344 C 70.246094 125.457031 70.34375 127.246094 71.21875 130.742188 C 71.75 132.886719 73.144531 136.675781 74.40625 138.964844 C 75.574219 141.078125 78.324219 142.917969 78.324219 142.917969 C 78.324219 142.917969 78.324219 145.339844 78.324219 145.597656 L 78.324219 145.632812 L 78.339844 152.523438 L 78.339844 159.058594 L 68.933594 159.058594 L 68.933594 170.082031 L 78.355469 170.082031 L 78.375 179.445312 L 89.238281 179.445312 L 89.238281 170.082031 L 98.402344 170.082031 L 98.402344 159.074219 Z M 109.023438 114.957031 C 107.644531 111.6875 105.671875 108.746094 103.160156 106.226562 C 100.652344 103.707031 97.722656 101.722656 94.464844 100.34375 C 91.097656 98.910156 87.503906 98.179688 83.8125 98.179688 C 80.121094 98.179688 76.542969 98.910156 73.175781 100.34375 C 69.921875 101.722656 66.992188 103.707031 64.480469 106.226562 C 61.972656 108.746094 59.996094 111.6875 58.621094 114.957031 C 57.195312 118.335938 56.46875 121.929688 56.46875 125.636719 C 56.46875 129.34375 57.195312 132.9375 58.621094 136.332031 C 59.996094 139.601562 61.972656 142.542969 64.480469 145.0625 C 66.992188 147.582031 69.921875 149.566406 73.175781 150.945312 C 74.210938 151.386719 75.28125 151.761719 76.367188 152.070312 L 76.367188 145.015625 C 73.710938 143.988281 71.28125 142.398438 69.210938 140.316406 C 65.308594 136.398438 63.15625 131.179688 63.15625 125.636719 C 63.15625 120.09375 65.308594 114.875 69.210938 110.957031 C 73.113281 107.039062 78.308594 104.878906 83.828125 104.878906 C 89.351562 104.878906 94.546875 107.039062 98.449219 110.957031 C 102.351562 114.875 104.503906 120.09375 104.503906 125.636719 C 104.503906 131.179688 102.351562 136.398438 98.449219 140.316406 C 96.378906 142.398438 93.933594 143.988281 91.261719 145.015625 L 91.261719 152.070312 C 92.34375 151.761719 93.414062 151.386719 94.464844 150.929688 C 97.722656 149.550781 100.652344 147.566406 103.160156 145.046875 C 105.671875 142.527344 107.644531 139.585938 109.023438 136.316406 C 110.445312 132.9375 111.175781 129.328125 111.175781 125.621094 C 111.175781 121.929688 110.445312 118.335938 109.023438 114.957031 Z M 78.339844 145.664062 L 78.339844 152.539062 C 78.339844 152.539062 78.355469 152.539062 78.355469 152.539062 Z M 89.253906 145.679688 L 89.253906 152.554688 C 89.253906 152.554688 89.269531 152.554688 89.269531 152.554688 L 89.253906 145.679688 C 89.269531 145.679688 89.269531 145.679688 89.253906 145.679688 Z M 89.253906 145.679688 " fill-opacity="1" fill-rule="nonzero"/></g><g fill="#83005c" fill-opacity="1"><g transform="translate(165.923464, 177.562512)"><g><path d="M 31.390625 -125.25 L 53.15625 -44.34375 L 53.484375 -44.34375 L 79.734375 -125.25 L 105.640625 -125.25 L 130.234375 -44.34375 L 130.5625 -44.34375 L 154.15625 -125.25 L 188.03125 -125.25 L 148 0 L 114.78125 0 L 92.859375 -72.59375 L 92.515625 -72.59375 L 67.9375 0 L 34.890625 0 L -2.484375 -125.25 Z M 31.390625 -125.25 "/></g></g></g><g fill="#83005c" fill-opacity="1"><g transform="translate(351.458835, 177.562512)"><g><path d="M 106.3125 -42.53125 C 106.3125 -29.125 101.519531 -18.210938 91.9375 -9.796875 C 82.363281 -1.378906 70.046875 2.828125 54.984375 2.828125 C 40.035156 2.828125 27.742188 -1.351562 18.109375 -9.71875 C 8.472656 -18.082031 3.65625 -29.019531 3.65625 -42.53125 C 3.65625 -55.925781 8.472656 -66.859375 18.109375 -75.328125 C 27.742188 -83.796875 40.035156 -88.03125 54.984375 -88.03125 C 69.929688 -88.03125 82.222656 -83.820312 91.859375 -75.40625 C 101.492188 -67 106.3125 -56.039062 106.3125 -42.53125 Z M 54.984375 -23.421875 C 60.960938 -23.421875 65.695312 -25.191406 69.1875 -28.734375 C 72.675781 -32.273438 74.421875 -36.875 74.421875 -42.53125 C 74.421875 -47.945312 72.644531 -52.507812 69.09375 -56.21875 C 65.550781 -59.9375 60.789062 -61.796875 54.8125 -61.796875 C 49.164062 -61.796875 44.539062 -59.992188 40.9375 -56.390625 C 37.34375 -52.796875 35.546875 -48.175781 35.546875 -42.53125 C 35.546875 -36.769531 37.34375 -32.144531 40.9375 -28.65625 C 44.539062 -25.164062 49.222656 -23.421875 54.984375 -23.421875 Z M 54.984375 -23.421875 "/></g></g></g><g fill="#83005c" fill-opacity="1"><g transform="translate(461.418038, 177.562512)"><g><path d="M 96.515625 -71.765625 C 99.722656 -77.078125 103.84375 -81.113281 108.875 -83.875 C 113.914062 -86.644531 119.425781 -88.03125 125.40625 -88.03125 C 144.675781 -87.925781 154.367188 -76.960938 154.484375 -55.140625 L 154.484375 0 L 124.25 0 L 124.25 -44.515625 C 124.25 -57.472656 120.097656 -63.953125 111.796875 -63.953125 C 107.035156 -63.953125 103.4375 -62.316406 101 -59.046875 C 98.5625 -55.785156 97.34375 -50 97.34375 -41.6875 L 97.34375 0 L 67.109375 0 L 67.109375 -41.6875 C 67.109375 -50.4375 66 -56.441406 63.78125 -59.703125 C 61.570312 -62.972656 58.195312 -64.609375 53.65625 -64.609375 C 49.226562 -64.609375 45.878906 -62.945312 43.609375 -59.625 C 41.335938 -56.3125 40.203125 -50.332031 40.203125 -41.6875 L 40.203125 0 L 9.96875 0 L 9.96875 -85.21875 L 40.203125 -85.21875 L 40.203125 -74.578125 L 40.53125 -74.578125 C 47.394531 -83.546875 56.363281 -88.03125 67.4375 -88.03125 C 80.84375 -87.8125 90.535156 -82.390625 96.515625 -71.765625 Z M 96.515625 -71.765625 "/></g></g></g><g fill="#83005c" fill-opacity="1"><g transform="translate(625.692418, 177.562512)"><g><path d="M 42.03125 -117.9375 C 42.03125 -113.289062 40.335938 -109.304688 36.953125 -105.984375 C 33.578125 -102.660156 29.617188 -101 25.078125 -101 C 20.429688 -101 16.445312 -102.6875 13.125 -106.0625 C 9.800781 -109.4375 8.140625 -113.394531 8.140625 -117.9375 C 8.140625 -122.8125 9.828125 -126.851562 13.203125 -130.0625 C 16.578125 -133.269531 20.535156 -134.875 25.078125 -134.875 C 29.734375 -134.875 33.722656 -133.238281 37.046875 -129.96875 C 40.367188 -126.707031 42.03125 -122.695312 42.03125 -117.9375 Z M 40.203125 -85.21875 L 40.203125 0 L 9.96875 0 L 9.96875 -85.21875 Z M 40.203125 -85.21875 "/></g></g></g><g fill="#83005c" fill-opacity="1"><g transform="translate(675.855088, 177.562512)"><g><path d="M 43.859375 -85.21875 L 59.140625 -67.609375 L 74.421875 -85.21875 L 113.453125 -85.21875 L 78.234375 -46.171875 L 120.765625 0 L 81.0625 0 L 59.140625 -25.25 L 37.203125 0 L -2.484375 0 L 40.03125 -46.171875 L 5.484375 -85.21875 Z M 43.859375 -85.21875 "/></g></g></g></svg>