 <!DOCTYPE svg PUBLIC "-//W3C//DTD SVG 1.1//EN" "http://www.w3.org/Graphics/SVG/1.1/DTD/svg11.dtd">
<svg id="a762adcc-ddc5-4a42-a1e5-a5eb6d173476" data-name="ac0f817e-d4d2-4345-a872-88fd9ca35e5a" xmlns="http://www.w3.org/2000/svg" width="865.76" height="682.89" viewBox="0 0 865.76 682.89">
<defs>
<style xmlns="http://www.w3.org/1999/xhtml">*, ::after, ::before { box-sizing: border-box; }
img, svg { vertical-align: middle; }
</style>
<style xmlns="http://www.w3.org/1999/xhtml">*, body, html { -webkit-font-smoothing: antialiased; }
img, svg { max-width: 100%; }
</style>
</defs>
<rect x="364.01" y="27.42" width="425.14" height="420.82" fill="#8a0063" data-primary="true"/>
<rect x="364.01" y="27.42" width="425.14" height="420.82" fill="#fff" opacity="0.8" style="isolation:isolate"/>
<rect x="376.51" y="157.48" width="400.11" height="279.04" fill="#fff"/>
<path d="M777.14,437H376V157H777.14ZM377,436H776.1V158H377Z" fill="#8a0063" data-primary="true"/>
<rect x="363.73" y="27.42" width="425.42" height="31.29" fill="#8a0063" data-primary="true"/>
<ellipse cx="379.49" cy="43.54" rx="4.41" ry="4.2" fill="#fff" opacity="0.8" style="isolation:isolate"/>
<ellipse cx="392.94" cy="43.54" rx="4.41" ry="4.2" fill="#fff" opacity="0.8" style="isolation:isolate"/>
<ellipse cx="408.08" cy="43.54" rx="4.41" ry="4.2" fill="#fff" opacity="0.8" style="isolation:isolate"/>
<rect x="376.51" y="72.26" width="400.11" height="31.7" fill="#fff"/>
<path d="M777.14,104.48H376V71.74H777.14Zm-400.11-1H776.1V72.78H377Z" fill="#8a0063" data-primary="true"/>
<rect x="376.51" y="115.39" width="400.11" height="31.7" fill="#fff"/>
<path d="M777.14,147.61H376V114.87H777.14Zm-400.11-1H776.1v-30.7H377Z" fill="#8a0063" data-primary="true"/>
<rect x="384.82" y="225.03" width="382.45" height="9.87" fill="#8a0063" data-primary="true"/>
<rect x="387.94" y="231.53" width="374.65" height="0.52" fill="#fff"/>
<rect x="384.82" y="242.7" width="382.45" height="9.87" fill="#8a0063" data-primary="true"/>
<rect x="387.94" y="249.2" width="374.65" height="0.52" fill="#fff"/>
<rect x="384.82" y="260.37" width="382.45" height="9.87" fill="#8a0063" data-primary="true"/>
<rect x="387.94" y="266.87" width="374.65" height="0.52" fill="#fff"/>
<rect x="384.82" y="278.04" width="382.45" height="9.87" fill="#8a0063" data-primary="true"/>
<rect x="387.94" y="284.53" width="374.65" height="0.52" fill="#fff"/>
<rect x="384.82" y="296.22" width="382.45" height="9.87" fill="#8a0063" data-primary="true"/>
<rect x="387.94" y="302.72" width="374.65" height="0.52" fill="#fff"/>
<rect x="384.82" y="313.89" width="382.45" height="9.87" fill="#8a0063" data-primary="true"/>
<rect x="387.94" y="320.39" width="374.65" height="0.52" fill="#fff"/>
<rect x="384.82" y="331.08" width="382.45" height="9.87" fill="#8a0063" data-primary="true"/>
<rect x="387.94" y="337.57" width="374.65" height="0.52" fill="#fff"/>
<rect x="384.82" y="348.74" width="382.45" height="9.87" fill="#8a0063" data-primary="true"/>
<rect x="387.94" y="355.24" width="374.65" height="0.52" fill="#fff"/>
<rect x="384.82" y="366.41" width="382.45" height="9.87" fill="#8a0063" data-primary="true"/>
<rect x="387.94" y="372.91" width="374.65" height="0.52" fill="#fff"/>
<rect x="384.82" y="384.6" width="382.45" height="9.87" fill="#8a0063" data-primary="true"/>
<rect x="387.94" y="391.09" width="374.65" height="0.52" fill="#fff"/>
<rect x="383.26" y="165.78" width="77.63" height="18.26" fill="#fff"/>
<path d="M461.41,184.57H382.74V165.26h78.67Zm-77.63-1h76.59V166.3H383.78Z" fill="#8a0063" data-primary="true"/>
<rect x="468.26" y="165.78" width="70.95" height="18.26" fill="#fff"/>
<path d="M539.74,184.57h-72V165.26h72Zm-71-1h70V166.3H468.78Z" fill="#8a0063" data-primary="true"/>
<path d="M392,171.8h-2.55v-.92h6.21v.92H393.1v7.47H392Z" fill="#005e94" data-secondary="true"/>
<path d="M397.64,171.56a.65.65,0,0,1-.63.67h-.07a.67.67,0,0,1-.66-.66h0a.67.67,0,0,1,.65-.69h0a.65.65,0,0,1,.67.63Zm-1.22,7.71v-6h1.09v6Z" fill="#005e94" data-secondary="true"/>
<path d="M400.65,171.52v1.73h1.57v.83h-1.57v3.25c0,.75.21,1.17.82,1.17a2.29,2.29,0,0,0,.64-.08v.82a2.44,2.44,0,0,1-1,.15,1.5,1.5,0,0,1-1.18-.46,2.24,2.24,0,0,1-.42-1.56v-3.29h-.93v-.83h.93V171.8Z" fill="#005e94" data-secondary="true"/>
<path d="M403.45,170.44h1.1v8.83h-1.1Z" fill="#005e94" data-secondary="true"/>
<path d="M407,176.46a1.94,1.94,0,0,0,1.76,2.09h.3a4,4,0,0,0,1.67-.31l.19.78a4.87,4.87,0,0,1-2,.37,2.79,2.79,0,0,1-3-2.56,3.23,3.23,0,0,1,0-.44c0-1.82,1.07-3.25,2.83-3.25a2.56,2.56,0,0,1,2.5,2.61,1.77,1.77,0,0,1,0,.23,4.34,4.34,0,0,1,0,.51Zm3.21-.79a1.58,1.58,0,0,0-1.35-1.77h-.17a1.82,1.82,0,0,0-1.68,1.78Z" fill="#005e94" data-secondary="true"/>
<path d="M388.07,134.24a3.92,3.92,0,0,0,1.94.55c1.11,0,1.76-.59,1.76-1.43s-.45-1.24-1.58-1.67c-1.37-.49-2.22-1.19-2.22-2.38a2.49,2.49,0,0,1,2.72-2.27,3.83,3.83,0,0,1,1.85.41l-.3.88a3.38,3.38,0,0,0-1.59-.4c-1.15,0-1.58.69-1.58,1.26,0,.78.51,1.17,1.67,1.62,1.41.54,2.14,1.23,2.14,2.46s-1,2.41-2.94,2.41a4.33,4.33,0,0,1-2.14-.53Z" fill="#005e94" data-secondary="true"/>
<path d="M399.36,133.92a16.39,16.39,0,0,0,.05,1.64h-1l-.06-1h0a2.26,2.26,0,0,1-2,1.12c-.94,0-2.07-.53-2.07-2.64v-3.52h1.09v3.33c0,1.15.35,1.92,1.34,1.92a1.58,1.58,0,0,0,1.45-1,1.54,1.54,0,0,0,.1-.56v-3.69h1.09Z" fill="#005e94" data-secondary="true"/>
<path d="M401.13,135.56c0-.41.05-1,.05-1.56v-7.28h1.08v3.79h0a2.24,2.24,0,0,1,2-1.11c1.5,0,2.55,1.24,2.54,3.07,0,2.16-1.36,3.23-2.7,3.23a2.16,2.16,0,0,1-2-1.14h0l-.05,1Zm1.13-2.42a2.73,2.73,0,0,0,.05.4,1.7,1.7,0,0,0,1.65,1.28c1.14,0,1.83-.93,1.83-2.31,0-1.21-.63-2.24-1.8-2.24a1.74,1.74,0,0,0-1.66,1.35,1.62,1.62,0,0,0-.07.44Z" fill="#005e94" data-secondary="true"/>
<path d="M406.8,137.3a1.76,1.76,0,0,0,1.19-.46c.3-.35.41-.82.41-2.26v-5h1.1V135a3.25,3.25,0,0,1-.73,2.47,2.77,2.77,0,0,1-1.86.69Zm2.82-9.45a.64.64,0,0,1-.61.67h-.07a.65.65,0,0,1-.68-.62v-.05a.67.67,0,0,1,.67-.69h0a.65.65,0,0,1,.66.64Z" fill="#005e94" data-secondary="true"/>
<path d="M411.9,132.75a1.94,1.94,0,0,0,1.76,2.09h.3a4,4,0,0,0,1.67-.31l.19.78a5.07,5.07,0,0,1-2,.37,2.8,2.8,0,0,1-3-2.58,2.94,2.94,0,0,1,0-.42c0-1.82,1.07-3.25,2.83-3.25a2.56,2.56,0,0,1,2.5,2.61,1.77,1.77,0,0,1,0,.23,4.34,4.34,0,0,1,0,.51Zm3.21-.79a1.58,1.58,0,0,0-1.35-1.77h-.17a1.82,1.82,0,0,0-1.68,1.78Z" fill="#005e94" data-secondary="true"/>
<path d="M421.82,135.33a4.09,4.09,0,0,1-1.73.35,2.85,2.85,0,0,1-3-2.71,2.16,2.16,0,0,1,0-.36,3.07,3.07,0,0,1,2.93-3.2h.31a3.59,3.59,0,0,1,1.51.31l-.25.85a2.41,2.41,0,0,0-1.26-.29,2.27,2.27,0,0,0,0,4.53,3.12,3.12,0,0,0,1.34-.3Z" fill="#005e94" data-secondary="true"/>
<path d="M424.58,127.81v1.73h1.57v.83h-1.57v3.25c0,.74.21,1.17.82,1.17a2.29,2.29,0,0,0,.64-.08v.82a2.62,2.62,0,0,1-1,.15,1.5,1.5,0,0,1-1.18-.46,2.23,2.23,0,0,1-.43-1.56v-3.29h-.93v-.83h.93v-1.45Z" fill="#005e94" data-secondary="true"/>
<path d="M429.76,130.53a.74.74,0,1,1,1.48,0,.72.72,0,0,1-.67.77h-.07a.73.73,0,0,1-.74-.72Zm0,4.39a.74.74,0,0,1,1.48,0,.73.73,0,0,1-.66.78h-.08a.74.74,0,0,1-.74-.74Z" fill="#005e94" data-secondary="true"/>
<path d="M392.15,84.75H389.6v-.92h6.21v.92h-2.56v7.47h-1.1Z" fill="#005e94" data-secondary="true"/>
<path d="M401.27,89.16a2.94,2.94,0,0,1-2.68,3.18h-.32a2.86,2.86,0,0,1-2.9-2.82,2.62,2.62,0,0,1,0-.28,2.94,2.94,0,0,1,2.68-3.18h.32a2.85,2.85,0,0,1,2.9,2.8C401.28,89,401.28,89.06,401.27,89.16Zm-4.77.06c0,1.32.76,2.31,1.83,2.31s1.82-1,1.82-2.34c0-1-.51-2.31-1.8-2.31S396.5,88.07,396.5,89.22Z" fill="#005e94" data-secondary="true"/>
<path d="M405,87.19a.74.74,0,1,1,.73.77.74.74,0,0,1-.73-.77Zm0,4.39a.74.74,0,1,1,.73.77.71.71,0,0,1-.73-.71Z" fill="#005e94" data-secondary="true"/>
<path d="M477.91,172h0l-1.41.76-.21-.83,1.77-1H479v8h-1.06Z" fill="#005e94" data-secondary="true"/>
<path d="M481.91,179v-.67l.86-.84c2.06-2,3-3,3-4.23a1.44,1.44,0,0,0-1.3-1.58,1.6,1.6,0,0,0-.31,0,2.77,2.77,0,0,0-1.71.69l-.35-.77a3.49,3.49,0,0,1,2.29-.83,2.27,2.27,0,0,1,2.46,2.06,2.81,2.81,0,0,1,0,.29c0,1.5-1.08,2.7-2.78,4.35l-.65.59h3.63V179Z" fill="#005e94" data-secondary="true"/>
<path d="M558.75,175.56a2.18,2.18,0,0,1,.46,1.35,2.12,2.12,0,0,1-.77,1.73,3.2,3.2,0,0,1-2.13.64h-4.07v-8.73h3.93a3.25,3.25,0,0,1,2.09.61,2.08,2.08,0,0,1,.35,2.92,2.06,2.06,0,0,1-1.08.72A2.05,2.05,0,0,1,558.75,175.56Zm-4.38-1.48h1.39a1.2,1.2,0,0,0,.8-.23.8.8,0,0,0,.28-.68.83.83,0,0,0-.28-.68,1.2,1.2,0,0,0-.8-.24h-1.39Zm2.39,3.24a.84.84,0,0,0,.29-.7.87.87,0,0,0-.3-.72,1.22,1.22,0,0,0-.84-.26h-1.54v1.93h1.56A1.24,1.24,0,0,0,556.76,177.32Z" fill="#005e94" data-secondary="true"/>
<path d="M571,170.17l-3.44,9.49h-.86l3.42-9.49Z" fill="#005e94" data-secondary="true"/>
<path d="M581.36,170.52V176a2.67,2.67,0,0,0,.62,1.92,2.27,2.27,0,0,0,1.68.62,2.23,2.23,0,0,0,1.68-.62,2.68,2.68,0,0,0,.6-1.92v-5.48h.87V176a3.31,3.31,0,0,1-.87,2.49,3.23,3.23,0,0,1-2.29.83,3.15,3.15,0,0,1-2.28-.83,3.27,3.27,0,0,1-.88-2.49v-5.47Z" fill="#005e94" data-secondary="true"/>
<rect x="595.69" y="171.53" width="12.27" height="0.5" fill="#8a0063" data-primary="true"/>
<rect x="595.69" y="177.8" width="12.27" height="0.5" fill="#8a0063" data-primary="true"/>
<rect x="595.69" y="174.67" width="7.13" height="0.5" fill="#8a0063" data-primary="true"/>
<rect x="633.49" y="171.53" width="12.27" height="0.5" fill="#8a0063" data-primary="true"/>
<rect x="633.49" y="177.8" width="12.27" height="0.5" fill="#8a0063" data-primary="true"/>
<rect x="638.63" y="174.67" width="7.13" height="0.5" fill="#8a0063" data-primary="true"/>
<rect x="615.09" y="171.53" width="12.27" height="0.5" fill="#8a0063" data-primary="true"/>
<rect x="615.09" y="177.8" width="12.27" height="0.5" fill="#8a0063" data-primary="true"/>
<rect x="615.09" y="174.67" width="12.27" height="0.5" fill="#8a0063" data-primary="true"/>
<rect x="661.18" y="138.71" width="99.97" height="32.94" fill="#005e94" data-secondary="true"/>
<polygon points="726.68 186.59 710.68 167.22 743.13 167.51 726.68 186.59" fill="#005e94" data-secondary="true"/>
<path d="M683.56,163.36l1.48-5.63L699.67,144a.51.51,0,0,1,.69,0l3,2.73a.52.52,0,0,1,0,.74h0l-14.15,14.15Z" fill="none" stroke="#fff" stroke-miterlimit="10" stroke-width="0.5"/>
<path d="M689.19,161.59s-.15-2.82-4.15-3.86" fill="none" stroke="#fff" stroke-miterlimit="10" stroke-width="0.5"/>
<path d="M708.62,150.71v4.34H713v1h-4.39v4.4h4.89v1h-6.06v-11.7h6.06v1Z" fill="#fff"/>
<path d="M715.84,154.37a4,4,0,0,1,1.55-1.62,4.37,4.37,0,0,1,2.23-.58,4.1,4.1,0,0,1,2.16.58,3.63,3.63,0,0,1,1.41,1.52v-5.18h1.16v12.28h-1.16v-2a3.55,3.55,0,0,1-1.36,1.56,4.07,4.07,0,0,1-2.23.6,4.37,4.37,0,0,1-2.23-.58,4.05,4.05,0,0,1-1.54-1.64,5.25,5.25,0,0,1-.56-2.46A5.11,5.11,0,0,1,715.84,154.37Zm6.9.54a3.2,3.2,0,0,0-1.22-1.28,3.37,3.37,0,0,0-1.7-.44,3.5,3.5,0,0,0-1.73.43,3,3,0,0,0-1.2,1.25,4.1,4.1,0,0,0-.44,1.95,4.21,4.21,0,0,0,.44,2,3,3,0,0,0,1.2,1.28,3.38,3.38,0,0,0,1.73.44,3.28,3.28,0,0,0,1.7-.45,3.2,3.2,0,0,0,1.22-1.28,4.45,4.45,0,0,0,0-3.9Z" fill="#fff"/>
<path d="M727,150.35a.81.81,0,0,1-.25-.62.75.75,0,0,1,.25-.6.85.85,0,0,1,.6-.24.82.82,0,0,1,.59.24.79.79,0,0,1,.26.6.85.85,0,0,1-.26.62.82.82,0,0,1-.59.25A.84.84,0,0,1,727,150.35Zm1.18,2v9.06H727v-9.06Z" fill="#fff"/>
<path d="M732.32,153.29v5.62a1.18,1.18,0,0,0,1.42,1.46h1.07v1h-1.25a2.12,2.12,0,0,1-2.43-1.74,2.18,2.18,0,0,1,0-.72v-5.62h-1.26v-1h1.26V150h1.18v2.28h2.49v1Z" fill="#fff"/>
<path d="M327.45,655.36H305c-10.12,1.14-7.8-6.93-7.8-6.93-.86-26,5.23-38.09,5.23-38.09v1.77s-6.59,26.76,0,28.58c0,0,29.33,4.77,27.51-7.33C335.22,656.94,327.45,655.36,327.45,655.36Z" fill="#8a0063" data-primary="true"/>
<path d="M426.38,541.63s-2.63,6.52,2.26,9.45l21.14,21.75a14.69,14.69,0,0,0,4.8,3.33,23.47,23.47,0,0,0,24.88-3.58s20.2-12.05-11.08-28.34Z" fill="#8a0063" data-primary="true"/>
<polygon points="195.74 481.47 184.01 655.35 193.54 655.35 212.23 481.47 195.74 481.47" fill="#bcbec0"/>
<polygon points="364.34 655.35 345.65 481.47 361.41 481.47 373.14 655.35 364.34 655.35" fill="#bcbec0"/>
<rect x="176.61" y="445.76" width="203.58" height="39.38" rx="3.59" fill="#d1d3d4"/>
<path d="M267.93,446s19.49,1.47,24.2,4.34l.65-23.08S277.89,439.75,267.93,446Z" fill="#005e94" data-secondary="true"/>
<path d="M267.93,446s19.49,1.47,24.2,4.34l.65-23.08S277.89,439.75,267.93,446Z" opacity="0.5" style="isolation:isolate"/>
<polygon points="242.71 264.59 283.68 264.59 307.54 310.67 305.6 376.27 269.95 376.38 247.44 316.59 242.71 264.59" fill="#e6e7e8"/>
<path d="M306.44,261.76s14.48,5.22,28,59.87l4.28,54.64H316.64l-6.58-36.21-2-49.67-6.58-20.45Z" fill="#8a0063" data-primary="true"/>
<path d="M306.44,261.76s14.48,5.22,28,59.87l4.28,54.64H316.64l-6.58-36.21-2-49.67-6.58-20.45Z" opacity="0.2" style="isolation:isolate"/>
<path d="M248.89,234.3l-1.34,16.59-2.65,5.63,12.6,29.27a27.6,27.6,0,0,0,7.92,10.76c3.9,3.12,9.42,5.83,15.94,4.17,0,0,11.93-1.55,4.2-23l-8.4-18.57-1.77-8.25-.25-5.45S261.4,250.41,248.89,234.3Z" fill="#f9b499"/>
<path d="M244.9,256.52s-9,8.19-29.69,5.37a10.33,10.33,0,0,0-9.89,4.28c-4.39,6.34-12,20.48-23.74,52,0,0-20.88,49.72-7.62,58h11.93S183.57,356.3,209.1,353c0,0,3.31-3,3-12.26a13.9,13.9,0,0,1,3.8-10.62.41.41,0,0,1,.57,0,.36.36,0,0,1,.11.26,77.5,77.5,0,0,0,1.49,13.33s5.63,26.52.66,40.78c0,0-8,20.88-8.62,27.51,0,0,6.63-15.58,51.71-23.54l8.95-2s6.63-30.82,5-54a406.92,406.92,0,0,0-16.15-42.62Z" fill="#8a0063" data-primary="true"/>
<path d="M254.81,279l-9.91-22.47a26.23,26.23,0,0,1-5.34,3.07l-3.28,15.16,12.6,3.65-12.6,16.91s31.49,17.56,39.45,37.12C275.73,332.43,267.11,303.39,254.81,279Z" fill="#fff"/>
<path d="M278.33,261.76h28.11s3.29,29.31,6.34,45.08a32.34,32.34,0,0,0,2.79,8.39c2.6,5.22,7.12,17,2.72,29.77l-1.65,31.27H302.16l-.28-51.11A48.46,48.46,0,0,0,298,306.31C292.3,293,282,269.05,278.33,261.76Z" fill="#8a0063" data-primary="true"/>
<path d="M285.56,277.74l-7.23-16h4.73l12.84,8.51-3.29,7.24,13.17,11.85s-4.86,8.29-4.34,29.66C301.44,319,300.12,310.63,285.56,277.74Z" fill="#fff"/>
<rect x="265.27" y="373.07" width="149.22" height="3.2" fill="#8a0063" data-primary="true"/>
<rect x="265.27" y="373.07" width="149.22" height="3.2" fill="#fff" opacity="0.2" style="isolation:isolate"/>
<path d="M314,373.07l27.19-72.27a3.91,3.91,0,0,1,3.66-2.53H435.6a5.27,5.27,0,0,1,4.92,7.16l-26,67.64Z" fill="#005e94" data-secondary="true"/>
<rect x="374.26" y="310.67" width="30.43" height="8.35" rx="1.25" fill="#fff"/>
<path d="M210.09,412s-11,30,12.68,37.23c0,0,20.78,9.4,47.07-4.17a59,59,0,0,0,10.27-6.95l4.64-3.82A146.48,146.48,0,0,0,299.93,420c4.12-4.52,11.7-10.37,22.09-8,0,0,22.3,2.68,16.68,40.4l63.76,69.54,29.62-25.19-87.77-108.6-73.56-1.69S217.94,394.86,210.09,412Z" fill="#005e94" data-secondary="true"/>
<path d="M292.78,427.25s-3.91,104.85,2.72,138.44c2.66.44,38.46,0,38.46,0l4.74-113.3s7.76-35.6-16.68-40.4c0,0-12.37-4.37-22.09,8Z" fill="#005e94" data-secondary="true"/>
<path d="M292.78,427.25s-3.91,104.85,2.72,138.44c2.66.44,38.46,0,38.46,0l4.74-113.3s7.76-35.6-16.68-40.4c0,0-12.37-4.37-22.09,8Z" opacity="0.2" style="isolation:isolate"/>
<path d="M302.39,640.69c-6.59-1.82,0-28.58,0-28.58V565.88l23.82-.12.37,19.21c2.2,8.08-.37,12.84-.37,12.84-2.19,8.05,3.69,35.55,3.69,35.55C331.72,645.46,302.39,640.69,302.39,640.69Z" fill="#f9b499"/>
<path d="M408.83,516.51s8.4,9.16,10,15c0,0,1.43,8,7.52,10.1a9.53,9.53,0,0,1,3.16,2l17.34,15.28a22,22,0,0,0,21.5-1.63s8.47-7.17,0-13L451.74,529.6,427.4,500.71Z" fill="#f9b499"/>
<rect x="76.62" y="376.27" width="479.71" height="11.87" rx="1.77" fill="#d1d3d4"/>
<polygon points="111.57 388.15 93 655.35 102.28 655.47 131.22 388.15 111.57 388.15" fill="#bcbec0"/>
<polygon points="500.83 388.15 530.56 655.47 538 655.47 519.41 388.15 500.83 388.15" fill="#bcbec0"/>
<path d="M185.89,376.19l10.62.08s6.92-15.31,20-21.34L209.1,353S184.7,354.49,185.89,376.19Z" fill="#e6e7e8"/>
<path d="M196.51,376.27s35.8,1,46.35-3.2l22.83-4.36a5.45,5.45,0,0,1,2.13,0c4,.79,18.68,3.24,27.89-1.52a2,2,0,0,1,2,.05c3.15,2,13.24,8,16.89,4.26l2.08-5.54a3,3,0,0,0-.5-3c-3.31-3.95-13.61-15-24-12.78a94.68,94.68,0,0,0-18.11,5.45,9.45,9.45,0,0,1-4.22.89l-53.31-1.63A47.74,47.74,0,0,0,196.51,376.27Z" fill="#f9b499"/>
<path d="M294.42,359.89S303,360,314,370.94" fill="none" stroke="#f7a48b" stroke-miterlimit="10"/>
<path d="M295,353.83s6.39-2.62,21.14,13.45" fill="none" stroke="#f7a48b" stroke-miterlimit="10"/>
<path d="M248.89,234.3l-.74,9.2s13.73,9.73,24.35,2.53l-21.75-15Z" fill="#f7a48b"/>
<ellipse cx="266.8" cy="203.68" rx="28.52" ry="42.78" transform="translate(-22.03 32.67) rotate(-6.73)" fill="#f9b499"/>
<path d="M249.54,183.93a23.17,23.17,0,0,0-4.31,10.27s.84,8.51-2.85,11.42l-4.19-.65s1.18,10.16,3.14,14.55c0,0,1.29,5.59,7.56,14.78l-1.34,16.59s-30.06,1.65-30.72-17.35a28.25,28.25,0,0,1,1.86-14.74,25.6,25.6,0,0,0,1.75-8.82c.44-12,3-39.85,17.61-43.18,0,0,22.76-26.74,59.22,3.76,0,0,10.61,10.29,15.91,41.49,0,0,7.08,31.51-20.55,38.87,0,0-11.49,2.36-17.24,0l-.25-5.45s26.54-8.07,18.81-51.88c0,0-5.74-8-21.87-4C272.08,189.56,261,192.43,249.54,183.93Z" fill="#005e94" data-secondary="true"/>
<ellipse cx="239.57" cy="208.07" rx="5.93" ry="7.87" transform="translate(-35.47 49.82) rotate(-11.06)" fill="#f9b499"/>
<polygon points="445.8 172.83 449.41 177 453.29 173.11 445.8 172.83" fill="#8a0063" data-primary="true"/>
<polygon points="522.47 172.83 526.08 177 529.96 173.11 522.47 172.83" fill="#8a0063" data-primary="true"/>
<g id="b587f914-5fc7-48f0-94e0-d4b69e98cc98" data-name="b9624912-dc1d-4a3f-afaa-3834e6c11890">
<polyline points="666.54 638.56 656.29 574.14 734.93 575.1 727.18 637.73" fill="#005e94" data-secondary="true"/>
<path d="M700.49,562.38a13.39,13.39,0,0,0,13.1,1.1,14.14,14.14,0,0,0,7.14-11.29,16.06,16.06,0,0,0-13.1-.65,15.85,15.85,0,0,0-8.67,9.69" fill="#8a0063" data-primary="true"/>
<path d="M736.43,576.25a13.39,13.39,0,0,0,13.1,1.1,14.08,14.08,0,0,0,7.14-11.29,16.05,16.05,0,0,0-13.1-.65,15.84,15.84,0,0,0-8.68,9.69" fill="#8a0063" data-primary="true"/>
<path d="M716.26,545.27a13.42,13.42,0,0,0,10.28,8.1,14.16,14.16,0,0,0,12.19-5.5,15.13,15.13,0,0,0-20.47-6.18,16.17,16.17,0,0,0-2.62,1.79" fill="#8a0063" data-primary="true"/>
<path d="M729.38,561.32a13.47,13.47,0,0,0-11.75,5.81,14.1,14.1,0,0,0-.26,13.35,15.09,15.09,0,0,0,14.38-15.76,14.92,14.92,0,0,0-.49-3.19" fill="#8a0063" data-primary="true"/>
<path d="M742.05,586.68a13.38,13.38,0,0,0,.31,13.1,14.11,14.11,0,0,0,12,5.88,16,16,0,0,0-.75-13c-2.07-3.76-5.79-5.61-10.45-6.68" fill="#8a0063" data-primary="true"/>
<path d="M763,589.66a9.17,9.17,0,0,0-3.12-2,13.38,13.38,0,0,0-4.25-.75,51.49,51.49,0,0,0-5.82.34,16.75,16.75,0,0,1-7.14-.62,10.92,10.92,0,0,1-5.89-5.7,31.75,31.75,0,0,1-2.54-8.7,25.66,25.66,0,0,0-3-8.92,31.44,31.44,0,0,0-6.67-6.76,32.94,32.94,0,0,1-6.35-6.46A21.42,21.42,0,0,1,715,535.38a20.71,20.71,0,0,1,3.87-9.52,14.84,14.84,0,0,1,1.88-2.08,4.68,4.68,0,0,1,.76-.64,4.17,4.17,0,0,1-.63.76,18.81,18.81,0,0,0-1.73,2.16,21.57,21.57,0,0,0-.33,23.68A31.87,31.87,0,0,0,725,556a31.46,31.46,0,0,1,6.82,7,25.19,25.19,0,0,1,3.15,9.22,31.54,31.54,0,0,0,2.44,8.51,10.28,10.28,0,0,0,5.44,5.39,16.59,16.59,0,0,0,6.86.67,47.76,47.76,0,0,1,5.86-.21,13.07,13.07,0,0,1,4.37.91A7.22,7.22,0,0,1,762.3,589a3.64,3.64,0,0,1,.49.55A.33.33,0,0,1,763,589.66Z" fill="#8a0063" data-primary="true"/>
<path d="M763,589.66a9.17,9.17,0,0,0-3.12-2,13.38,13.38,0,0,0-4.25-.75,51.49,51.49,0,0,0-5.82.34,16.75,16.75,0,0,1-7.14-.62,10.92,10.92,0,0,1-5.89-5.7,31.75,31.75,0,0,1-2.54-8.7,25.66,25.66,0,0,0-3-8.92,31.44,31.44,0,0,0-6.67-6.76,32.94,32.94,0,0,1-6.35-6.46A21.42,21.42,0,0,1,715,535.38a20.71,20.71,0,0,1,3.87-9.52,14.84,14.84,0,0,1,1.88-2.08,4.68,4.68,0,0,1,.76-.64,4.17,4.17,0,0,1-.63.76,18.81,18.81,0,0,0-1.73,2.16,21.57,21.57,0,0,0-.33,23.68A31.87,31.87,0,0,0,725,556a31.46,31.46,0,0,1,6.82,7,25.19,25.19,0,0,1,3.15,9.22,31.54,31.54,0,0,0,2.44,8.51,10.28,10.28,0,0,0,5.44,5.39,16.59,16.59,0,0,0,6.86.67,47.76,47.76,0,0,1,5.86-.21,13.07,13.07,0,0,1,4.37.91A7.22,7.22,0,0,1,762.3,589a3.64,3.64,0,0,1,.49.55A.33.33,0,0,1,763,589.66Z" fill="#8a0063" data-primary="true"/>
<path d="M612.81,596.26a19.9,19.9,0,0,0-26.92-19.65A33.19,33.19,0,0,0,612.09,596" fill="#8a0063" data-primary="true"/>
<path d="M607.62,599c-3.85,4.22-3.6,11-.85,16s7.48,8.56,12.23,11.74a25.82,25.82,0,0,0-11.12-29.31" fill="#8a0063" data-primary="true"/>
<path d="M626.26,579.2a22.93,22.93,0,0,0,25.06,20.57,7.34,7.34,0,0,0,1-.12c-1.49-6.19-4-12.41-8.74-16.6s-12.32-5.77-17.59-2.23" fill="#8a0063" data-primary="true"/>
<path d="M626.09,572.89c-1-5.63-6.55-9.71-12.2-10.25s-11.3,1.9-15.85,5.34a20.62,20.62,0,0,0,28.12,2.78" fill="#8a0063" data-primary="true"/>
<path d="M596.83,620.76c-5.41,4.6-6.75,12.82-4.51,19.55s7.5,12.1,13.4,16.05c2.28-6.68,3.7-13.84,2.51-20.8s-5.39-13.65-11.84-16.49" fill="#8a0063" data-primary="true"/>
<path d="M625.26,557.11a16.57,16.57,0,0,1,23-4.34,17.12,17.12,0,0,1,3.15,2.8,14.33,14.33,0,0,1-25.88.65" fill="#8a0063" data-primary="true"/>
<path d="M631.87,540.88A21.59,21.59,0,0,1,605,526.49a23.52,23.52,0,0,1-.59-2.48,48.79,48.79,0,0,1,13,.18,21.11,21.11,0,0,1,11.46,5.67,11.47,11.47,0,0,1,3,11" fill="#8a0063" data-primary="true"/>
<path d="M644.35,536.67a17.65,17.65,0,0,1-.11-27.22A37.12,37.12,0,0,1,652,525.91a14,14,0,0,1,0,6.8,6.27,6.27,0,0,1-4.75,4.45" fill="#8a0063" data-primary="true"/>
<g opacity="0.4">
<path d="M612.81,596.26a19.9,19.9,0,0,0-26.92-19.65A33.19,33.19,0,0,0,612.09,596"/>
</g>
<g opacity="0.4">
<path d="M607.62,599c-3.85,4.22-3.6,11-.85,16s7.48,8.56,12.23,11.74a25.82,25.82,0,0,0-11.12-29.31"/>
</g>
<g opacity="0.4">
<path d="M626.26,579.2a22.93,22.93,0,0,0,25.06,20.57,7.34,7.34,0,0,0,1-.12c-1.49-6.19-4-12.41-8.74-16.6s-12.32-5.77-17.59-2.23"/>
</g>
<g opacity="0.4">
<path d="M626.09,572.89c-1-5.63-6.55-9.71-12.2-10.25s-11.3,1.9-15.85,5.34a20.62,20.62,0,0,0,28.12,2.78"/>
</g>
<g opacity="0.4">
<path d="M596.83,620.76c-5.41,4.6-6.75,12.82-4.51,19.55s7.5,12.1,13.4,16.05c2.28-6.68,3.7-13.84,2.51-20.8s-5.39-13.65-11.84-16.49"/>
</g>
<g opacity="0.4">
<path d="M625.26,557.11a16.57,16.57,0,0,1,23-4.34,17.12,17.12,0,0,1,3.15,2.8,14.33,14.33,0,0,1-25.88.65"/>
</g>
<g opacity="0.4">
<path d="M631.87,540.88A21.59,21.59,0,0,1,605,526.49a23.52,23.52,0,0,1-.59-2.48,48.79,48.79,0,0,1,13,.18,21.11,21.11,0,0,1,11.46,5.67,11.47,11.47,0,0,1,3,11"/>
</g>
<g opacity="0.4">
<path d="M644.35,536.67a17.65,17.65,0,0,1-.11-27.22A37.12,37.12,0,0,1,652,525.91a14,14,0,0,1,0,6.8,6.27,6.27,0,0,1-4.75,4.45"/>
</g>
<path d="M665.92,576.22a1.62,1.62,0,0,1,0-.44,8.11,8.11,0,0,1,.08-1.3c0-1.14.18-2.82.21-4.91a44.68,44.68,0,0,0-2.91-17.87,27.38,27.38,0,0,0-7.19-10.12,19.18,19.18,0,0,0-13.1-4.81,16.32,16.32,0,0,0-7.37,1.85,14.41,14.41,0,0,0-5.7,5.44c-2.85,4.71-3.57,10.61-3.28,16.37s1,11.66.4,17.29a27.12,27.12,0,0,1-2.16,8,16.7,16.7,0,0,1-4.92,6.34,24.43,24.43,0,0,1-6.74,3.45,35.38,35.38,0,0,0-6.36,2.89,22.8,22.8,0,0,0-8.33,9.09,22,22,0,0,0-2.41,9.94,23.6,23.6,0,0,0,1.26,7.68,27.59,27.59,0,0,0,3,6,2.21,2.21,0,0,1-.29-.32,11.5,11.5,0,0,1-.76-1.07,20.11,20.11,0,0,1-2.24-4.47,23,23,0,0,1-1.42-7.79A22.16,22.16,0,0,1,598,607.22a23.61,23.61,0,0,1,8.5-9.42c3.89-2.59,9-3.27,13-6.34s6-8.43,6.65-13.83-.2-11.24-.41-17.17.44-12,3.44-16.9a15.44,15.44,0,0,1,6-5.73,17.19,17.19,0,0,1,7.73-1.91A19.85,19.85,0,0,1,656.5,541a27.74,27.74,0,0,1,7.29,10.41,37.38,37.38,0,0,1,2.47,10.2,55,55,0,0,1,.21,7.91,39.91,39.91,0,0,1-.37,5,7.87,7.87,0,0,1-.17,1.28A1.19,1.19,0,0,1,665.92,576.22Z" fill="#8a0063" data-primary="true"/>
<g opacity="0.4">
<path d="M665.92,576.22a1.62,1.62,0,0,1,0-.44,8.11,8.11,0,0,1,.08-1.3c0-1.14.18-2.82.21-4.91a44.68,44.68,0,0,0-2.91-17.87,27.38,27.38,0,0,0-7.19-10.12,19.18,19.18,0,0,0-13.1-4.81,16.32,16.32,0,0,0-7.37,1.85,14.41,14.41,0,0,0-5.7,5.44c-2.85,4.71-3.57,10.61-3.28,16.37s1,11.66.4,17.29a27.12,27.12,0,0,1-2.16,8,16.7,16.7,0,0,1-4.92,6.34,24.43,24.43,0,0,1-6.74,3.45,35.38,35.38,0,0,0-6.36,2.89,22.8,22.8,0,0,0-8.33,9.09,22,22,0,0,0-2.41,9.94,23.6,23.6,0,0,0,1.26,7.68,27.59,27.59,0,0,0,3,6,2.21,2.21,0,0,1-.29-.32,11.5,11.5,0,0,1-.76-1.07,20.11,20.11,0,0,1-2.24-4.47,23,23,0,0,1-1.42-7.79A22.16,22.16,0,0,1,598,607.22a23.61,23.61,0,0,1,8.5-9.42c3.89-2.59,9-3.27,13-6.34s6-8.43,6.65-13.83-.2-11.24-.41-17.17.44-12,3.44-16.9a15.44,15.44,0,0,1,6-5.73,17.19,17.19,0,0,1,7.73-1.91A19.85,19.85,0,0,1,656.5,541a27.74,27.74,0,0,1,7.29,10.41,37.38,37.38,0,0,1,2.47,10.2,55,55,0,0,1,.21,7.91,39.91,39.91,0,0,1-.37,5,7.87,7.87,0,0,1-.17,1.28A1.19,1.19,0,0,1,665.92,576.22Z"/>
</g>
<path d="M780.44,562.17a17,17,0,0,0,1.17-5.77,14.25,14.25,0,0,0-1.53-6.66,13.88,13.88,0,0,0-6.41-6.19,14.36,14.36,0,0,0-5.06-1.36,16.59,16.59,0,0,0-5.65.65c-3.85,1-7.66,3.28-12.23,4.11a14.38,14.38,0,0,1-7.08-.16,10.75,10.75,0,0,1-5.78-4.62c-2.75-4.26-3.52-9.61-6.84-13.52a13.31,13.31,0,0,0-6.21-4.07,17.46,17.46,0,0,0-7.25-.73,18.48,18.48,0,0,0-12.07,6.27,28,28,0,0,0-6,11.09,33.27,33.27,0,0,0-1.35,11,118.87,118.87,0,0,0,2.05,16.07l.74,4.35a5.43,5.43,0,0,0,.18,1.13v.4a1.29,1.29,0,0,0-.12-.38l-.26-1.11c-.21-1.07-.52-2.51-.9-4.33a108,108,0,0,1-2.33-16.11,33.9,33.9,0,0,1,1.26-11.2,28.79,28.79,0,0,1,6.1-11.46,21.49,21.49,0,0,1,5.52-4.43,19.07,19.07,0,0,1,14.65-1.4A14.17,14.17,0,0,1,731.6,528c3.51,4.21,4.26,9.58,6.9,13.62a9.74,9.74,0,0,0,5.32,4.29,13.5,13.5,0,0,0,6.68.18c4.39-.83,8.19-3,12.2-4a17.19,17.19,0,0,1,5.88-.64,14.73,14.73,0,0,1,5.27,1.48,14.18,14.18,0,0,1,8,13.39,13.56,13.56,0,0,1-.85,4.36A7.46,7.46,0,0,1,780.44,562.17Z" fill="#8a0063" data-primary="true"/>
<path d="M734.44,533.62a15.27,15.27,0,0,0,14,.92,14.17,14.17,0,0,0,7.14-11.28,16.1,16.1,0,0,0-13.1-.67,15.84,15.84,0,0,0-8.66,9.69" fill="#8a0063" data-primary="true"/>
<path d="M749.35,547.15a15.27,15.27,0,0,0,6.55,12.45,14.17,14.17,0,0,0,13.37.23A16.15,16.15,0,0,0,763,548.36,15.87,15.87,0,0,0,750.25,546" fill="#8a0063" data-primary="true"/>
<path d="M775.21,544.15a15.35,15.35,0,0,0,14-.59,14.12,14.12,0,0,0,5.9-12,15.09,15.09,0,0,0-19.71,8.17,15.3,15.3,0,0,0-.91,3.12" fill="#8a0063" data-primary="true"/>
<path d="M712.72,524.67c-3.77-3.28-6.3-9-5.58-13.24a14.11,14.11,0,0,1,8.68-10.17,16.13,16.13,0,0,1,4.48,12.25,15.94,15.94,0,0,1-6.7,11.16" fill="#8a0063" data-primary="true"/>
<path d="M611.73,506.14a1,1,0,0,1,.15-.34l.52-1c.48-.83,1.21-2,2.28-3.55a38.06,38.06,0,0,1,11.25-10.64,27.66,27.66,0,0,1,10.1-3.7,24.78,24.78,0,0,1,12.27,1.29,20,20,0,0,1,10.49,8.58C661.2,501,662,506,663.38,510.7a25.36,25.36,0,0,0,2.93,6.55,19.94,19.94,0,0,0,5,4.91c1.86,1.38,3.83,2.64,5.61,4.08a24.48,24.48,0,0,1,4.57,4.91,30.43,30.43,0,0,1,4.67,11.46,40,40,0,0,1,.62,10.75,81.53,81.53,0,0,1-2.73,15.26c-.48,1.77-.87,3.14-1.13,4.06a9.84,9.84,0,0,1-.46,1.39,7.82,7.82,0,0,1,.29-1.44c.23-1,.56-2.37,1-4.09a89.22,89.22,0,0,0,2.47-15.23,39.75,39.75,0,0,0-.72-10.55,29.7,29.7,0,0,0-4.63-11.12,24.06,24.06,0,0,0-4.42-4.76c-1.74-1.41-3.71-2.64-5.61-4a21.21,21.21,0,0,1-5.2-5.11,25.61,25.61,0,0,1-3-6.84c-1.43-4.82-2.21-9.68-4.52-13.71a19.2,19.2,0,0,0-10-8.29,24.55,24.55,0,0,0-11.89-1.31,26.74,26.74,0,0,0-9.83,3.53A39.23,39.23,0,0,0,615,501.41c-1.1,1.46-1.87,2.64-2.4,3.46A11.9,11.9,0,0,1,611.73,506.14Z" fill="#8a0063" data-primary="true"/>
<path d="M673.58,523.47c-1.29-1.21-1.93-.36-3.68,0a10.65,10.65,0,0,0-4.72,2.36,19.91,19.91,0,0,0-6.45,20.88,15.52,15.52,0,0,0,14.18-23.35" fill="#8a0063" data-primary="true"/>
<path d="M620.07,499.14c-.66-1.64-1.64-1.17-3.28-1.64a10.81,10.81,0,0,0-5.27.1,19.88,19.88,0,0,0-14.74,16.06,15.54,15.54,0,0,0,22.76-14.87" fill="#8a0063" data-primary="true"/>
<path d="M685.27,556.39a18,18,0,0,0-25.4-1.68l0,0a18.56,18.56,0,0,0-2.74,3,22.2,22.2,0,0,0,14.61,5.77,22.63,22.63,0,0,0,14.73-6" fill="#8a0063" data-primary="true"/>
<path d="M680.89,531.81a18.15,18.15,0,0,0,18.68-17.6,18.5,18.5,0,0,0-.34-4.07,16.37,16.37,0,0,0-19,21.49" fill="#8a0063" data-primary="true"/>
<path d="M662.12,502.9a18.18,18.18,0,0,0,23.52-10.36h0a17.76,17.76,0,0,0,1-4,16.28,16.28,0,0,0-25,14" fill="#8a0063" data-primary="true"/>
<path d="M655.77,493.47a18.19,18.19,0,0,0-23.53,10.37,18.9,18.9,0,0,0-1,4,16.37,16.37,0,0,0,25.09-13.93" fill="#8a0063" data-primary="true"/>
<path d="M648.26,488.38a18.17,18.17,0,0,0,11.39-23,19.18,19.18,0,0,0-1.72-3.67,16.36,16.36,0,0,0-10.3,26.75" fill="#8a0063" data-primary="true"/>
<path d="M629,489.31a18.14,18.14,0,0,0-14.74-24.22,16.31,16.31,0,0,0,14.46,24.73" fill="#8a0063" data-primary="true"/>
<polygon points="655.27 631.09 661.3 638.56 735.32 638.56 740.36 631.09 655.27 631.09" fill="#005e94" data-secondary="true"/>
<polygon points="655.27 631.09 661.3 638.56 735.32 638.56 740.36 631.09 655.27 631.09" opacity="0.2" style="isolation:isolate"/>
</g>
</svg>