 <!DOCTYPE svg PUBLIC "-//W3C//DTD SVG 1.1//EN" "http://www.w3.org/Graphics/SVG/1.1/DTD/svg11.dtd">
<svg id="e505fff7-5a7a-4f3b-8a92-0871baef6a94" data-name="Layer 1" xmlns="http://www.w3.org/2000/svg" width="865.76" height="682.89" viewBox="0 0 865.76 682.89">
<defs>
<style xmlns="http://www.w3.org/1999/xhtml">*, ::after, ::before { box-sizing: border-box; }
img, svg { vertical-align: middle; }
</style>
<style xmlns="http://www.w3.org/1999/xhtml">*, body, html { -webkit-font-smoothing: antialiased; }
img, svg { max-width: 100%; }
</style>
</defs>
<polygon points="569.52 583.72 570.41 601.71 599.61 597.88 600.2 578.7 569.52 583.72" fill="#f9b499"/>
<polygon points="674.54 609.68 645.33 609.68 644.45 579 674.54 579 674.54 609.68" fill="#f9b499"/>
<path d="M623.93,626.45s10.16,6.86,10.16,16.55l42.32-.47-.24-35.7-31.67.24S641,618.65,623.93,626.45Z" fill="#8a0063" data-primary="true"/>
<rect x="203.24" y="119.66" width="301.21" height="533.03" fill="#8a0063" data-primary="true"/>
<rect x="220.14" y="177.03" width="269.91" height="486.39" fill="#fff"/>
<rect x="215.76" y="586.81" width="84.84" height="65.69" fill="#a7a9ac"/>
<path d="M159.94,136.27h35.13a0,0,0,0,1,0,0v36.52a16.48,16.48,0,0,1-16.48,16.48h-2.16a16.48,16.48,0,0,1-16.48-16.48V136.27A0,0,0,0,1,159.94,136.27Z" fill="#8a0063" data-primary="true"/>
<path d="M513.91,136.27h38.25a0,0,0,0,1,0,0v36.52a16.48,16.48,0,0,1-16.48,16.48H530.4a16.48,16.48,0,0,1-16.48-16.48V136.27A0,0,0,0,1,513.91,136.27Z" fill="#8a0063" data-primary="true"/>
<path d="M230.49,136.27h35.13a0,0,0,0,1,0,0v36.52a16.48,16.48,0,0,1-16.48,16.48H247a16.48,16.48,0,0,1-16.48-16.48V136.27a0,0,0,0,1,0,0Z" fill="#8a0063" data-primary="true"/>
<path d="M301.47,136.27H336.6a0,0,0,0,1,0,0v36.52a16.48,16.48,0,0,1-16.48,16.48H318a16.48,16.48,0,0,1-16.48-16.48V136.27a0,0,0,0,1,0,0Z" fill="#8a0063" data-primary="true"/>
<path d="M372,136.27h35.13a0,0,0,0,1,0,0v36.52a16.48,16.48,0,0,1-16.48,16.48h-2.16A16.48,16.48,0,0,1,372,172.79V136.27A0,0,0,0,1,372,136.27Z" fill="#8a0063" data-primary="true"/>
<path d="M443.36,136.27h35.13a0,0,0,0,1,0,0v36.52A16.48,16.48,0,0,1,462,189.27h-2.16a16.48,16.48,0,0,1-16.48-16.48V136.27a0,0,0,0,1,0,0Z" fill="#8a0063" data-primary="true"/>
<g opacity="0.4">
<path d="M159.94,136.27h35.13a0,0,0,0,1,0,0v36.52a16.48,16.48,0,0,1-16.48,16.48h-2.16a16.48,16.48,0,0,1-16.48-16.48V136.27A0,0,0,0,1,159.94,136.27Z" fill="#fff"/>
<path d="M513.91,136.27h38.25a0,0,0,0,1,0,0v36.52a16.48,16.48,0,0,1-16.48,16.48H530.4a16.48,16.48,0,0,1-16.48-16.48V136.27A0,0,0,0,1,513.91,136.27Z" fill="#fff"/>
<path d="M230.49,136.27h35.13a0,0,0,0,1,0,0v36.52a16.48,16.48,0,0,1-16.48,16.48H247a16.48,16.48,0,0,1-16.48-16.48V136.27a0,0,0,0,1,0,0Z" fill="#fff"/>
<path d="M301.47,136.27H336.6a0,0,0,0,1,0,0v36.52a16.48,16.48,0,0,1-16.48,16.48H318a16.48,16.48,0,0,1-16.48-16.48V136.27a0,0,0,0,1,0,0Z" fill="#fff"/>
<path d="M372,136.27h35.13a0,0,0,0,1,0,0v36.52a16.48,16.48,0,0,1-16.48,16.48h-2.16A16.48,16.48,0,0,1,372,172.79V136.27A0,0,0,0,1,372,136.27Z" fill="#fff"/>
<path d="M443.36,136.27h35.13a0,0,0,0,1,0,0v36.52A16.48,16.48,0,0,1,462,189.27h-2.16a16.48,16.48,0,0,1-16.48-16.48V136.27a0,0,0,0,1,0,0Z" fill="#fff"/>
</g>
<path d="M195.43,136.27h35.13a0,0,0,0,1,0,0v36.52a16.48,16.48,0,0,1-16.48,16.48h-2.16a16.48,16.48,0,0,1-16.48-16.48V136.27A0,0,0,0,1,195.43,136.27Z" fill="#005e94" data-secondary="true"/>
<path d="M266,136.27h35.13a0,0,0,0,1,0,0v36.52a16.48,16.48,0,0,1-16.48,16.48h-2.16A16.48,16.48,0,0,1,266,172.79V136.27a0,0,0,0,1,0,0Z" fill="#005e94" data-secondary="true"/>
<path d="M336.54,136.27h35.13a0,0,0,0,1,0,0v36.52a16.48,16.48,0,0,1-16.48,16.48H353a16.48,16.48,0,0,1-16.48-16.48V136.27a0,0,0,0,1,0,0Z" fill="#005e94" data-secondary="true"/>
<path d="M407.87,136.27H443a0,0,0,0,1,0,0v36.52a16.48,16.48,0,0,1-16.48,16.48h-2.16a16.48,16.48,0,0,1-16.48-16.48V136.27a0,0,0,0,1,0,0Z" fill="#005e94" data-secondary="true"/>
<path d="M478.42,136.27h35.13a0,0,0,0,1,0,0v36.52a16.48,16.48,0,0,1-16.48,16.48h-2.16a16.48,16.48,0,0,1-16.48-16.48V136.27A0,0,0,0,1,478.42,136.27Z" fill="#005e94" data-secondary="true"/>
<g opacity="0.2">
<path d="M195.43,136.27h35.13a0,0,0,0,1,0,0v36.52a16.48,16.48,0,0,1-16.48,16.48h-2.16a16.48,16.48,0,0,1-16.48-16.48V136.27A0,0,0,0,1,195.43,136.27Z"/>
<path d="M266,136.27h35.13a0,0,0,0,1,0,0v36.52a16.48,16.48,0,0,1-16.48,16.48h-2.16A16.48,16.48,0,0,1,266,172.79V136.27a0,0,0,0,1,0,0Z"/>
<path d="M336.54,136.27h35.13a0,0,0,0,1,0,0v36.52a16.48,16.48,0,0,1-16.48,16.48H353a16.48,16.48,0,0,1-16.48-16.48V136.27a0,0,0,0,1,0,0Z"/>
<path d="M407.87,136.27H443a0,0,0,0,1,0,0v36.52a16.48,16.48,0,0,1-16.48,16.48h-2.16a16.48,16.48,0,0,1-16.48-16.48V136.27a0,0,0,0,1,0,0Z"/>
<path d="M478.42,136.27h35.13a0,0,0,0,1,0,0v36.52a16.48,16.48,0,0,1-16.48,16.48h-2.16a16.48,16.48,0,0,1-16.48-16.48V136.27A0,0,0,0,1,478.42,136.27Z"/>
</g>
<polygon points="230.49 136.27 195.43 136.27 263.52 19.47 284.08 19.47 230.49 136.27" fill="#005e94" data-secondary="true"/>
<polygon points="301.47 135.41 265.98 136.27 303.26 19.92 324.27 19.47 301.47 135.41" fill="#005e94" data-secondary="true"/>
<polygon points="364.61 19.92 344.51 19.92 336.54 136.27 372.02 136.27 364.61 19.92" fill="#005e94" data-secondary="true"/>
<polygon points="406.63 20.53 386.53 20.53 407.87 136.27 443.36 136.27 406.63 20.53" fill="#005e94" data-secondary="true"/>
<polygon points="513.91 136.27 478.42 136.27 426.72 20.53 446.82 20.53 513.91 136.27" fill="#005e94" data-secondary="true"/>
<g opacity="0.2">
<polygon points="230.49 136.27 195.43 136.27 263.52 19.47 284.08 19.47 230.49 136.27"/>
<polygon points="301.47 135.41 265.98 136.27 303.26 19.92 324.27 19.47 301.47 135.41"/>
<polygon points="364.61 19.92 344.51 19.92 336.54 136.27 372.02 136.27 364.61 19.92"/>
<polygon points="406.63 20.53 386.53 20.53 407.87 136.27 443.36 136.27 406.63 20.53"/>
<polygon points="513.91 136.27 478.42 136.27 426.72 20.53 446.82 20.53 513.91 136.27"/>
</g>
<polygon points="159.94 136.27 195.43 136.27 263.52 19.47 243.91 19.53 159.94 136.27" fill="#8a0063" data-primary="true"/>
<polygon points="265.98 136.27 230.49 136.27 284.08 19.47 303.26 19.92 265.98 136.27" fill="#8a0063" data-primary="true"/>
<polygon points="324.27 19.47 344.51 19.92 336.54 136.27 301.47 135.41 324.27 19.47" fill="#8a0063" data-primary="true"/>
<polygon points="386.53 20.53 364.61 19.92 372.02 136.27 407.87 136.27 386.53 20.53" fill="#8a0063" data-primary="true"/>
<polygon points="426.72 20.53 478.42 136.27 443.36 136.27 406.63 20.53 426.72 20.53" fill="#8a0063" data-primary="true"/>
<polygon points="466.91 20.53 446.82 20.53 513.91 136.27 552.16 136.27 466.91 20.53" fill="#8a0063" data-primary="true"/>
<g opacity="0.4">
<polygon points="159.94 136.27 195.43 136.27 263.52 19.47 243.91 19.53 159.94 136.27" fill="#fff"/>
<polygon points="265.98 136.27 230.49 136.27 284.08 19.47 303.26 19.92 265.98 136.27" fill="#fff"/>
<polygon points="324.27 19.47 344.51 19.92 336.54 136.27 301.47 135.41 324.27 19.47" fill="#fff"/>
<polygon points="386.53 20.53 364.61 19.92 372.02 136.27 407.87 136.27 386.53 20.53" fill="#fff"/>
<polygon points="426.72 20.53 478.42 136.27 443.36 136.27 406.63 20.53 426.72 20.53" fill="#fff"/>
<polygon points="466.91 20.53 446.82 20.53 513.91 136.27 552.16 136.27 466.91 20.53" fill="#fff"/>
</g>
<ellipse cx="553.76" cy="155.68" rx="7.08" ry="6.51" fill="#005e94" data-secondary="true"/>
<path d="M558.1,204.89,557,219.51s21.69-37.68,28.54-39.74c0,0-4.9,12.83-4.11,37.22L581,238.76l-36.46,30.45a10,10,0,0,1-9.07,2c-5.44-1.51-12.58-6.37-12.23-21.55A48,48,0,0,1,525.33,237l11.53-38.29Z" fill="#8a0063" data-primary="true"/>
<path d="M599.86,171.88s-18,1.35-18.41,22L581,238.76s-5.71,13.23-4.37,23.1l-6.85,77.89s64.64,37.71,117.6-3.14c0,0-10.32-53.86-9.42-98.74l-8.53-60.6-20.2-9.87-27.38,16.15Z" fill="#8a0063" data-primary="true"/>
<path d="M598.51,228.44l20.65-14.36,20.64,41.74s9.88-75.86,29.63-78.55c0,0,15.71,1.8,12.57,45.33,0,0-23.34,90.22-49.83,75C632.17,297.56,619.61,290.83,598.51,228.44Z" fill="#8a0063" data-primary="true"/>
<path d="M598.51,228.44l20.65-14.36,20.64,41.74s9.88-75.86,29.63-78.55c0,0,15.71,1.8,12.57,45.33,0,0-23.34,90.22-49.83,75C632.17,297.56,619.61,290.83,598.51,228.44Z" opacity="0.2"/>
<path d="M599.86,171.88s-.37,14.36,13.89,19.74a14.82,14.82,0,0,0,11.63-.44c5.34-2.59,13.63-8.82,23.85-23.78l-12.57-6.74-29.17,7.63Z" fill="#8a0063" data-primary="true"/>
<path d="M599.86,171.88s-.37,14.36,13.89,19.74a14.82,14.82,0,0,0,11.63-.44c5.34-2.59,13.63-8.82,23.85-23.78l-12.57-6.74-29.17,7.63Z" fill="#fff" opacity="0.4"/>
<path d="M608.38,155.73l-.89,12.56s1.79,11.67,12.12,9.88c0,0,12.11-2.69,17-17.51l.9-20.19L634,134.18Z" fill="#f9b499"/>
<path d="M608.48,154.59l-.68,8.9s11.87-1.44,19.18-20Z" fill="#f7a48b"/>
<ellipse cx="611.98" cy="126.78" rx="24.24" ry="29.4" fill="#f9b499"/>
<path d="M588.68,119.78s9.38,0,13.87-13.43c0,0,9,19.3,26,13.92,0,0-.45,12.12,5.84,12.56l2.92,9.43-.68,18.4c5,2.88,10.28,5.77,15.9,8.62,5.81,2.95,11.45,5.61,16.87,8,3.5,4,10.87,13,12.16,22.4a89.76,89.76,0,0,1,.55,19.51L682,222.6s48-3.59,47.13-50.27c0,0,.44-17.5-28.28-18,0,0-12.57,2.24-6.29-9.88,0,0,9-18.85-10.32-23.34a20.87,20.87,0,0,0-14.36,1.35s-6.49,3.57-15-4.46a28.64,28.64,0,0,1-6-8.24c-3.3-6.69-12.51-22.94-24.27-23.66,0,0-33.21-5.83-39.5,24.69,0,0-13.46,33.22,14.82,61l7.63-3.59.89-12.56S583.64,150.42,588.68,119.78Z" fill="#005e94" data-secondary="true"/>
<polygon points="598.51 228.44 594.02 212.28 613.77 201.96 619.16 214.08 598.51 228.44" fill="#8a0063" data-primary="true"/>
<polygon points="598.51 228.44 594.02 212.28 613.77 201.96 619.16 214.08 598.51 228.44" fill="#8a0063" data-primary="true"/>
<polygon points="598.51 228.44 594.02 212.28 613.77 201.96 619.16 214.08 598.51 228.44" fill="#fff" opacity="0.4"/>
<polygon points="536.86 198.72 540.06 186.85 560.16 190.73 558.1 204.89 536.86 198.72" fill="#8a0063" data-primary="true"/>
<polygon points="536.86 198.72 540.06 186.85 560.16 190.73 558.1 204.89 536.86 198.72" fill="#fff" opacity="0.4"/>
<path d="M549.82,165.43s15.58-6.34,13.8,13.61a18.08,18.08,0,0,1-.94,4.29l-2.52,7.4-20.1-3.88.69-14.39,10,.21Z" fill="#f7a48b"/>
<polygon points="552.39 184.57 542.12 184.34 542.12 166.98 549.76 164.97 552.39 184.57" fill="#8a0063" data-primary="true"/>
<path d="M489.75,131.36,547.47,147a6,6,0,0,1,4.11,3.9c1.07,3.24,2.09,8.46-.26,12.87a5.15,5.15,0,0,1-3.47,2.53L493.3,179.77S507.1,145.29,489.75,131.36Z" fill="#8a0063" data-primary="true"/>
<path d="M552.62,166.3s-2.28,1.6-8.68.68c0,0-7.53-1.37-4.34,3.2,0,0,6.17,4.8,15.76,2.51" fill="#f7a48b"/>
<ellipse cx="489.9" cy="155.26" rx="12.64" ry="25.12" fill="#005e94" data-secondary="true"/>
<polygon points="569.78 339.75 536.93 461.39 562.72 587.47 609.28 586.75 592.09 475 614.29 420.56 640.8 585.32 685.93 586.04 687.38 336.61 569.78 339.75" fill="#005e94" data-secondary="true"/>
<path d="M569.78,339.75l-2,7,34.38,19.34L600.68,384l-13.45-5.85a1.52,1.52,0,0,0-2.06,1.83L593,405.5a16.32,16.32,0,0,1-1.19,12.44l-23.87,45a23.69,23.69,0,0,0-2.45,15l18,108.85h25.79L592.09,475l22.2-54.44-7.16-50.86s29,3.27,48.79-.37a11,11,0,0,1,13,10.1c2.53,41.68,9.19,164.51,2.69,205.89l14.33.72,1.45-249.43Z" opacity="0.2"/>
<path d="M600.5,633.28l-.89-35.4-29.79,2.06s-10,19.47-21.54,22.72c0,0,11.21,5.31,11.21,15Z" fill="#8a0063" data-primary="true"/>
<path d="M548.28,622.66s-26.25.88-28.32,28L601.68,641l-1.18-7.67-41,4.42S559.49,628,548.28,622.66Z" fill="#005e94" data-secondary="true"/>
<path d="M305.93,258.07a28.32,28.32,0,0,1,1.44-9.68c2.3-6.49,8-14.53,22.22-12.83,0,0,5.11.46,9.79,6.07a16.85,16.85,0,0,0,5.05,4.23c4.42,2.3,12.33,4.42,21.63-2,0,0,9.95-13.81,25.42-5.52,0,0,10.5,5,9.39,20.45,0,0,1.11,14.36,17.69,17.13,0,0,20.44-1.66,22.1,14.36,0,0,3.5,9.17-5.43,17.81a21.43,21.43,0,0,0-6.85,15.13,16,16,0,0,0,5.13,12.34,22.33,22.33,0,0,1,5.48,7.34c2.15,4.82,4.33,11.95-.54,18.12,0,0-3.31,9.95-22.1,8.84,0,0-12.71,3.32-14.92,16.58,0,0,2.21,18.79-14.37,23.21,0,0-10.87,3.62-21.09-7.16a18,18,0,0,0-6.92-4.58c-4.2-1.5-10.24-1.88-16.75,3.45,0,0-15.48,18.24-30.4,3.32,0,0-5-2.29-5.93-16.42a20.24,20.24,0,0,0-12.71-17.61l-.85-.31a6.12,6.12,0,0,0-2.65-.33l-.18,0c-19.46,1.66-29.52-23-14.52-35.49l.33-.27A9.73,9.73,0,0,0,278,331c2-4.15,4.53-13-4.75-21.91,0,0-10.5-11.6-5-21.55,0,0,2.21-13.26,21.55-12.16C289.8,275.34,306,273.31,305.93,258.07Z" fill="#8a0063" data-primary="true"/>
<path d="M313,267.61s-2.21-13.27,9.39-18.24c0,0,11.61-6.08,21,5,0,0,9.4,12.16,24.32-2.21,0,0,8.29-9.39,21.55,0,0,0,5.81,3.58,5,13.13A15.72,15.72,0,0,0,399,278.11,14.37,14.37,0,0,0,409.16,282a21.83,21.83,0,0,1,8.42,1.35,16.86,16.86,0,0,1,9.34,22.57,12.43,12.43,0,0,1-4.49,5.37c-8.29,5.53-5,18.79,0,22.66,0,0,14.36,11.61,1.65,24.87,0,0-5,5-14.36,4.42,0,0-14.37-1.11-14.92,15.47,0,0-1.11,18.24-15.48,18.79a15.8,15.8,0,0,1-13.81-6.08s-10.5-11.6-23.76,1.11c0,0-9.95,9.94-21.56,2.21,0,0-8.84-4.42-7.18-17.69,0,0,.46-10-12.34-13.53a16,16,0,0,0-6.08-.48c-4,.47-13.14-.11-15.29-14.72,0,0-2.21-6.63,6.63-16,0,0,9.4-7.73,0-19.89,0,0-12.71-9.95-3.31-23.76,0,0,3.31-7.19,16.57-6.08C299.19,282.53,310.8,282.53,313,267.61Z" fill="#fff" opacity="0.2"/>
<polygon points="333.46 365.42 343.4 366.52 373.24 281.42 363.85 281.42 333.46 365.42" fill="#fff"/>
<path d="M331.8,293.58c-7.63,0-13.82,5.81-13.82,13s6.19,13,13.82,13,13.81-5.81,13.81-13S339.43,293.58,331.8,293.58Zm0,19.89a6.93,6.93,0,1,1,7.46-6.9A7.2,7.2,0,0,1,331.8,313.47Z" fill="#fff"/>
<path d="M376,326.18c-7.63,0-13.82,5.82-13.82,13s6.19,13,13.82,13,13.81-5.82,13.81-13S383.64,326.18,376,326.18Zm0,19.9a6.93,6.93,0,1,1,7.46-6.91A7.2,7.2,0,0,1,376,346.08Z" fill="#fff"/>
<path d="M184.59,473.86h0a24.53,24.53,0,0,0-24.53,24.53v18.52h7.09V499.48A17.43,17.43,0,0,1,184.59,482h0A17.44,17.44,0,0,1,202,499.48v17.43h7.08V498.39A24.52,24.52,0,0,0,184.59,473.86Z" fill="#bcbec0"/>
<polygon points="495.19 506.33 558.41 506.33 570.94 545.57 570.94 651.29 478.29 650.21 478.84 541.21 495.19 506.33" fill="#d1d3d4"/>
<path d="M526.25,471.45A24.52,24.52,0,0,0,501.73,496V514.5h7.08V497.06a17.44,17.44,0,0,1,34.88,0V514.5h7.09V496A24.52,24.52,0,0,0,526.25,471.45Z" fill="#bcbec0"/>
<path d="M478.85,576.54s33.5,36.12,91.8,0v41.77a77.41,77.41,0,0,1-92.23,0Q478.63,597.43,478.85,576.54Z" fill="#bcbec0"/>
<rect x="204.01" y="575.5" width="108.33" height="17.4" fill="#939598"/>
<rect x="242.3" y="575.06" width="12.18" height="76.57" fill="#d1d3d4"/>
<path d="M248,568.54l15.19-17.22a6.23,6.23,0,0,1,9.07-.28h0a6.21,6.21,0,0,1,.39,8.38L259.27,575.5H237.51L224.3,556.93a5.89,5.89,0,0,1,.63-7.57h0a5.88,5.88,0,0,1,8.83.59Z" fill="#a7a9ac"/>
<rect x="247.53" y="189.27" width="1.07" height="10.63" fill="#8a0063" data-primary="true"/>
<polygon points="236.89 229.08 259.78 229.08 256.92 199.9 240.9 199.9 236.89 229.08" fill="#8a0063" data-primary="true"/>
<rect x="461.19" y="189.27" width="1.07" height="10.63" fill="#8a0063" data-primary="true"/>
<polygon points="450.56 229.08 473.45 229.08 470.59 199.9 454.57 199.9 450.56 229.08" fill="#8a0063" data-primary="true"/>
<ellipse cx="637.34" cy="135.53" rx="5.61" ry="6.73" fill="#f9b499"/>
<path d="M594,212.28S575.46,188.91,581.39,185c0,0,.46-2.05,4.11,4.34,0,0-2.74-9.82,2.06-12.1,0,0-1.37-6.62,2.51-6.39,0,0,1.83.22,1.83,3.42,0,0,1.82,5.48,4.11,8.45,0,0-3-14.39.45-15.76,0,0,2.52-2.28,5.94,11.88,0,0,2.51,8.9,4.8,12.56,0,0-.46-11.42,2-9.36,0,0,3.84-.43,4.52,19.9Z" fill="#f9b499"/>
<path d="M587.56,177.26s.91,6.39,3.88,9.36" fill="none" stroke="#f7a48b" stroke-miterlimit="10"/>
<path d="M531.84,168.58s-5.71.69-3.2,6.4c0,0-3.19,3.19.92,6.16,0,0-3.66,4.57,2.51,5.94,0,0,13.7.23,10.5-6.62a5.26,5.26,0,0,0,.23-5.71s3.65-4.34-1.14-6.85Z" fill="#f9b499"/>
<polygon points="153.52 508.74 216.74 508.74 229.28 547.98 229.28 653.71 136.63 654.53 137.17 543.62 153.52 508.74" fill="#d1d3d4"/>
<circle cx="205.3" cy="524.18" r="4.9" fill="#bcbec0"/>
<circle cx="163.82" cy="524.18" r="4.9" fill="#bcbec0"/>
<path d="M137.19,579s33.5,36.11,91.8,0v41.76a77.43,77.43,0,0,1-92.24,0Q137,599.84,137.19,579Z" fill="#bcbec0"/>
<circle cx="506.63" cy="524.31" r="4.9" fill="#bcbec0"/>
<circle cx="546.96" cy="524.86" r="4.9" fill="#bcbec0"/>
<rect x="443.6" y="586.12" width="84.84" height="65.69" fill="#a7a9ac"/>
<rect x="470.14" y="574.37" width="12.18" height="76.57" fill="#a7a9ac"/>
<path d="M475.79,567.84,491,550.63a6.23,6.23,0,0,1,9.08-.29h0a6.24,6.24,0,0,1,.39,8.38L487.1,574.8H465.35l-13.21-18.57a5.86,5.86,0,0,1,.63-7.56h0a5.88,5.88,0,0,1,8.83.58Z" fill="#bcbec0"/>
<rect x="431.85" y="574.8" width="108.33" height="17.4" fill="#939598"/>
<polygon points="306.52 652.43 347.69 501.27 427.1 500.69 388.28 652.43 306.52 652.43" fill="#d1d3d4"/>
<polygon points="428.27 511.27 392.39 652.43 388.28 652.43 427.1 500.69 430.04 501.27 470.62 652.43 464.74 651.85 428.27 511.27" fill="#bcbec0"/>
<polygon points="392.39 652.43 464.74 651.85 428.27 511.27 392.39 652.43" fill="#a7a9ac"/>
<path d="M324.17,587.15l-17.65,65.28h81.76l26.46-101.16S393.57,603,324.17,587.15Z" fill="#fff" opacity="0.2"/>
<polygon points="348.13 603.46 354.33 603.83 384.59 546.95 379.12 546.95 348.13 603.46" fill="#bcbec0"/>
<path d="M353.23,554.92a9.54,9.54,0,1,0,9.12,9.53A9.33,9.33,0,0,0,353.23,554.92Zm0,15.63a6.11,6.11,0,1,1,5.84-6.1A6,6,0,0,1,353.23,570.55Z" fill="#bcbec0"/>
<path d="M379.48,578.26a9.53,9.53,0,1,0,9.12,9.52A9.32,9.32,0,0,0,379.48,578.26Zm0,15.62a6.1,6.1,0,1,1,5.84-6.1A6,6,0,0,1,379.48,593.88Z" fill="#bcbec0"/>
<path d="M593.43,650.33s5.91-26,30.5-23.88c0,0,9.69,5.91,10.16,16.55l42.32-.47-.71,7.56Z" fill="#005e94" data-secondary="true"/>
</svg>