 <!DOCTYPE svg PUBLIC "-//W3C//DTD SVG 1.1//EN" "http://www.w3.org/Graphics/SVG/1.1/DTD/svg11.dtd">
<svg id="ed48086c-dc68-4a6e-9db4-b7b5d39ece8b" data-name="f3ce6fc7-bade-429d-9d09-f9fee46ab0fd" xmlns="http://www.w3.org/2000/svg" width="865.76" height="682.89" viewBox="0 0 865.76 682.89">
<defs>
<style xmlns="http://www.w3.org/1999/xhtml">*, ::after, ::before { box-sizing: border-box; }
img, svg { vertical-align: middle; }
</style>
<style xmlns="http://www.w3.org/1999/xhtml">*, body, html { -webkit-font-smoothing: antialiased; }
img, svg { max-width: 100%; }
</style>
</defs>
<g opacity="0.6">
<g opacity="0.5">
<path d="M458.53,242.56c-26.38-5.24-51.39-19.71-73-41.65-32.23-32.77-99.67-88.54-164-60.76-88.74,38.31-89.14,149.14-66,209.35S342.57,586,555.06,558c190.15-25.1,227.2-312.44,125.79-364.44C592.89,148.42,562.88,263.32,458.53,242.56Z" fill="#8a0063" data-primary="true"/>
</g>
<g opacity="0.5">
<ellipse cx="732.27" cy="200.04" rx="8.25" ry="11.96" fill="#8a0063" data-primary="true"/>
</g>
<path d="M194,121.28c2.54-.63,5.09,1.26,6,4.51,1.52,5.55-2.45,11.76-7.81,9h0C187.52,130.15,189.53,122.38,194,121.28Z" fill="#8a0063" data-primary="true"/>
<ellipse cx="709.76" cy="93.17" rx="10.74" ry="14.47" fill="#8a0063" data-primary="true"/>
<g opacity="0.8">
<path d="M226.53,109.87c1.62,7.77-1.75,15.84-7.52,18s-11.76-2.36-13.37-10.13,1.75-15.84,7.52-18S224.91,102.09,226.53,109.87Z" fill="#8a0063" data-primary="true"/>
</g>
<path d="M655.82,545.35c2.4-1.25,5.17,0,6.5,2.94,2.25,5.07-.8,12.17-6.44,10.77h0C650.7,555.69,651.61,547.55,655.82,545.35Z" fill="#8a0063" data-primary="true"/>
<path d="M686.23,526c2.66,7.24.47,16-4.9,19.59s-11.88.64-14.54-6.6-.47-16,4.9-19.59S683.57,518.75,686.23,526Z" fill="#8a0063" data-primary="true"/>
<path d="M696.13,71c0,4.92-3,8.9-6.6,8.9s-6.61-4-6.61-8.9,3-8.9,6.61-8.9S696.13,66.11,696.13,71Z" fill="#8a0063" data-primary="true"/>
</g>
<g opacity="0.4">
<path d="M713.73,232.29c0-79.52-49.15-166.66-110.32-171.93-1.07-.09-2.16-.17-3.25-.24C512.47,54.62,505.79,198.7,426.45,215s-139.93-65.78-234.86-12.26c-85.26,48.07-108.36,318.2,142.16,329C534.18,540.39,713.76,469.54,713.73,232.29Z" fill="#8a0063" data-primary="true"/>
</g>
<rect x="49.39" y="126.43" width="157.22" height="110.39" fill="#fff"/>
<path d="M207.11,237.32H48.89V125.92H207.11Zm-157.22-1H206.11V126.92H49.89Z" fill="#005e94" data-secondary="true"/>
<path d="M142.12,184.88A22.06,22.06,0,1,0,101,196h0l.07.09c.84,1.42,1.9,2.45,3,4l12.81,17a4,4,0,0,0,5.57.78,3.61,3.61,0,0,0,.78-.78l12.6-16.66a47.21,47.21,0,0,0,3.2-4.25V196h0A22,22,0,0,0,142.12,184.88Zm-22.06,9.6a9.71,9.71,0,1,1,9.71-9.71h0a9.7,9.7,0,0,1-9.7,9.7Z" fill="#e0e0e0"/>
<rect x="49.39" y="148.15" width="155.84" height="1" fill="#005e94" data-secondary="true"/>
<rect x="497.13" y="28.42" width="173.24" height="90.17" fill="#fff"/>
<path d="M670.87,119.09H496.63V27.92H670.87Zm-173.24-1H669.87V28.92H497.63Z" fill="#005e94" data-secondary="true"/>
<rect x="505.46" y="279.65" width="201.81" height="141.71" fill="#fff" stroke="#2f2e41" stroke-miterlimit="10"/>
<path d="M525.37,289.68a53.16,53.16,0,0,1-5.56,5.47,51.23,51.23,0,0,1-5.91,5,55.12,55.12,0,0,1,5.56-5.46A52.33,52.33,0,0,1,525.37,289.68Z" fill="#263238"/>
<path d="M524.89,300.61a51.1,51.1,0,0,1-5.46-5.55,52.14,52.14,0,0,1-5-5.9A100.39,100.39,0,0,1,524.89,300.61Z" fill="#263238"/>
<path d="M545.41,300.38a6.07,6.07,0,0,1-.06-.85l-.06-2.22c0-1.92-.1-4.63-.14-7.86l.26.25h-11c0,.07.56-.54.29-.28h0v10.95l-.25-.25c3.23,0,5.94.08,7.86.12l2.22.07a6.07,6.07,0,0,1,.85.06,3.64,3.64,0,0,1-.74.05l-2.22.07c-1.91,0-4.68.1-8,.13h-.24v-11.2h0c-.26.26.35-.35.29-.3h11.22v.25c0,3.33-.09,6.12-.14,8,0,.88,0,1.6-.06,2.22A4.15,4.15,0,0,1,545.41,300.38Z" fill="#263238"/>
<path d="M565.85,299.4a60.9,60.9,0,0,1-11.77,0A59.35,59.35,0,0,1,565.85,299.4Z" fill="#263238"/>
<rect x="611.68" y="324.84" width="72.16" height="72.16" fill="#e0e0e0"/>
<rect x="165.6" y="69.11" width="417.64" height="321.09" fill="#fff"/>
<path d="M583.74,390.7H165.1V68.61H583.74Zm-417.64-1H582.74V69.61H166.1Z" fill="#005e94" data-secondary="true"/>
<path d="M464.1,363.18s.35-.5,1.11-1.44l.61-.8c.2-.3.39-.67.61-1.06a16.21,16.21,0,0,0,1.37-2.73c.21-.54.46-1.11.68-1.71s.36-1.29.55-2a14.09,14.09,0,0,0,.45-2.22,22,22,0,0,0,.34-2.42,45.86,45.86,0,0,0-.54-11.7c-1.35-8.74-5-19-10.73-30.22A236.28,236.28,0,0,0,435.49,271a368.13,368.13,0,0,0-34.37-38.61A419,419,0,0,0,356,193.93c-8.43-6.19-17.3-12.22-26.66-17.85a256.09,256.09,0,0,0-29.62-15.55c-10.41-4.52-21.38-8.47-33-10.33a58.22,58.22,0,0,0-17.58-.44,33.07,33.07,0,0,0-8.49,2.46,21.18,21.18,0,0,0-11.51,12.88,32.73,32.73,0,0,0-1.49,8.72,58,58,0,0,0,2.43,17.42c3.17,11.31,8.34,21.76,14,31.59a259.7,259.7,0,0,0,18.82,27.68c6.67,8.67,13.66,16.81,20.77,24.44a421.48,421.48,0,0,0,43.4,40.46,367,367,0,0,0,42.27,29.81,236.56,236.56,0,0,0,38.19,18.88c11.76,4.37,22.41,6.88,31.24,7.22a45.32,45.32,0,0,0,11.68-.8,21.68,21.68,0,0,0,2.37-.61,12.35,12.35,0,0,0,2.13-.7l1.91-.76c.58-.29,1.11-.6,1.62-.88a17.94,17.94,0,0,0,2.57-1.67c.34-.26.68-.49,1-.73l.74-.69c.85-.83,1.31-1.24,1.31-1.24l-1.27,1.29-.71.71c-.29.24-.62.47-1,.74a15.56,15.56,0,0,1-2.55,1.71c-.51.28-1,.6-1.62.9l-1.92.78a13.5,13.5,0,0,1-2.14.73,21.9,21.9,0,0,1-2.38.62,45.3,45.3,0,0,1-11.73.87c-8.88-.3-19.57-2.79-31.37-7.12a234.76,234.76,0,0,1-38.35-18.77A365.9,365.9,0,0,1,326.7,316a419.4,419.4,0,0,1-43.51-40.46c-7.13-7.68-14.13-15.83-20.84-24.51a258.89,258.89,0,0,1-18.88-27.77c-5.7-9.86-10.89-20.36-14.1-31.75a59.06,59.06,0,0,1-2.44-17.62,33.54,33.54,0,0,1,1.52-8.89,21.85,21.85,0,0,1,11.86-13.33,33.32,33.32,0,0,1,8.69-2.52,59.49,59.49,0,0,1,17.77.43c11.68,1.89,22.7,5.86,33.14,10.4A257.65,257.65,0,0,1,329.6,175.5c9.39,5.67,18.28,11.7,26.66,17.9A418.13,418.13,0,0,1,401.4,232a367.53,367.53,0,0,1,34.46,38.78,235.78,235.78,0,0,1,23,36c5.66,11.25,9.34,21.58,10.66,30.37a45.71,45.71,0,0,1,.47,11.74,18.53,18.53,0,0,1-.35,2.45,16.88,16.88,0,0,1-.48,2.22l-.56,2c-.23.61-.49,1.17-.7,1.72a16.45,16.45,0,0,1-1.42,2.73c-.23.39-.42.75-.63,1.06l-.62.79Z" fill="#e0e0e0"/>
<path d="M506.75,260.23s-.07-.61-.17-1.8a4.81,4.81,0,0,0-.07-1c-.08-.36-.16-.76-.25-1.19a14.93,14.93,0,0,0-.8-3c-.2-.55-.37-1.11-.62-1.73s-.6-1.19-.91-1.84a14.94,14.94,0,0,0-1.11-1.94,20.9,20.9,0,0,0-1.37-2,45.6,45.6,0,0,0-8.17-8.37c-6.83-5.63-16.45-10.84-28.14-15.42a238.07,238.07,0,0,0-41.1-11.4,367.29,367.29,0,0,0-51.33-5.94,421,421,0,0,0-59.32,1.3c-10.4,1-21,2.43-31.79,4.45a257.19,257.19,0,0,0-32.46,8.13c-10.77,3.55-21.59,7.92-31.48,14.23a58.55,58.55,0,0,0-13.39,11.42,32.7,32.7,0,0,0-4.7,7.48,21.23,21.23,0,0,0,0,17.28,32.55,32.55,0,0,0,4.7,7.49,57.61,57.61,0,0,0,13.41,11.39c9.88,6.32,20.7,10.69,31.48,14.24a257,257,0,0,0,32.46,8.09c10.77,2,21.4,3.45,31.81,4.44a422.41,422.41,0,0,0,59.31,1.29,367.7,367.7,0,0,0,51.36-5.93,237,237,0,0,0,41.1-11.41c11.67-4.58,21.29-9.79,28.12-15.41a46.24,46.24,0,0,0,8.18-8.36c.54-.66.92-1.39,1.36-2a15.63,15.63,0,0,0,1.11-2c.33-.63.63-1.25.92-1.83a17.82,17.82,0,0,0,.62-1.73,16.39,16.39,0,0,0,.8-3c.09-.43.2-.82.24-1.19s.06-.7.08-1c.1-1.19.17-1.8.17-1.8s0,.61-.09,1.8a4.81,4.81,0,0,1-.07,1l-.22,1.2a17.18,17.18,0,0,1-.78,3c-.19.55-.38,1.11-.61,1.75s-.59,1.2-.9,1.86a15.63,15.63,0,0,1-1.11,2,19,19,0,0,1-1.36,2,45.1,45.1,0,0,1-8.17,8.45c-6.83,5.69-16.46,11-28.16,15.55a234.41,234.41,0,0,1-41.1,11.52,364.05,364.05,0,0,1-51.52,6.06,421.75,421.75,0,0,1-59.37-1.19c-10.42-1-21.11-2.41-31.85-4.44a258.76,258.76,0,0,1-32.56-8.15c-10.8-3.55-21.68-7.93-31.64-14.3a59,59,0,0,1-13.57-11.52,33.68,33.68,0,0,1-4.79-7.67,21.73,21.73,0,0,1,0-17.83,34.13,34.13,0,0,1,4.79-7.65,59.22,59.22,0,0,1,13.58-11.52c10-6.36,20.83-10.74,31.64-14.29a254.83,254.83,0,0,1,32.55-8.16c10.78-2,21.43-3.44,31.85-4.44A417.28,417.28,0,0,1,372.71,204a365.67,365.67,0,0,1,51.42,6,235.31,235.31,0,0,1,41.1,11.53c11.7,4.61,21.33,9.87,28.16,15.55a45.41,45.41,0,0,1,8.17,8.45,21.55,21.55,0,0,1,1.36,2.06,15.63,15.63,0,0,1,1.11,2l.9,1.86c.23.6.42,1.2.61,1.74a17.18,17.18,0,0,1,.78,3c.08.43.18.83.22,1.2s0,.67.07,1C506.73,259.62,506.75,260.23,506.75,260.23Z" fill="#e0e0e0"/>
<path d="M450.23,132.07l-1.52-1-.83-.55c-.32-.19-.7-.35-1.11-.54a15.91,15.91,0,0,0-2.83-1.17c-.56-.18-1.12-.4-1.76-.57l-2-.41a11.86,11.86,0,0,0-2.22-.3c-.81-.1-1.63-.15-2.45-.17a45.44,45.44,0,0,0-11.61,1.33c-8.64,2-18.66,6.36-29.42,12.8A235.59,235.59,0,0,0,360.29,167a367.9,367.9,0,0,0-36.12,37,421.44,421.44,0,0,0-35.33,47.67c-5.55,8.83-11,18.11-16,27.84a257.49,257.49,0,0,0-13.47,30.63c-3.8,10.69-7,21.92-8,33.61a58.46,58.46,0,0,0,.78,17.56,32.79,32.79,0,0,0,3,8.31,21.08,21.08,0,0,0,13.64,10.59,33.47,33.47,0,0,0,8.81.88,58.25,58.25,0,0,0,17.21-3.59c11.06-3.94,21.11-9.82,30.55-16.16a253.49,253.49,0,0,0,26.32-20.67c8.18-7.27,15.83-14.79,23-22.41a421.62,421.62,0,0,0,37.37-46.08A370.09,370.09,0,0,0,438.82,228,237.85,237.85,0,0,0,455,188.44c3.54-12,5.32-22.84,5.05-31.67a46.28,46.28,0,0,0-1.6-11.59,19.3,19.3,0,0,0-.78-2.33,13.2,13.2,0,0,0-.84-2.07l-.9-1.85c-.32-.55-.68-1.11-1-1.55a16.86,16.86,0,0,0-1.84-2.45c-.29-.33-.54-.66-.8-.92s-.52-.48-.74-.68c-.88-.8-1.33-1.23-1.33-1.23s.48.39,1.38,1.18l.76.67c.26.26.51.58.81.91A15.79,15.79,0,0,1,455,137.3c.32.49.68,1,1,1.55l.91,1.85a14.12,14.12,0,0,1,.86,2.09,23.7,23.7,0,0,1,.8,2.33,45.33,45.33,0,0,1,1.67,11.64c.31,8.89-1.43,19.72-4.94,31.79a235.84,235.84,0,0,1-16.09,39.56,364.37,364.37,0,0,1-26.74,44.32,420.92,420.92,0,0,1-37.36,46.13c-7.17,7.64-14.82,15.19-23,22.47a257.19,257.19,0,0,1-26.37,20.74c-9.44,6.37-19.56,12.28-30.7,16.25a58.75,58.75,0,0,1-17.42,3.66,33.25,33.25,0,0,1-9-.9,21.88,21.88,0,0,1-14.08-10.93,33.39,33.39,0,0,1-3.1-8.49,59.2,59.2,0,0,1-.8-17.77c1.11-11.78,4.28-23,8.09-33.77a258,258,0,0,1,13.5-30.7c5-9.76,10.42-19,16-27.88a417.26,417.26,0,0,1,35.43-47.7A364.93,364.93,0,0,1,360,166.59a234.51,234.51,0,0,1,34.3-25.42c10.81-6.42,20.88-10.81,29.55-12.73a45.64,45.64,0,0,1,11.7-1.28,20.05,20.05,0,0,1,2.45.19,12.77,12.77,0,0,1,2.22.32l2,.42c.62.18,1.21.4,1.75.59a16.07,16.07,0,0,1,2.83,1.21c.4.2.77.37,1.11.56l.84.56Z" fill="#e0e0e0"/>
<circle cx="191.63" cy="328.14" r="5.74" fill="#e0e0e0"/>
<path d="M519.83,146.05a5.75,5.75,0,1,1-5.76-5.74h0A5.76,5.76,0,0,1,519.83,146.05Z" fill="#e0e0e0"/>
<circle cx="230.52" cy="342.97" r="1.46" fill="#e0e0e0"/>
<path d="M263.13,182a1.47,1.47,0,1,1-1.47-1.47h0a1.46,1.46,0,0,1,1.46,1.46Z" fill="#e0e0e0"/>
<path d="M491,260.23a1.47,1.47,0,1,1-1.48-1.46h0A1.47,1.47,0,0,1,491,260.23Z" fill="#e0e0e0"/>
<path d="M511.25,192.16a1.46,1.46,0,1,1-1.47-1.45h0a1.45,1.45,0,0,1,1.46,1.44Z" fill="#e0e0e0"/>
<ellipse cx="359.17" cy="242.44" rx="91.55" ry="92.17" fill="#8a0063" data-primary="true"/>
<g opacity="0.3">
<path d="M325.27,283.52c.48-4,3.6-8.08,1.81-11.7-2-4.05-7.89-3.39-12-5.2-5.76-2.53-7.54-9.69-11.32-14.75-3.33-4.51-11.25-9.49-17.24-8.12-4.35,1-5.84,3.58-6.28,6.76l-.56-.09c-1.61-.17-3.49-.25-4.38-1.58-1-1.56,0-3.86-1.11-5.38a8.73,8.73,0,0,0-2.29-1.71c-.78-.56-1.45-1.59-1-2.43s1.41-.86,1.92-1.51a1.5,1.5,0,0,0,0-1.82c-1.66-2-3.49,2-4.45,3a9.73,9.73,0,0,1-.74.69h0v6.49a14.78,14.78,0,0,1,2.82,1.39c1.79,1,3.77,2.38,3.89,4.44a1.75,1.75,0,0,0,.19,1,1.54,1.54,0,0,0,.85.43,25.14,25.14,0,0,0,4.65.64c0,1.85.16,3.77.13,5.56,0,2.64-.91,5.26-.62,7.89.42,3.71,3,6.75,5.24,9.73,8.54,11.41,13.15,24.5,18.15,37.92h0c.92.73,2.22,1.72,3.2,2.4.76.54,1.46,1,2.22,1.53l2.22,1.46c.56.35.68.44,1.25.77-.08-.15,0,.13,0,0-2-4.44-2-10.54,2.31-12.73a9.18,9.18,0,0,0,2.44-1.28c1.94-1.83.36-5.56,2.28-7.41,1.11-1,2.78-1,4.13-1.56,2.41-1.11,3.2-4.21,3-6.87S325,286.17,325.27,283.52Z"/>
</g>
<g opacity="0.3">
<path d="M273.3,216.06c1.72-1.47,4.67-1.64,6,.18,1,1.3.73,3.09.49,4.68-.33,2.15-.67,4.29-1,6.43a3.38,3.38,0,0,0,.09,1.94c.63,1.35,2.86,1.11,3.72-.13a5.89,5.89,0,0,0,.53-4.35,8.36,8.36,0,0,1,0-4.44c1.46-3.45,6.6-2.93,9.58-5.17,1.85-1.39,2.67-3.72,3.78-5.76s2.94-4.09,5.26-4c.78,0,1.54.32,2.33.29a3.13,3.13,0,0,0,2.66-3.51,3.19,3.19,0,0,0-.66-1.53,5.91,5.91,0,0,1-1-1,1.91,1.91,0,0,1,.73-2.22,5.36,5.36,0,0,1,2.43-.78l5.87-.93c2.15-.34,4.92-1.45,4.62-3.6-.27-1.88-2.8-2.71-3.18-4.57a6.25,6.25,0,0,0-.24-1.36c-.59-1.19-2.38-.71-3.52-.07a2.83,2.83,0,0,0-3.62-1.73,2.92,2.92,0,0,0-.68.35c-1.11,1-1.3,2.64-1.71,4.07-1,3.48-3.72,6.12-6.36,8.56a5.27,5.27,0,0,1-3.08,1.74c-1.2.06-2.47-1.23-1.91-2.29.37-.72,1.42-1.11,1.31-2s-1.91-.93-2.23-1.91c.7-2.86,4-4,6.5-5.55a15.65,15.65,0,0,0,6.67-8.18,2.07,2.07,0,0,0,.09-1.67c-.38-.73-1.36-.84-2.23-.84-1.94,0-4.35.22-5.06,2-.38,1-.1,2.07-.33,3.08-.68,3-4.81,3.34-7.33,5.15a22.68,22.68,0,0,1-2.85,2.22,10.67,10.67,0,0,1-3.84.62H284c-.8,1.11-1.42,2.12-2.16,3.27s-1.49,2.43-2.17,3.61a90,90,0,0,0-7.77,17.77c-.72,2.16-1.33,4.44-1.87,6.73s-.92,4.35-1.3,6.66a25.64,25.64,0,0,0,1.65-5.76C270.91,219.81,271.63,217.48,273.3,216.06Z"/>
</g>
<g opacity="0.3">
<path d="M350.24,174.65c.85-1.12.61-2.77,1.17-4.08.93-2.22,3.83-3,4.83-5.11.39-.82.49-1.83,1.11-2.45s1.4-.62,2-1.11c1.35-1,.79-3.38-.65-4.29-3.58-2.3-10.19.35-13.33,2.59-4,2.89-7.88,6.36-13.19,6-1.46-.09-3-.5-4.36,0s-2.22,2.57-1,3.44c.66.49,1.59.34,2.33.69,1.37.63,1.5,2.62.84,4s-1.87,2.37-2.66,3.66a6.78,6.78,0,0,0-1,4.19,3.83,3.83,0,0,0,1.25,2.69c1.64,1.32,4.15.19,5.55-1.4s2.37-3.63,4.18-4.7a10.5,10.5,0,0,1,3-1l6.92-1.64A5,5,0,0,0,350.24,174.65Z"/>
</g>
<g opacity="0.3">
<path d="M450.7,241.74c0-1.32,0-2.62-.12-3.92s-.12-2.62-.25-3.91c-.1-1-.2-2.09-.34-3.12s-.28-2.34-.46-3.42a82.2,82.2,0,0,0-2-9.19c-.34-1.2-.92-2.47-1.3-3.65s-.8-2.34-1.23-3.49h0c-.47-.87-1-1.73-1.49-2.56-5.09-8-12.47-14.37-18.06-22.08-1.83-2.5-3.24-4.58-6.48-5.07-4.77-.73-7.19,2-10.58-2.54-.91-1.22-2.51-2.36-3.86-1.62.35,1,.71,1.93,1.06,2.92a1.24,1.24,0,0,1,.11.63c-.07.69-1.11.88-1.67.5a6.09,6.09,0,0,1-1.26-1.64,4.71,4.71,0,0,0-6.6-.82,3.47,3.47,0,0,0-.29.25,2.59,2.59,0,0,0-1.52-2.13,3.14,3.14,0,0,1-3.58,2.61l-.35-.08c-.28-.89,1.3-1,1.85-1.8s-.1-1.7-.75-2.29a10,10,0,0,0-6.3-2.44c-1.47,0-3,.24-4.32-.51-.74-.44-1.26-1.11-2-1.58-1.62-.91-3.63-.08-5.25.82-2.22,1.24-4.51,2.79-5.28,5.2s.95,5.67,3.47,5.37a5,5,0,0,1,1.92-.23,2.32,2.32,0,0,1,1.38,2.23,6.79,6.79,0,0,0,.42,2.71c.44.81,1.76,1.21,2.22.44,1.19-1.11,1-3,.75-4.63s-.62-3.42.33-4.74,3.72-.9,3.53.72c-.11,1-1.2,1.65-1.11,2.62s1.25,1.51,2.23,1.47a10.67,10.67,0,0,1,2.93-.15c1,.23,1.74,1.49,1,2.22-1.2,1.37-4.33-1-4.95.74a5.31,5.31,0,0,0,0,1.38c-.11,1.43-1.9,1.94-3.33,2.11a7.91,7.91,0,0,1-4.23-.3c-1.28-.61-2.16-2.31-1.43-3.52a1.62,1.62,0,0,0-2.17.7.54.54,0,0,1,0,.11,4.66,4.66,0,0,0-.17,2.64c-1.5-.34-2.85.94-3.71,2.22s-1.69,2.75-3.15,3.21-3.5-.17-4.27,1.16c-1,1.75,1.89,4,.88,5.67-.58,1-2,.94-3.07,1.24-2.91.83-3.93,5.09-1.94,7.36s5.95,2.14,8.05,0c1.47-1.49,2.06-3.59,3.11-5.39s3.06-3.41,5.06-2.82a5.85,5.85,0,0,1,2.08,1.3l2.91,2.44c.62.52,1.3,1.18,1.24,2s-.57,1.11-.78,1.77c-.61,1.75,1.92,3.42,3.51,2.46s1.78-3.41.69-4.91c-1.51-2.09-4.91-3.13-4.82-5.71,1.73-1.42,4.44.07,5.49,2.09s1,4.37,1.9,6.44,3.24,3.93,5.24,2.91c-.52-1.79-1-3.57-1.55-5.35,1.27-1,2.73,1.82,4.25,1.36.93-.29,1-1.63.64-2.53A12.23,12.23,0,0,1,391.6,203c-.29-1.76,1.67-3.33,3.45-3.05a4.55,4.55,0,0,1,3.39,3.74,8.62,8.62,0,0,0,.46,2.07c.67,1.39,2.39,1.81,3.81,2.39s2.91,2,2.33,3.43c-.28.62-.94,1.22-.7,1.85s1,.81,1,1.43c0,.39-.43.67-.81.83-.95.4-2,.52-2.92,1A2.64,2.64,0,0,0,400,219c.12,1.44,1.84,2.14,2.65,3.33s.67,2.67,1.12,4a14.18,14.18,0,0,0,2.22,3.16c2.41,3.34,3,7.49,4.14,11.38.52,1.74,1.48,3.7,3.28,4a5.58,5.58,0,0,0,2.9-.55c2.58-1,5.27-2.14,7.08-4.24s2.45-5.55.57-7.62a1.44,1.44,0,0,0-.88-.56,2.65,2.65,0,0,0-1.36.47,3.88,3.88,0,0,1-4.05-.86,11.68,11.68,0,0,1-2.4-3.61l-2.14-4.33a2.55,2.55,0,0,1,3.1.28,16.59,16.59,0,0,1,2.11,2.62c2.17,2.69,5.71,3.88,9.14,4.28a8.8,8.8,0,0,1,2.58.54c2.56,1.17,3.33,5,6,5.76a18.35,18.35,0,0,1,2.31.52,4.32,4.32,0,0,1,1.92,2.87,45.85,45.85,0,0,0,1.7,6.41c.88,2,2.69,3.86,4.89,3.89a5.12,5.12,0,0,0,3.62-1.58c.12-2,.25-4.07.25-6.1C450.73,242.58,450.73,242.16,450.7,241.74Z"/>
</g>
<g opacity="0.3">
<path d="M413.65,279.68c-1.36.27-1.63,1.11-2.37,2.08-1,1.32-2.35,2.63-3.22,3.93-1.49,2.22-.15,5.63-2.11,7.48-.44.31-.86.65-1.27,1a2.31,2.31,0,0,0,.47,3.2,3.14,3.14,0,0,0,3.41.06,5,5,0,0,0,2.08-2.86,4.88,4.88,0,0,1,1.12-2.33c1.11-1,2.86-.26,4.34-.47C422.32,291,419.62,278.57,413.65,279.68Z"/>
</g>
<g opacity="0.3">
<path d="M415.78,262.44c3.62-3.12,5.07-10.18.59-11.82-1.7-.62-3.66-.12-5.35-.77-2.22-.85-3.22-3.34-4-5.56q-3.12-8.74-6.25-17.48c-1.26-3.51-3.17-7.58-6.86-8.1-2.08-.29-4.12.71-6.19,1.11-7.16,1.3-19.19-16-24.63-4.35-.76-3.18-5.91-2-7.55.83s-2,6.53-4.6,8.49c-2,1.49-4.9,1.57-6.53,3.45-1.12,1.32-1.34,3.2-1.48,4.94-.28,3.33-.55,6.67-.82,10-.23,2.69-.42,5.56.92,7.9s4.8,3.64,6.78,1.83c.93-.83,1.3-2.1,2.06-3.09a5.2,5.2,0,0,1,5.34-1.84,9,9,0,0,1,4.07,2.87c9.31,10,12.64,24.29,13.05,38a21.81,21.81,0,0,0,1,7.4c1.11,2.74,3.33,4.93,4,7.78.52,2.22,0,4.6,1,6.66,1.73,3.77,7.52,3.94,10.67,1.22s4.25-7.05,4.88-11.1,1.11-8.43,3.33-11.89c1.42-2.14,3.52-3.86,4.51-6.23,1.4-3.33.37-7.25,1.66-10.62C407.15,267.54,412.17,265.58,415.78,262.44Z"/>
</g>
<path d="M450.61,242.53s0-.51-.07-1.49,0-2.46-.18-4.37a95.71,95.71,0,0,0-2.59-16.57A91.59,91.59,0,0,0,444,208.59a88.19,88.19,0,0,0-6.33-13,92.41,92.41,0,0,0-23.12-26.19,90.88,90.88,0,0,0-74.34-16.88A98.13,98.13,0,0,0,328,156.11a91.42,91.42,0,0,0-42.36,32.21,89.18,89.18,0,0,0-7.4,12.06c-1.11,2.1-2.07,4.3-3,6.49a60.67,60.67,0,0,0-2.5,6.79,90.65,90.65,0,0,0-3.45,14.17,101,101,0,0,0-1.17,14.74,99.64,99.64,0,0,0,1.17,14.74,91.16,91.16,0,0,0,3.45,14.19c.72,2.31,1.62,4.54,2.5,6.77a64.76,64.76,0,0,0,3,6.5,89.18,89.18,0,0,0,7.4,12.06A91.55,91.55,0,0,0,328,329.05a97.52,97.52,0,0,0,12.22,3.53,88.34,88.34,0,0,0,12.22,1.74A89.38,89.38,0,0,0,376.1,333a90.59,90.59,0,0,0,38.49-17.29,92.63,92.63,0,0,0,23.12-26.21,87.19,87.19,0,0,0,6.34-12.95A93.59,93.59,0,0,0,447.77,265a95.71,95.71,0,0,0,2.59-16.57c.16-1.91.13-3.34.18-4.37s.07-1.49.07-1.49v1.49c0,1,0,2.46-.14,4.38a91.29,91.29,0,0,1-6.17,28.19,87.1,87.1,0,0,1-6.31,13A92.92,92.92,0,0,1,414.84,316a90.71,90.71,0,0,1-62.4,18.8A88.65,88.65,0,0,1,340.1,333a95.58,95.58,0,0,1-12.31-3.54,92,92,0,0,1-42.66-32.37A88.16,88.16,0,0,1,277.69,285c-1.11-2.11-2.09-4.32-3.06-6.53a61.2,61.2,0,0,1-2.51-6.82,90.92,90.92,0,0,1-3.47-14.28,92.81,92.81,0,0,1,0-29.66,91.07,91.07,0,0,1,3.47-14.27c.73-2.32,1.63-4.57,2.52-6.81a63.46,63.46,0,0,1,3.05-6.53,92.17,92.17,0,0,1,50.1-44.5A95.83,95.83,0,0,1,340.1,152a91,91,0,0,1,74.73,17.05A92.57,92.57,0,0,1,438,195.42a87.1,87.1,0,0,1,6.31,13,91.48,91.48,0,0,1,6.17,28.22c.15,1.92.1,3.33.14,4.38A10.87,10.87,0,0,1,450.61,242.53Z" fill="#005e94" data-secondary="true"/>
<path d="M362.71,334.78c-.16,0-.29-40.91-.29-91.38s.13-91.38.29-91.38.29,40.91.29,91.38S362.84,334.78,362.71,334.78Z" fill="#005e94" data-secondary="true"/>
<path d="M367.91,334.29s.15-.12.46-.33l1.35-.93c1.21-.78,2.94-2,5.1-3.72a99.74,99.74,0,0,0,16.32-16.41A107.34,107.34,0,0,0,407.8,283a130.49,130.49,0,0,0,7.38-41.28c.29-14.92-1.21-29.24-4.68-41.72a84.62,84.62,0,0,0-15.37-30.48,53.51,53.51,0,0,0-9.43-9.17,49.47,49.47,0,0,0-8.49-5.19,59,59,0,0,0-5.83-2.39l-1.56-.53-.53-.2.54.14,1.58.48a54.1,54.1,0,0,1,5.9,2.29,50.4,50.4,0,0,1,8.59,5.13,53.62,53.62,0,0,1,9.55,9.19A84.46,84.46,0,0,1,411,199.84c3.52,12.54,5,26.89,4.74,41.89a129.8,129.8,0,0,1-7.48,41.44,107.25,107.25,0,0,1-16.84,30,97.62,97.62,0,0,1-16.49,16.33c-2.22,1.66-3.94,2.88-5.17,3.63l-1.39.88Z" fill="#005e94" data-secondary="true"/>
<path d="M359.51,334.6l-.5-.28-1.41-.9c-1.25-.76-3-2-5.29-3.66a113.42,113.42,0,0,1-27.05-29.32,85.59,85.59,0,0,1-8.41-16.79,121.62,121.62,0,0,1-5.5-20,143.85,143.85,0,0,1-2.22-22.21c-.3-15.26,1.24-29.91,4.94-42.65a86.76,86.76,0,0,1,7.07-17.4,59,59,0,0,1,9.6-13.24,60.75,60.75,0,0,1,19.43-13.39,53.27,53.27,0,0,1,6-2.22l1.61-.48.56-.14-.54.2-1.58.53c-1.4.47-3.43,1.22-6,2.34A61.42,61.42,0,0,0,331,168.45a59.23,59.23,0,0,0-9.48,13.18,87.34,87.34,0,0,0-7,17.33c-3.64,12.67-5.17,27.27-4.87,42.49a143.42,143.42,0,0,0,2.22,22.08,120.64,120.64,0,0,0,5.44,19.93,86.42,86.42,0,0,0,8.32,16.73,115.71,115.71,0,0,0,26.77,29.39c2.22,1.68,4,2.95,5.22,3.75l1.39.94A5.39,5.39,0,0,1,359.51,334.6Z" fill="#005e94" data-secondary="true"/>
<path d="M450.73,240.9c0,.17-40.74.29-91,.29s-91-.12-91-.29,40.72-.28,91-.28S450.73,240.8,450.73,240.9Z" fill="#263238"/>
<path d="M436.73,194c0,.17-34.76.29-77.62.29s-77.62-.12-77.62-.29,34.75-.29,77.62-.29S436.73,193.8,436.73,194Z" fill="#005e94" data-secondary="true"/>
<path d="M437.73,288.75c0,.16-35.55.29-79.38.29s-79.39-.13-79.39-.29,35.54-.29,79.39-.29S437.73,288.57,437.73,288.75Z" fill="#005e94" data-secondary="true"/>
<path d="M415.58,275.24H301.16a29.35,29.35,0,0,1-29.35-29.33h0a29.36,29.36,0,0,1,29.35-29.36H415.58a29.34,29.34,0,0,1,29.33,29.36h0A29.34,29.34,0,0,1,415.58,275.24Z" fill="#fff"/>
<path d="M415.58,275.24l1.11-.08a25,25,0,0,0,3.11-.31,28.66,28.66,0,0,0,11.2-4.11,32.81,32.81,0,0,0,3.34-2.4l1.63-1.5c.58-.5,1-1.11,1.59-1.69a29.28,29.28,0,0,0,5.28-8.77,28.79,28.79,0,0,0,1.9-11.58,29.44,29.44,0,0,0-3.41-12.68,29.92,29.92,0,0,0-9.76-10.61,31.88,31.88,0,0,0-7-3.33,28.9,28.9,0,0,0-7.88-1.37c-11-.09-22.74,0-35.09,0H301.16a28.91,28.91,0,0,0-28.7,24.67,28.59,28.59,0,0,0,.16,9.85,29.68,29.68,0,0,0,3.33,9.06,29.34,29.34,0,0,0,13.82,12.22,31.67,31.67,0,0,0,8.77,2.22c3,.22,6,.1,8.89.13h47.62l44.29.09h12l-12,.06-44.29.08H307.43c-2.93,0-5.89.1-8.89-.12a32.06,32.06,0,0,1-8.88-2.22,29.81,29.81,0,0,1-17.55-21.72,29.45,29.45,0,0,1,9.51-27.5,29.91,29.91,0,0,1,19.53-7.37h80.44c12.36,0,24.1,0,35.11.07a28.2,28.2,0,0,1,11.68,2.9,27.58,27.58,0,0,1,3.4,1.9,29.53,29.53,0,0,1,6,44.19,20,20,0,0,1-1.61,1.7l-1.67,1.5a28.8,28.8,0,0,1-3.39,2.4,28.23,28.23,0,0,1-11.27,4,21.77,21.77,0,0,1-3.12.26Z" fill="#263238"/>
<path d="M340.43,231.65l-9,25.42h-8.67L318,243.24l-5,13.83h-8.62l-9.05-25.42h8.44L309,247l5.4-15.38H322l5.24,15.55,5.4-15.55Z" fill="#005e94" data-secondary="true"/>
<path d="M384.45,231.65l-9,25.42h-8.63L362,243.24l-5,13.83h-8.62l-9-25.42h8.44L353,247l5.39-15.38H366l5.24,15.55,5.4-15.55Z" fill="#005e94" data-secondary="true"/>
<path d="M428.48,231.65l-9.05,25.42H410.8L406,243.24l-5,13.83h-8.63l-9.05-25.42h8.44L397,247l5.38-15.38H410l5.25,15.55,5.39-15.55Z" fill="#005e94" data-secondary="true"/>
<path d="M311.29,302.44,271.63,314a2.13,2.13,0,0,0-1.44,2.64h0a2.08,2.08,0,0,0,.56.92l27.07,26.16a2.13,2.13,0,0,0,3-.06,2.25,2.25,0,0,0,.48-.8l12.61-37.71a2.14,2.14,0,0,0-1.35-2.7A2.2,2.2,0,0,0,311.29,302.44Z" fill="#005e94" data-secondary="true"/>
<polygon points="256.31 345.44 284.27 319.46 295.41 330.28 267.58 356.96 256.31 345.44" fill="#005e94" data-secondary="true"/>
<path d="M536.24,180.81s3.76-33.4-25.87-29.16c-19.37,2.76-31.35,29-13.64,40.92S536.24,180.81,536.24,180.81Z" fill="#005e94" data-secondary="true"/>
<g opacity="0.22">
<ellipse cx="459.42" cy="640.39" rx="247.75" ry="14.58" fill="#8a0063" data-primary="true"/>
</g>
<path d="M556.54,647.21c-77.4-2.72-157.46-13.28-198.9-155.91-12.32-42.4-4.31-74.51,9.21-98.71a146.43,146.43,0,0,1,10.81-16.51h0c1.43-1.9,2.88-3.74,4.33-5.52,30.24-37.08,81-50.38,125.92-34,25.22,9.19,57.56,22.78,86.4,40.45,58,35.51,71.54,76,90.47,145.46,1.63,6,3.25,12.65,4.49,19.75.66,3.8,1.21,7.71,1.58,11.69C695.05,598.32,677.92,651.47,556.54,647.21Z" fill="#bcbec0"/>
<path d="M690.85,553.91a91.18,91.18,0,0,1-11.11,21.56c-14.64,21-45.11,46.31-107.19,47.95-2.74.07-5.43.11-8.09.11-23.72,0-44.64-2.87-63.76-8.7a155.72,155.72,0,0,1-53.36-28.17c-26.59-21.45-48.51-52.84-71-101.77-8.91-19.33-13.52-38.92-13.73-58.22a126.86,126.86,0,0,1,4.29-34.08,146.43,146.43,0,0,1,10.81-16.51q-1.44,3.32-2.78,6.95c-8.1,22.24-13.69,57.62,5.77,99.84,39.56,85.88,85.45,138.53,191.77,135.75,60.07-1.58,89.38-25.83,103.38-45.9a84.52,84.52,0,0,0,13.47-30.5C689.93,546,690.48,549.93,690.85,553.91Z" fill="#a7a9ac"/>
<path d="M580.13,290.69s48.59,65.94,59.68,98.78S624,445.64,624,445.64L599,455S573.32,339.05,580.13,290.69Z" fill="#8a0063" data-primary="true"/>
<g opacity="0.2">
<path d="M580.13,290.69s48.59,65.94,59.68,98.78S624,445.64,624,445.64L599,455S573.32,339.05,580.13,290.69Z"/>
</g>
<path d="M575.84,475.38c-21.24,7.05-73.13,25.5-95.68,18a23.28,23.28,0,0,1-2.69-1.09,14.06,14.06,0,0,1-5.81-4.91C462.82,474,454.05,417.51,458,384.32c.49-4.14.73-8.64.81-13.37.12-7-.11-14.4-.41-21.9-1.11-28.18-5.55-47.64,6.51-54.49a141.28,141.28,0,0,1,33.24-13c5.41-1.29,14.26-4,20.46-3.87l26.88,4.88s23.19,3.87,28.55,7.82,8.08,21.34,17.75,37.27,11.77,31.91,2.54,49.39c-8,15.21-6.62,9.45-7.67,34.4C585.35,442,617.31,461.64,575.84,475.38Z" fill="#fff"/>
<g opacity="0.2">
<path d="M504.5,332.1s29.12-7.53,66.28-.59l.9,25.69s-40.87-4.55-66.61,2Z" fill="#8a0063" data-primary="true"/>
</g>
<g opacity="0.2">
<g opacity="0.8">
<path d="M538,310.4h-1.2c-15.92-.82-30.5-14.87-31.11-15.47a1.08,1.08,0,0,1-.08-1.54,1.07,1.07,0,0,1,1.53-.08l.07.06c.14.14,14.62,14.07,29.7,14.85,14.46.76,16.2-13.57,16.27-14.18a1.09,1.09,0,1,1,2.16.23C555.28,294.41,553.38,310.4,538,310.4Z" fill="#8a0063" data-primary="true"/>
</g>
</g>
<g opacity="0.8">
<path d="M492.85,439a1.1,1.1,0,0,1-.29-.32,1.15,1.15,0,0,1,.38-1.56,133.89,133.89,0,0,1,53.56-18.44c14.13-1.63,23.23-.31,23.61-.26a1.14,1.14,0,0,1-.34,2.25,98.61,98.61,0,0,0-23.1.27,131.5,131.5,0,0,0-52.55,18.12A1.13,1.13,0,0,1,492.85,439Z" fill="#ccd3e6"/>
</g>
<path d="M519.9,485.6c-19.12-6.05-36.41-18.25-48.23-29.12-.93-.87-1.83-1.72-2.69-2.56-6.12-5.94-10.43-2.88-12.31-6.31-7.14-13.08-3.09-64.4,0-83.24s-9.92-53.37-2.92-65.72S484.86,282,484.86,282s-3.41-4,3.06-8.53,23.71-2.67,23.71-2.67C512.44,352.37,524,428.13,519.9,485.6Z" fill="#8a0063" data-primary="true"/>
<path d="M501.1,462.22a1.06,1.06,0,0,1-1.05-.9c-8.7-56.58-.1-163,0-164.06a1.07,1.07,0,0,1,2.13.18c-.09,1.06-8.67,107.23,0,163.55a1.07,1.07,0,0,1-.89,1.22Z" fill="#fff"/>
<g opacity="0.2">
<path d="M518.6,470.71a1.08,1.08,0,0,1-1.05-.88c-11.38-65-12.28-177.1-12.29-178.22a1.08,1.08,0,0,1,1.06-1.08h0a1.08,1.08,0,0,1,1.06,1.06c0,1.13.92,113.06,12.26,177.87a1.05,1.05,0,0,1-.84,1.23h0A.55.55,0,0,1,518.6,470.71Z"/>
</g>
<g opacity="0.2">
<path d="M499.72,291h-.28a35.85,35.85,0,0,1-14.76-8,1.06,1.06,0,0,1,1.49-1.52h0A34.36,34.36,0,0,0,500,288.86a1.06,1.06,0,0,1-.27,2.09Z"/>
</g>
<path d="M602.73,450s-6.82,22.95-32.18,33.88c-3.15-62.21-10.29-133.26-19.5-208.85,0,0,9.69-1.7,13.74,3.84,1.74,2.39,2.12,6.43,2.12,6.43a49.92,49.92,0,0,1,10.38,3.49c5.43,2.53,4.81,6,6.1,14.82s14.91,22.45,19.34,40.94-7.31,30.26-11,45.77S602.73,450,602.73,450Z" fill="#8a0063" data-primary="true"/>
<path d="M581,459.62a1.05,1.05,0,0,1-1.07-1c-2.45-84.64-17.91-160.27-18.06-161a1.06,1.06,0,0,1,2.08-.44c.16.76,15.66,76.56,18.11,161.4a1,1,0,0,1-1,1.09Z" fill="#fff"/>
<g opacity="0.2">
<path d="M557.61,293.3a1.07,1.07,0,0,1-1.05-1.09,1.09,1.09,0,0,1,.87-1c.07,0,6.89-1.25,8.46-6.2a1.07,1.07,0,0,1,2,.65c-2,6.2-9.8,7.6-10.13,7.65Z"/>
</g>
<g opacity="0.2">
<path d="M578.47,459.62a1.05,1.05,0,0,1-1.05-.94c-7.51-62.39-19.37-162.12-19.48-163.12a1.06,1.06,0,1,1,2.11-.25c.12,1,12,100.72,19.48,163.12a1.07,1.07,0,0,1-.93,1.19Z"/>
</g>
<path d="M515.45,504.43c3.24,2.32,8.36,4.74,16,7.18,43.53,13.85,83.44-8.51,83.44-8.51,2.41-11.92.92-25.46-3.1-30.42a4.38,4.38,0,0,0,.43-3.87l40.06-41.58c-22.78,18.88-51,25-72.9,38.31h0c-6.32,3.82-12,7.18-16.16,9.52-6.36,3.57-14.47,3.92-22.42,2.82-15.49-2.14-30.35-9.77-30.35-9.77s-49.89-22.61-59.24-21.86C444,446.84,483.08,487.7,515.45,504.43Z" fill="#005e94" data-secondary="true"/>
<g opacity="0.4">
<path d="M515.45,504.43c3.24,2.32,8.36,4.74,16,7.18,43.53,13.85,83.44-8.51,83.44-8.51,2.41-11.92.92-25.46-3.1-30.42a4.38,4.38,0,0,0,.43-3.87l40.06-41.58c-22.78,18.88-51,25-72.9,38.31h0c-6.32,3.82-12,7.18-16.16,9.52-6.36,3.57-14.47,3.92-22.42,2.82-15.49-2.14-30.35-9.77-30.35-9.77s-49.89-22.61-59.24-21.86C444,446.84,483.08,487.7,515.45,504.43Z"/>
</g>
<path d="M592.55,539.28s-12.84-3.69-16.78-7.86l-8.92,21,30.37,9.48S597.64,543.45,592.55,539.28Z" fill="#f9b499"/>
<path d="M665.85,600l-39.26-87.16a13.3,13.3,0,0,0-5.36,1c-7.62,2.77-18.32,10.42-25.22,14.92-.8.53-1.56,1-2.25,1.44a29.53,29.53,0,0,1-2.91,1.62c-6.06,2.73-2.87,6-2.87,6,11.29,5.65,4.42,22.38,11.3,26.29,0,0,2.93,1.7,12.27,5.82S630.3,584,639,592.11c11.23,10.5,18.28,11.73,22.33,10.77A7.43,7.43,0,0,0,665.85,600Z" fill="#8a0063" data-primary="true"/>
<path d="M626.59,512.83a13.3,13.3,0,0,0-5.36,1L626,524.41a21.8,21.8,0,0,1-8.4,5.7c-8.8,3.46-16.93.91-21.57-1.32-.8.53-1.56,1-2.25,1.44,4.7,2.53,14.11,6.14,24.65,2a24,24,0,0,0,8.57-5.61l34.36,76.26a7.43,7.43,0,0,0,4.51-2.89Z" opacity="0.2" style="isolation:isolate"/>
<path d="M616,566.16a1.58,1.58,0,0,0-3,.93l1.1,6a1.58,1.58,0,0,0,3.1-.56l-1.1-6.06A1.12,1.12,0,0,0,616,566.16Z" fill="#fff"/>
<path d="M609.06,562.79a1.58,1.58,0,0,0-3,.93l1.1,6a1.58,1.58,0,0,0,3.1-.56l-1.1-6.06A1.6,1.6,0,0,0,609.06,562.79Z" fill="#fff"/>
<path d="M621.64,570.17a1.57,1.57,0,0,0-3,.94l1.1,6a1.58,1.58,0,1,0,3.14-.35,1.7,1.7,0,0,0,0-.22l-1.1-6A1.7,1.7,0,0,0,621.64,570.17Z" fill="#fff"/>
<path d="M627.14,574.25a1.56,1.56,0,0,0-1.72-.9,1.58,1.58,0,0,0-1.27,1.83l1.11,6.05a1.57,1.57,0,0,0,3.09-.56l-1.1-6.06A1.5,1.5,0,0,0,627.14,574.25Z" fill="#fff"/>
<path d="M632.63,578.92a1.58,1.58,0,0,0-3,.93l1.1,6a1.58,1.58,0,0,0,3.14-.31,1,1,0,0,0,0-.25l-1.1-6.06A1.12,1.12,0,0,0,632.63,578.92Z" fill="#fff"/>
<path d="M637.93,584.27a1.58,1.58,0,0,0-3,.93l1.1,6.06a1.58,1.58,0,0,0,1.93,1.13,1.57,1.57,0,0,0,1.17-1.7l-1.1-6.05A1.56,1.56,0,0,0,637.93,584.27Z" fill="#fff"/>
<path d="M451.22,446.25s-31.57-17-49.86-3.86c-33.44,24.08,23.3,70.41,88.21,93s86,19.54,86,19.54,14.1-3.89,9.1-26.74c0,0-37.42-14.23-56.89-29.13S495,465.94,451.22,446.25Z" fill="#005e94" data-secondary="true"/>
<g opacity="0.2">
<path d="M582.14,534.87c-13.62-3.27-41.36-16-74.22-34-24.57-13.5-52.91-30.74-57.07-36.72-2.24-3.23-2.81-5.88-1.68-7.86,1.69-3,6.56-3.27,8.78-3.25a1,1,0,0,1,1,1v.06h0a1,1,0,0,1-1,.92c-2.18,0-6,.36-7.05,2.25-.9,1.57.37,4,1.59,5.75,3.35,4.82,27.07,20,56.39,36.12,25.26,13.86,57.89,30,73.73,33.85Z"/>
</g>
<path d="M579.57,525.19c-1.53,12-4.64,22.94-11.43,31.31,0,0,5.81,4.19,11.12,1.18,4-2.29,11.87-21,8.89-31.07C584.76,524.76,581.83,524.11,579.57,525.19Z" fill="#005e94" data-secondary="true"/>
<g opacity="0.3">
<path d="M579.57,525.19c-1.53,12-4.64,22.94-11.43,31.31,0,0,5.81,4.19,11.12,1.18,4-2.29,11.87-21,8.89-31.07C584.76,524.76,581.83,524.11,579.57,525.19Z"/>
</g>
<path d="M497.2,536.9s12.9-2.49,16.56-6.91l10.3,20.36-29.67,11.49S492.4,541.41,497.2,536.9Z" fill="#f9b499"/>
<path d="M428.45,604.42l33.36-89.58a13.43,13.43,0,0,1,5.41.67c7.79,2.26,19,9.18,26.16,13.2.84.48,1.63.91,2.34,1.29a27.4,27.4,0,0,0,3,1.42c6.22,2.32,3.63,4.07,3.63,4.07-12.26,5.76-3.28,24.34-9.89,28.71,0,0-2.81,1.89-11.85,6.62s-17.78,15.25-25.92,23.95C444.2,606,437.25,607.69,433.15,607A7.51,7.51,0,0,1,428.45,604.42Z" fill="#8a0063" data-primary="true"/>
<path d="M493.38,528.71c-4.48,2.54-12.42,5.63-21.43,2.76a21.81,21.81,0,0,1-8.76-5.12l4-10.84a13.43,13.43,0,0,0-5.41-.67l-2.42,6.48h0l-.55,1.49-30.39,81.61a7.49,7.49,0,0,0,4.7,2.59l29.19-78.39a24,24,0,0,0,8.92,5c10.79,3.43,19.94-.8,24.46-3.64C495,529.62,494.22,529.19,493.38,528.71Z" opacity="0.2" style="isolation:isolate"/>
<path d="M475.91,567.34a1.57,1.57,0,0,1,3,.73l-.7,6.11a1.58,1.58,0,0,1-3.16-.12,2,2,0,0,1,0-.24l.7-6.11A1.16,1.16,0,0,1,475.91,567.34Z" fill="#fff"/>
<path d="M482.64,563.51a1.58,1.58,0,0,1,3,.73l-.7,6.11a1.57,1.57,0,0,1-3.13-.35l.7-6.12A1.26,1.26,0,0,1,482.64,563.51Z" fill="#fff"/>
<path d="M470.57,571.72a1.58,1.58,0,0,1,3,.73l-.69,6.11a1.57,1.57,0,0,1-3.13-.35h0l.69-6.12A2.32,2.32,0,0,1,470.57,571.72Z" fill="#fff"/>
<path d="M465.36,576.15a1.58,1.58,0,0,1,3,.73l-.69,6.11a1.57,1.57,0,0,1-3.13-.35l.69-6.11A1.71,1.71,0,0,1,465.36,576.15Z" fill="#fff"/>
<path d="M460.2,581.18a1.57,1.57,0,0,1,3,.73l-.7,6.11a1.58,1.58,0,0,1-3.16-.12,2,2,0,0,1,0-.24l.7-6.11A1.26,1.26,0,0,1,460.2,581.18Z" fill="#fff"/>
<path d="M455.27,586.88a1.57,1.57,0,0,1,3,.73l-.7,6.11a1.58,1.58,0,1,1-3.16-.12,2,2,0,0,1,0-.24l.7-6.11A1.16,1.16,0,0,1,455.27,586.88Z" fill="#fff"/>
<path d="M639.45,432.41s29.87-19.86,49.29-8.42c35.51,20.91-16.75,72.25-79.31,100.74s-83.83,27.34-83.83,27.34-14.4-2.57-11.51-25.79c0,0,35.95-17.6,54-34.22S597.62,456,639.45,432.41Z" fill="#005e94" data-secondary="true"/>
<g opacity="0.2">
<path d="M639.45,432.41s29.87-19.86,49.29-8.42c35.51,20.91-16.75,72.25-79.31,100.74s-83.83,27.34-83.83,27.34-14.4-2.57-11.51-25.79c0,0,35.95-17.6,54-34.22S597.62,456,639.45,432.41Z"/>
</g>
<g opacity="0.2">
<path d="M517.21,532.67C530.47,528.16,556.92,513,588,492c23.23-15.69,49.86-35.47,53.46-41.8,1.94-3.43,2.26-6.11.95-8-1.95-2.8-6.83-2.65-9-2.43a1,1,0,0,0-.89,1.1v.05h0a1,1,0,0,0,1.07.82c2.17-.22,6-.19,7.23,1.59,1,1.49,0,4-1,5.87-2.9,5.11-25.12,22.41-52.85,41.14-24,16.12-55,35.22-70.41,40.46Z"/>
</g>
<path d="M518.87,522.79c2.63,11.83,6.73,22.41,14.26,30.13,0,0-5.4,4.7-11,2.2-4.25-1.91-13.76-19.88-11.71-30.13C513.67,522.83,516.52,521.92,518.87,522.79Z" fill="#005e94" data-secondary="true"/>
<g opacity="0.3">
<path d="M518.87,522.79c2.63,11.83,6.73,22.41,14.26,30.13,0,0-5.4,4.7-11,2.2-4.25-1.91-13.76-19.88-11.71-30.13C513.67,522.83,516.52,521.92,518.87,522.79Z"/>
</g>
<path d="M514.84,428l-2.4,34.28s-40.77-5.82-60.78-10.93a81.61,81.61,0,0,1-18.36-6.58c-11-5.87-20.21-16.09-19.53-36a91,91,0,0,1,4-22.38c14.56-49.78,39-91.58,39-91.58,31.39,13.44,28.75,35.8,28.75,35.8-9,23.88-28.75,74.75-28.75,74.75C468.17,419.4,514.84,428,514.84,428Z" fill="#8a0063" data-primary="true"/>
<g opacity="0.2">
<path d="M456.67,406.43a1.1,1.1,0,0,1-.56-.16c-3.46-2.14-12.91-4.37-13-4.39a1.07,1.07,0,0,1,.48-2.08,84.77,84.77,0,0,1,11.33,3.5,19.28,19.28,0,0,0-3.13-4.6,1.07,1.07,0,0,1,1.6-1.41c2.51,2.86,3.93,5.45,4.34,7.9a1.06,1.06,0,0,1-.46,1.06A1.08,1.08,0,0,1,456.67,406.43Z"/>
</g>
<g opacity="0.2">
<path d="M433.3,444.79c-11-5.87-20.21-16.09-19.53-36C422.52,413.35,437.77,424.45,433.3,444.79Z"/>
</g>
<g opacity="0.2">
<path d="M489.2,422.76h-.27c-20.19-5.2-32.46-16.1-33-16.56a1.1,1.1,0,0,1-.24-1.28c14.4-28.31,23.52-50.79,28.68-70.75a1.06,1.06,0,0,1,2.06.53h0c-5.12,19.9-14.17,42.3-28.43,70.4a85,85,0,0,0,31.45,15.56,1.07,1.07,0,0,1-.26,2.1Z"/>
</g>
<path d="M516,263.51l36.22,5.17c23.52-2.35,31-11.7,34.86-31.47A53.38,53.38,0,0,0,585.85,212c-.5-7.43-2.19-13.85-5.71-18.09-15.89-19.16-29.89-18.41-29.89-18.41-7.11-3.26-30.61-5.5-46.1,13.32h0c-.49.42-9.94,10.43-12.12,31.45C489.94,240.27,503.31,265.86,516,263.51Z" fill="#005e94" data-secondary="true"/>
<path d="M499.7,196a.89.89,0,0,1-.45-.12.94.94,0,0,1-.37-1.27,42.83,42.83,0,0,1,23.66-20.43,38.32,38.32,0,0,1,13.75-2.3.94.94,0,0,1-.11,1.87c-.23,0-23.09-1.07-35.65,21.76A1,1,0,0,1,499.7,196Z" fill="#8a0063" data-primary="true"/>
<path d="M518.85,256s-23.1-12.92-18.56-39.83,22.26-43.09,49.41-35.29C549.7,180.85,547.07,258.62,518.85,256Z" fill="#005e94" data-secondary="true"/>
<path d="M583.09,206.59s2.36,23.1-1.85,26.44-8.33-5.79-8.33-5.79S578.65,206.85,583.09,206.59Z" fill="#005e94" data-secondary="true"/>
<path d="M572.46,235.13s6.89-6,9.17,1.36-2.35,21.05-10.93,17.43Z" fill="#f7a48b"/>
<path d="M552.37,268.45l-2.84,19.09s-10.74,14.29-37.81-10.15c3.08-7.77,6.86-17.06,5.65-24.73a43.61,43.61,0,0,0,5.38,4c.69.44,1.44.91,2.24,1.39C532,262.3,542.76,267.78,552.37,268.45Z" fill="#f9b499"/>
<path d="M552.37,268.45,551,277.39c-7.89-3-21.55-9.62-28.29-20.75.69.44,1.44.91,2.24,1.39C532,262.3,542.76,267.78,552.37,268.45Z" fill="#f7a48b"/>
<path d="M578.32,236q-.45,3-.88,5.59c-2.17,13.16-4.16,20.26-7.82,23.07-18.51,14.2-51.16-10.9-52.21-11.71h0c-.1-1.53-.18-3-.23-4.54a117.55,117.55,0,0,1,4-34.87A26.58,26.58,0,0,1,542.11,190c11.8-2.41,21.11,4,26.87,6.77,8.69,4.16,12.66,16.78,10.22,33.56C578.88,232.24,578.6,234.16,578.32,236Z" fill="#f9b499"/>
<path d="M525.64,245.31c-.14.22-3.91,6.31-8.23,7.62h0c-.11-1.54-.19-3.06-.24-4.55A16.73,16.73,0,0,0,525.64,245.31Z" fill="#005e94" data-secondary="true"/>
<path d="M523.94,229.91s-6.83-12.72-14.42-4.65c-6.25,6.65.51,27.85,12,22.18Z" fill="#f9b499"/>
<path d="M545.08,241.57A13,13,0,1,1,561.84,234l0,.06A13,13,0,0,1,545.08,241.57Zm8.58-22.47a11.08,11.08,0,1,0,6.39,14.31h0a11.08,11.08,0,0,0-6.39-14.3Z" fill="#fff"/>
<path d="M538,226.56a1.06,1.06,0,0,1-.35-.09,19.25,19.25,0,0,0-13.67-.74.94.94,0,0,1-1.22-.53h0a1,1,0,0,1,.55-1.23,21,21,0,0,1,15.13.79.93.93,0,0,1,.47,1.24h0A1,1,0,0,1,538,226.56Z" fill="#fff"/>
<path d="M573.77,244.81a13,13,0,1,1,16.77-7.54l0,0A13,13,0,0,1,573.77,244.81Zm8.58-22.46a11.07,11.07,0,1,0,6.4,14.3,11.06,11.06,0,0,0-6.4-14.3Z" fill="#fff"/>
<path d="M561.21,228.58a.88.88,0,0,1-.36-.33,1,1,0,0,1,.3-1.31,5.87,5.87,0,0,1,6.57.51.95.95,0,0,1-1.16,1.5,4,4,0,0,0-4.4-.4A1,1,0,0,1,561.21,228.58Z" fill="#fff"/>
<path d="M568.16,185A31.16,31.16,0,0,1,585,203.31c1.73,5.13,3.18,11.89-4,11-19.67-2.39-30.19-22.79-30.19-22.79S547,210.32,531.54,208s-15-13.94-6.18-20.53C532.47,182.14,550.68,177.15,568.16,185Z" fill="#005e94" data-secondary="true"/>
<path d="M532.1,205.88s-8.79,9.43-5.64,19.59,3.37,18.29.08,23.75c0,0-.85-10.7-4.76-18.8-3.21-6.65-6.21-11.72-3.89-19.4C519.48,205.75,523.33,200.69,532.1,205.88Z" fill="#005e94" data-secondary="true"/>
<path d="M483.65,486.71l-9.08-17.26a6.43,6.43,0,0,1,5.76-9.41L623,461.58l-4.2,22.1Z" fill="#a7a9ac"/>
<path d="M616.3,481.85H488.65a4.9,4.9,0,0,1-5-4.75,4.46,4.46,0,0,1,0-.82l8.71-78.87a6.39,6.39,0,0,1,6.19-5.58H626.24a4.92,4.92,0,0,1,5,4.75,5.69,5.69,0,0,1,0,.83l-8.7,78.87A6.39,6.39,0,0,1,616.3,481.85Z" fill="#d1d3d4"/>
<path d="M486.74,485.26h-.13a1.09,1.09,0,0,1-.94-1.21l10.6-84.47a1.08,1.08,0,0,1,2.14.26l-10.6,84.48A1.08,1.08,0,0,1,486.74,485.26Z" fill="#bcbec0"/>
<path d="M548.85,438.25a11.24,11.24,0,0,0,10.22,12.17l.2,0a11.62,11.62,0,0,0,12.19-10.75,11.23,11.23,0,0,0-10.2-12.17l-.26,0A11.59,11.59,0,0,0,548.85,438.25Z" fill="#bcbec0"/>
<path d="M616.92,488.72H487.5a4.69,4.69,0,0,1-4.69-4.69,4.58,4.58,0,0,1,0-.64l1.23-9H623l-1.4,10.28A4.71,4.71,0,0,1,616.92,488.72Z" fill="#d1d3d4"/>
<path d="M523.13,463.27l-.92,4.5h4.26l-.48,5.36h-4.93l-1,4.9h-5.64l1-4.89h-3.49l-1,4.89h-5.64l1-4.89H502l.48-5.35h4.93l.93-4.5H504.1l.47-5.36h4.94l1-4.89h5.64l-1,4.9h3.49l1-4.89h5.65l-1,4.89h4.27l-.48,5.36Zm-5.64,0H514l-.93,4.5h3.49Z" fill="#a7a9ac"/>
<path d="M769.64,551.8s-10.95-17.2-37.52-32.8c-18.77-11-29.71-42.21-29.71-42.21s36,1.56,51.59,23.45S769.64,551.8,769.64,551.8Z" fill="#8a0063" data-primary="true"/>
<path d="M769.75,552.26a.53.53,0,0,1-.51-.4c-5.06-19.08-16.13-32.92-24.52-41.17a89.33,89.33,0,0,0-17.16-13.45.55.55,0,0,1-.2-.73.53.53,0,0,1,.72-.21h0a91,91,0,0,1,17.39,13.63c8.49,8.34,19.68,22.34,24.8,41.66a.53.53,0,0,1-.38.65h0Z" fill="#005e94" data-secondary="true"/>
<path d="M764.92,551.41s-3.13-6.26-17.2-4.69-21.88,9.38-46.9-4.69c0,0,18.76-15.64,39.09-12.51S761.79,540.46,764.92,551.41Z" fill="#8a0063" data-primary="true"/>
<path d="M765,551.94a.53.53,0,0,1-.45-.25c-.07-.1-6.36-10-16.48-11.83-17.69-3.21-29.73,2.44-29.85,2.5a.54.54,0,1,1-.47-1c.13-.06,12.46-5.86,30.51-2.58,10.59,1.92,16.93,11.89,17.19,12.31a.53.53,0,0,1-.45.82Z" fill="#005e94" data-secondary="true"/>
<path d="M771.06,549.89s-1.22-6.88,11-14,23.15-5.55,34.81-31.77c0,0-24.38-1.34-38.81,13.31S767,539.25,771.06,549.89Z" fill="#8a0063" data-primary="true"/>
<path d="M771,550.47a.53.53,0,0,1-.53-.49c0-.5-.91-12.28,6.43-20.15,12.52-13.41,25.88-16.12,26-16.14a.52.52,0,0,1,.62.4v0a.53.53,0,0,1-.41.63h0c-.13,0-13.17,2.68-25.43,15.82-7,7.53-6.17,19.21-6.16,19.33a.53.53,0,0,1-.48.58h0Z" fill="#005e94" data-secondary="true"/>
<rect x="747.52" y="549.5" width="41.61" height="8.89" rx="2.57" fill="#005e94" data-secondary="true"/>
<path d="M768.48,635c-28,0-45.74-4.45-42.88-24.14,1.81-12.5,11.56-24.74,18.44-32,1-1,1.88-2,2.7-2.76,2.55-2.52,4.27-4,4.27-4l.08-.45.49-2.76.56-3.18,1.28-7.27.45-2.54,14.61-.63,15.25.63.35,2.54.55,4,.88,6.46.38,2.76.06.45s1.72,1.46,4.27,4c.83.81,1.74,1.74,2.71,2.76,6.88,7.28,16.62,19.52,18.44,32C814.23,630.5,796.44,635,768.48,635Z" fill="#005e94" data-secondary="true"/>
<g opacity="0.2">
<polygon points="785.89 571.6 751.09 571.6 751.58 568.84 785.51 568.84 785.89 571.6"/>
</g>
<g opacity="0.2">
<path d="M792.93,578.79H744c1-1,1.88-1.95,2.7-2.76h43.48C791.05,576.84,792,577.77,792.93,578.79Z"/>
</g>
<g opacity="0.2">
<polygon points="784.63 562.38 752.14 565.66 753.42 558.39 784.08 558.39 784.63 562.38"/>
</g>
<g id="a2be5e51-ef5e-42dd-a0ad-2cdd20f5b99c" data-name="ae2b1505-c3aa-415b-9352-cb0a411f6910">
<path d="M160.31,493.59l9.44,98.1,8.23-.93L165.33,493a2.51,2.51,0,0,0-2.78-2.19h0A2.55,2.55,0,0,0,160.31,493.59Z" fill="#005e94" data-secondary="true"/>
<path d="M292,493.59l-9.44,98.1-8.24-.93L287,493a2.52,2.52,0,0,1,2.79-2.19h0A2.53,2.53,0,0,1,292,493.59Z" fill="#005e94" data-secondary="true"/>
<rect x="145" y="588.79" width="134.77" height="50.9" rx="3" fill="#8a0063" data-primary="true"/>
<rect x="145" y="588.79" width="134.77" height="50.9" rx="3" opacity="0.2" style="isolation:isolate"/>
<rect x="142.15" y="595.07" width="140.47" height="38.36" rx="2.72" fill="#8a0063" data-primary="true"/>
<rect x="215.68" y="588.79" width="134.77" height="50.9" rx="3" fill="#8a0063" data-primary="true"/>
<rect x="212.82" y="595.07" width="140.47" height="38.36" rx="2.72" fill="#8a0063" data-primary="true"/>
<rect x="212.82" y="595.07" width="140.47" height="38.36" rx="2.72" opacity="0.2" style="isolation:isolate"/>
<rect x="223.43" y="603.48" width="118.05" height="20.61" rx="3.27" fill="#005e94" data-secondary="true"/>
<path d="M332.88,619.54a6,6,0,0,1-6-6,6.2,6.2,0,0,1,.42-2.17,6.05,6.05,0,0,1,3.23-3.29.5.5,0,0,1,.39.92,5,5,0,1,0,3.82,0l0,0a.5.5,0,1,1,.37-.93,6,6,0,0,1,.14,11A5.84,5.84,0,0,1,332.88,619.54Z" fill="#8a0063" data-primary="true"/>
<path d="M332.83,610.91a.5.5,0,0,1-.5-.5v-4.06a.5.5,0,0,1,.5-.5.52.52,0,0,1,.5.5v4.06A.52.52,0,0,1,332.83,610.91Z" fill="#8a0063" data-primary="true"/>
</g>
<g id="a08ae312-026b-47bf-a762-bfe23279c7c8" data-name="ff336cde-e91a-4835-a7ce-94ea5bb18dd7">
<path d="M224.94,462c17.14.27,31.48,6.78,42.75,19.8a4,4,0,0,1-.23,5.6l-.13.11a3.92,3.92,0,0,1-5.52-.44l-.06-.08a49.18,49.18,0,0,0-14.42-11.63,47.77,47.77,0,0,0-53.39,5.82,71.52,71.52,0,0,0-5.79,5.76,4,4,0,0,1-5.63.6l-.09-.08a4,4,0,0,1-.33-5.65l.06-.06a55.79,55.79,0,0,1,35.67-19.41q1.68-.24,3.39-.33Z" fill="#005e94" data-secondary="true"/>
<path d="M226.35,477.92c10.85.28,21.05,4.9,29.07,14.19a4,4,0,1,1-5.26,6,3.54,3.54,0,0,1-.74-.85A30.85,30.85,0,0,0,234,487.21c-12.61-3.41-23.52-.31-32.66,9-.34.35-.65.72-1,1.08a4,4,0,0,1-6-5.19h0a39.7,39.7,0,0,1,12.79-10C212.77,479.3,218.72,478,226.35,477.92Z" fill="#005e94" data-secondary="true"/>
<path d="M244.2,505.06a4,4,0,0,1-7,2.6,16.75,16.75,0,0,0-6-4.49,16,16,0,0,0-18.54,4.43,3.86,3.86,0,0,1-4.24,1.26,4,4,0,0,1-2.59-5,3.94,3.94,0,0,1,.75-1.36,24,24,0,0,1,33.53-3.08,24.59,24.59,0,0,1,3.14,3.15,11.19,11.19,0,0,1,1.17,2.41Z" fill="#005e94" data-secondary="true"/>
<path d="M224.92,525.89a8,8,0,1,1,7.94-8.06V518A7.92,7.92,0,0,1,224.92,525.89Z" fill="#005e94" data-secondary="true"/>
</g>
<rect x="165.6" y="107.14" width="417.64" height="1" fill="#005e94" data-secondary="true"/>
<rect x="496.62" y="51.6" width="173.24" height="1" fill="#005e94" data-secondary="true"/>
<rect x="172.99" y="86.14" width="17.85" height="1" transform="translate(-10.64 145.96) rotate(-42.59)" fill="#005e94" data-secondary="true"/>
<rect x="181.42" y="77.71" width="1" height="17.85" transform="translate(-10.62 146.04) rotate(-42.61)" fill="#005e94" data-secondary="true"/>
<path d="M212.07,93.46H198.25V79.92h13.82Zm-12.82-1h11.82V80.92H199.25Z" fill="#005e94" data-secondary="true"/>
<rect x="221.55" y="91.33" width="13.54" height="1" fill="#005e94" data-secondary="true"/>
<rect x="55.78" y="138.01" width="10.53" height="0.59" transform="translate(-77.49 77.8) rotate(-42.59)" fill="#005e94" data-secondary="true"/>
<rect x="60.76" y="133.03" width="0.59" height="10.53" transform="translate(-77.51 77.84) rotate(-42.61)" fill="#005e94" data-secondary="true"/>
<path d="M78.82,142.32H70.67v-8h8.15Zm-7.56-.59h7v-6.81h-7Z" fill="#005e94" data-secondary="true"/>
<rect x="84.41" y="141.07" width="7.98" height="0.59" fill="#005e94" data-secondary="true"/>
<rect x="504.12" y="39.59" width="11.11" height="0.62" transform="translate(107.44 355.45) rotate(-42.59)" fill="#005e94" data-secondary="true"/>
<rect x="509.38" y="34.34" width="0.62" height="11.11" transform="translate(107.56 355.59) rotate(-42.61)" fill="#005e94" data-secondary="true"/>
<path d="M528.46,44.16h-8.6V35.73h8.6Zm-8-.62h7.35V36.36h-7.35Z" fill="#005e94" data-secondary="true"/>
<rect x="534.36" y="42.84" width="8.42" height="0.62" fill="#005e94" data-secondary="true"/>
</svg>