 <!DOCTYPE svg PUBLIC "-//W3C//DTD SVG 1.1//EN" "http://www.w3.org/Graphics/SVG/1.1/DTD/svg11.dtd">
<svg id="a7052686-483f-4445-9b32-f2fe61b8d56c" data-name="Layer 1" xmlns="http://www.w3.org/2000/svg" width="865.76" height="682.89" viewBox="0 0 865.76 682.89">
<defs>
<style xmlns="http://www.w3.org/1999/xhtml">*, ::after, ::before { box-sizing: border-box; }
img, svg { vertical-align: middle; }
</style>
<style xmlns="http://www.w3.org/1999/xhtml">*, body, html { -webkit-font-smoothing: antialiased; }
img, svg { max-width: 100%; }
</style>
</defs>
<g opacity="0.6">
<g opacity="0.5">
<path d="M454.83,249.2c-26.38-5.24-51.38-19.71-73-41.65-32.22-32.77-99.66-88.54-164-60.76-88.73,38.31-89.13,149.14-66,209.35s187,236.5,399.51,208.45c190.15-25.1,227.21-312.44,125.8-364.44C589.2,155.06,559.19,270,454.83,249.2Z" fill="#8a0063" data-primary="true"/>
</g>
<g opacity="0.5">
<ellipse cx="728.58" cy="206.68" rx="8.25" ry="11.96" fill="#8a0063" data-primary="true"/>
</g>
<path d="M190.28,127.92c2.53-.63,5.09,1.26,6,4.51,1.52,5.55-2.46,11.76-7.81,9h0C183.83,136.79,185.84,129,190.28,127.92Z" fill="#8a0063" data-primary="true"/>
<ellipse cx="706.07" cy="99.81" rx="10.74" ry="14.47" fill="#8a0063" data-primary="true"/>
<g opacity="0.8">
<path d="M222.84,116.51c1.62,7.77-1.75,15.84-7.52,18s-11.76-2.36-13.38-10.13,1.75-15.84,7.52-18S221.22,108.73,222.84,116.51Z" fill="#8a0063" data-primary="true"/>
</g>
<path d="M652.12,552c2.4-1.25,5.18,0,6.5,2.94,2.26,5.07-.79,12.17-6.44,10.77h0C647,562.33,647.91,554.19,652.12,552Z" fill="#8a0063" data-primary="true"/>
<path d="M682.54,532.62c2.66,7.24.47,16-4.9,19.59s-11.88.64-14.54-6.6-.47-16,4.9-19.59S679.88,525.39,682.54,532.62Z" fill="#8a0063" data-primary="true"/>
<path d="M692.44,77.67c0,4.91-3,8.9-6.61,8.9s-6.6-4-6.6-8.9,2.95-8.9,6.6-8.9S692.44,72.75,692.44,77.67Z" fill="#8a0063" data-primary="true"/>
</g>
<g opacity="0.4">
<path d="M710,238.93C710,159.4,660.88,72.27,599.72,67c-1.08-.09-2.16-.17-3.26-.24-87.69-5.5-94.37,138.58-173.71,154.83S282.83,155.8,187.9,209.33c-85.27,48.07-108.36,318.2,142.15,329C530.49,547,710.07,476.18,710,238.93Z" fill="#8a0063" data-primary="true"/>
</g>
<g opacity="0.22">
<ellipse cx="455.73" cy="647.03" rx="247.75" ry="14.58" fill="#8a0063" data-primary="true"/>
</g>
<rect x="180.5" y="332.85" width="2" height="11.14" transform="translate(-200.76 301.71) rotate(-56.31)" fill="#8a0063" data-primary="true"/>
<rect x="206.77" y="319.11" width="2" height="10.3" fill="#8a0063" data-primary="true"/>
<rect x="227.24" y="337.42" width="11.84" height="2" transform="matrix(0.85, -0.52, 0.52, 0.85, -142.38, 171.5)" fill="#8a0063" data-primary="true"/>
<rect x="175.71" y="367.68" width="11.59" height="2" transform="translate(-184.94 182.71) rotate(-36.88)" fill="#8a0063" data-primary="true"/>
<rect x="206.77" y="377.3" width="2" height="12.1" fill="#8a0063" data-primary="true"/>
<rect x="231.49" y="362.9" width="2" height="10.63" transform="translate(-202.64 350.96) rotate(-55.46)" fill="#8a0063" data-primary="true"/>
<polygon points="276.34 111.07 261.37 85.52 305.01 57.6 322.71 45.51 340.95 75.3 276.34 111.07" fill="#005e94" data-secondary="true"/>
<polygon points="276.34 111.07 261.37 85.52 305.01 57.6 322.71 45.51 340.95 75.3 276.34 111.07" opacity="0.2"/>
<circle cx="428.74" cy="51.72" r="23.47" fill="#e6e7e8"/>
<path d="M403.46,49.13C404,49.49,440,28.25,440,28.25l10,8.39L403.46,62.78Z" fill="#f1f2f2" opacity="0.22"/>
<rect x="398.3" y="66.84" width="10.32" height="7.71" transform="translate(25.64 228.9) rotate(-32.66)" fill="#005e94" data-secondary="true"/>
<path d="M398.16,68.39,404.09,76a1.15,1.15,0,0,1-.7,1.85l-3.49.64A7.67,7.67,0,0,0,397,79.7L375.24,95.05a3.56,3.56,0,0,1-5.05-1h0a3.58,3.58,0,0,1,.93-4.84l21.27-15.07a7.26,7.26,0,0,0,2.28-2.61l1.56-3A1.15,1.15,0,0,1,398.16,68.39Z" fill="#8a0063" data-primary="true"/>
<rect x="521.66" y="68.71" width="1" height="17.36" transform="translate(-5.44 60.68) rotate(-6.62)" fill="#8a0063" data-primary="true"/>
<rect x="524.62" y="67.01" width="1" height="18.31" transform="translate(-4.69 46.93) rotate(-5.09)" fill="#8a0063" data-primary="true"/>
<rect x="530.15" y="67" width="1" height="15.75" transform="translate(-5.11 62.29) rotate(-6.69)" fill="#8a0063" data-primary="true"/>
<rect x="533.43" y="64.41" width="1" height="16.26" transform="translate(-4.9 69.52) rotate(-7.42)" fill="#8a0063" data-primary="true"/>
<rect x="536.99" y="62.43" width="1" height="15.82" transform="translate(-4.51 61.33) rotate(-6.5)" fill="#8a0063" data-primary="true"/>
<rect x="544.73" y="69.83" width="17.49" height="1" transform="translate(237.41 530.09) rotate(-62.73)" fill="#8a0063" data-primary="true"/>
<rect x="546.89" y="71.17" width="17.92" height="1" transform="translate(231.48 528.72) rotate(-61.98)" fill="#8a0063" data-primary="true"/>
<rect x="551.53" y="74.02" width="17.14" height="1" transform="translate(217.73 524.01) rotate(-60.28)" fill="#8a0063" data-primary="true"/>
<rect x="555.51" y="75.8" width="17.1" height="1" transform="translate(232.97 539.29) rotate(-62.13)" fill="#8a0063" data-primary="true"/>
<rect x="557.73" y="76.93" width="16.42" height="1" transform="translate(214.98 528.1) rotate(-59.88)" fill="#8a0063" data-primary="true"/>
<path d="M593.93,178.32,589.44,171a5.1,5.1,0,0,1,1.83-7.12L614.09,151a5.12,5.12,0,0,1,6.56,1.35l6.68,8.23Zm22.65-26a3.08,3.08,0,0,0-1.51.4l-22.82,12.9a3.08,3.08,0,0,0-1.47,1.93,3,3,0,0,0,.36,2.4l3.51,5.68L624.24,160l-5.16-6.37A3.16,3.16,0,0,0,616.58,152.36Z" fill="#005e94" data-secondary="true"/>
<rect x="427.84" y="434.52" width="4.82" height="106.3" fill="#a7a9ac"/>
<polygon points="461.14 538.89 470.34 535.27 478.43 541.12 462.26 547.25 461.14 538.89" fill="#a7a9ac"/>
<polygon points="487.35 549.21 492.64 540.84 464.77 524.67 460.86 532.2 487.35 549.21" fill="#a7a9ac"/>
<path d="M472.4,500.51l-10.83,19.86,4.21,2.61,8-13.84s5.82,4.81,8.22,18.65c0,0,.2,10,13,14,0,0,15.52,5.34,14.68-.84l-14.68-6.18-10-11.63-6.62-23.87Z" fill="#005e94" data-secondary="true"/>
<path d="M478.61,493.29s-9.42,4.42-6.41,10c0,0,9,10.23,11,20.66,0,0,1.2,8.62,15.24,15,0,0,6.95,3,9.81,3.29a1.3,1.3,0,0,0,1.46-1.32c0-1.53-1.64-4.57-10.27-9.59L492.25,516V496.9Z" fill="#8a0063" data-primary="true"/>
<path d="M537.38,410.87s-10.63,44.72-25.88,69.79l-13.23,25.67,1.2,25.07s-9.43,1.6-10.22-8.83c0,0,0-24.47-10.64-29.28l6.82-5s8.82-58.56,19.86-78.82l-18.58-8.26,1.08-5L496,358.38l37.79,25.81S544.19,388.4,537.38,410.87Z" fill="#f9b499"/>
<path d="M451.94,529.91a.43.43,0,0,1-.19,0,.51.51,0,0,1-.27-.65l23.7-56.31a.5.5,0,1,1,.92.39l-23.69,56.31A.51.51,0,0,1,451.94,529.91Z" fill="#d1d3d4"/>
<path d="M457.24,535.77a.54.54,0,0,1-.37-.16.51.51,0,0,1,0-.71l47.11-44a.5.5,0,0,1,.71,0,.51.51,0,0,1,0,.71l-47.11,44A.49.49,0,0,1,457.24,535.77Z" fill="#d1d3d4"/>
<path d="M462.54,542.46a.5.5,0,0,1-.18-1L522,518.35a.5.5,0,0,1,.36.94l-59.65,23.13A.39.39,0,0,1,462.54,542.46Z" fill="#d1d3d4"/>
<path d="M525,551.1h0l-68.3-1.67a.51.51,0,0,1-.49-.52.5.5,0,0,1,.5-.48h0L525,550.1a.5.5,0,0,1,0,1Z" fill="#d1d3d4"/>
<path d="M519.68,583.16a.46.46,0,0,1-.2,0l-59.94-27.32a.5.5,0,0,1-.25-.66.52.52,0,0,1,.67-.25l59.93,27.32a.5.5,0,0,1-.21,1Z" fill="#d1d3d4"/>
<path d="M435.5,531.86a.48.48,0,0,1-.47-.33l-21.47-59.37a.5.5,0,0,1,.3-.64.49.49,0,0,1,.64.3L436,531.19a.52.52,0,0,1-.3.65Z" fill="#d1d3d4"/>
<path d="M431,537.16a.49.49,0,0,1-.37-.16l-45.44-49.9a.5.5,0,1,1,.74-.67l45.44,49.89a.5.5,0,0,1,0,.71A.46.46,0,0,1,431,537.16Z" fill="#d1d3d4"/>
<path d="M425.74,541.34a.48.48,0,0,1-.2,0l-57.42-25.09a.5.5,0,1,1,.4-.91l57.42,25.08a.51.51,0,0,1,.26.66A.5.5,0,0,1,425.74,541.34Z" fill="#d1d3d4"/>
<path d="M360.23,548.87a.51.51,0,0,1-.5-.49.5.5,0,0,1,.49-.51l67.46-1.4h0a.5.5,0,0,1,.5.49.49.49,0,0,1-.49.51l-67.46,1.4Z" fill="#d1d3d4"/>
<path d="M365.81,579.25a.5.5,0,0,1-.18-1l63-24a.5.5,0,0,1,.64.29.5.5,0,0,1-.29.65l-63,24A.47.47,0,0,1,365.81,579.25Z" fill="#d1d3d4"/>
<path d="M382.81,607.13a.5.5,0,0,1-.35-.86L431,559.44a.5.5,0,0,1,.69.72L383.16,607A.52.52,0,0,1,382.81,607.13Z" fill="#d1d3d4"/>
<path d="M409.29,625.53a.79.79,0,0,1-.2,0,.5.5,0,0,1-.25-.66l26.48-60.49a.5.5,0,1,1,.91.4l-26.48,60.49A.49.49,0,0,1,409.29,625.53Z" fill="#d1d3d4"/>
<path d="M441.07,631.38h0a.5.5,0,0,1-.49-.51l1.67-65.23a.52.52,0,0,1,.52-.49.5.5,0,0,1,.48.51l-1.67,65.23A.49.49,0,0,1,441.07,631.38Z" fill="#d1d3d4"/>
<path d="M473.69,626.92a.51.51,0,0,1-.47-.32l-24.53-62.72a.51.51,0,0,1,.28-.65.5.5,0,0,1,.65.29l24.53,62.72a.5.5,0,0,1-.28.65Z" fill="#d1d3d4"/>
<path d="M500.45,609.08a.49.49,0,0,1-.37-.16l-45.44-49.06a.51.51,0,0,1,0-.71.5.5,0,0,1,.71,0l45.44,49.06a.51.51,0,0,1,0,.71A.5.5,0,0,1,500.45,609.08Z" fill="#d1d3d4"/>
<path d="M443.73,459a90.09,90.09,0,1,0,90.09,90.09A90.08,90.08,0,0,0,443.73,459Zm0,168.34A78.25,78.25,0,1,1,522,549.12,78.25,78.25,0,0,1,443.73,627.37Z" fill="#005e94" data-secondary="true"/>
<circle cx="441.67" cy="548.6" r="23.68" fill="#005e94" data-secondary="true"/>
<path d="M402.8,565.59l35.41-21.21a13.18,13.18,0,0,1,4-1.72,5.33,5.33,0,0,1,5,8.9,16.41,16.41,0,0,1-6.16,3.89l-30.26,16.84Z" fill="#a7a9ac"/>
<polygon points="390.7 567.14 395.72 559.93 421.08 578.21 416.32 585.41 390.7 567.14" fill="#a7a9ac"/>
<polygon points="441.16 546.54 442.19 430.2 445.79 427.63 445.53 547.32 441.16 546.54" fill="#a7a9ac"/>
<path d="M397.56,531.35l-12.13,15.87,3,2.62,10.07-12.69s4.83,4.14,5.66,22.76c0,0-.28,10.9,17.1,15.17,0,0,7.45,2.9,7.59-.27L412.6,562.67l-4.55-16.14-3.59-17Z" fill="#005e94" data-secondary="true"/>
<path d="M406.28,522.86s-2-1-4.58,1.32c0,0-6.21,3.17-4.14,7.17,0,0,6.9,7.73,8.42,23.18a21.41,21.41,0,0,0,12,15.17s5.91,4.33,9.7,5.32a1.38,1.38,0,0,0,1.71-1.44c-.13-1.92-1.47-5.46-7.93-10.43l-5-12.76-.83-22.48Z" fill="#8a0063" data-primary="true"/>
<path d="M509.89,449.56c-2.33,7.95-9.19,14.45-9.19,14.45-4.67,5.32-9.77,10.7-15,16-27.69,27.72-60.21,52.66-60.21,52.66-4.37,7-4,30.51-4,30.51-3.87.77-6.18-.61-7.53-2.19a7.58,7.58,0,0,1-1.77-4.85l-.36-20.76c.9-8-5.53-12.48-5.53-12.48l4.5-2.58c31.92-47.71,63.43-72.42,63.43-72.42-1.2-3.43-26.62-22.05-26.62-22.05l-2.15-5.06,16-17.33,24.19-1.2,0,0c11.14,12.38,19.92,29,23.08,35.29A16.56,16.56,0,0,1,509.89,449.56Z" fill="#f9b499"/>
<path d="M509.89,449.56c-2.33,7.95-9.19,14.45-9.19,14.45-4.67,5.32-9.77,10.7-15,16a4,4,0,0,1-.49.15s22.14-21.88,10-37.32l-23.94-33.46s9.61-1.37,14.33-7.12l0,0c11.14,12.38,19.92,29,23.08,35.29A16.56,16.56,0,0,1,509.89,449.56Z" fill="#f7a48b"/>
<path d="M471.27,409.35S453,416,447.59,425.82c0,0-1.29,8.76-20.59,15.71l-9.15,4.57a5.39,5.39,0,0,1-7.43-2.84l-22.3-56.38a49.57,49.57,0,0,0-5.93-10.68,22.08,22.08,0,0,1-4.1-17.05s5.92-46.33,2.84-67.95c0,0-3.36-18.44-24.2-20.42l-16.22-27.2s16.39-19.31,51.91-26.17c0,0,.54,7.92,10.52,10.23A10.39,10.39,0,0,0,415,221.28a21.21,21.21,0,0,0,.91-3.35s18.36-1.72,48.22,21.45l-5.15,28-14.58-1.54s-1.89,13-3.95,19.9c0,0,.85,22.05,5.88,40.75a13.34,13.34,0,0,0,6.47,8.22L496,358.38S503.7,403.17,471.27,409.35Z" fill="#8a0063" data-primary="true"/>
<path d="M353.9,232.77s14.32-10.72,38.52-15.36l-.34-30.71L381.44,185S351.75,204,350.89,205.57s-7.72,20.25-7.2,20.77S353.9,232.77,353.9,232.77Z" fill="#005e94" data-secondary="true"/>
<path d="M353.9,232.77s14.32-10.72,38.52-15.36l-.34-30.71L381.44,185S351.75,204,350.89,205.57s-7.72,20.25-7.2,20.77S353.9,232.77,353.9,232.77Z" opacity="0.4"/>
<path d="M413.53,198.19l2.4,19.74a46.21,46.21,0,0,1,23.17,6.35l2.57-2.75-1.2-11.67L430.86,197l-10.47-7Z" fill="#005e94" data-secondary="true"/>
<path d="M413.53,198.19l2.4,19.74a46.21,46.21,0,0,1,23.17,6.35l2.57-2.75-1.2-11.67L430.86,197l-10.47-7Z" opacity="0.4"/>
<path d="M423.73,188.84s-.47,3.63,6,6a18.59,18.59,0,0,1,7.56,5c3.9,4.4,7.9,12.6,4.93,26.75l-3.09-2.31s3.54-13-5.68-21.56a13.59,13.59,0,0,0-2.24-1.67c-2.42-1.48-8.71-5.73-8.64-9.18Z" fill="#005e94" data-secondary="true"/>
<path d="M415.93,217.93a21.21,21.21,0,0,1-.91,3.35,10.39,10.39,0,0,1-12.08,6.36c-10-2.31-10.52-10.23-10.52-10.23l-.32-26.88,21.43,7.66Z" fill="#f9b499"/>
<polygon points="444.42 265.8 446.05 249.76 452.22 266.49 444.42 265.8" opacity="0.2"/>
<path d="M464.15,239.38l21.06,8.42a3.83,3.83,0,0,0,3.86-.59l36.51-29.8s1-6.18,9.44-9.09c.52-.35,10.13-4.46,11.67-2.23,0,0,1.89,3.6-6.69,4.63,0,0-1.72,1.54,1.54,1.37l14.76-2.57s5-1.55,5,1.71c0,0,1.88,2.58-1.89,3.61,0,0,2.4,2.57-4.12,3.77,0,0,2.06,2.75-5,3.44l-17,2.4s-30.38,35-41,42.56c0,0-4.12,3.77-13.55,2.23l-19.39-3.95Z" fill="#f9b499"/>
<path d="M529.36,221.36s.34-6.86,8.06-5.15" fill="none" stroke="#f7a48b" stroke-miterlimit="10"/>
<line x1="560.42" y1="211.75" x2="545.49" y2="214.15" fill="none" stroke="#f7a48b" stroke-miterlimit="10"/>
<line x1="546.86" y1="216.73" x2="558.53" y2="215.35" fill="none" stroke="#f7a48b" stroke-miterlimit="10"/>
<line x1="547.55" y1="219.64" x2="554.41" y2="219.13" fill="none" stroke="#f7a48b" stroke-miterlimit="10"/>
<path d="M354.65,267.6l-28.24,13.81a7,7,0,0,1-6.87-.39l-54.45-34.86a9,9,0,0,0-5.49-1.72s-20.85,3.26-19.22-3.26c0,0-5.75-.09-3.95-3.35,0,0-2.74-.17-1.88-3.09,0,0-1.38-3.08,2.4-2.57l19.39.69a8,8,0,0,0-3.87-1.49,5.44,5.44,0,0,1-2.39-.81c-.81-.53-1.6-1.33-1.33-2.29a1.49,1.49,0,0,1,1.57-1c3.24.26,14.91,1.61,18.85,7.85a4.45,4.45,0,0,0,1.95,1.64l47.73,21.39a7,7,0,0,0,7-.74l15.67-11.49Z" fill="#f9b499"/>
<path d="M234.55,234.74s10.14,1.3,16,.53" fill="none" stroke="#f7a48b" stroke-miterlimit="10"/>
<path d="M236.43,237.83s4.08,1.12,13.09.6" fill="none" stroke="#f7a48b" stroke-miterlimit="10"/>
<path d="M240.38,241.18a26.91,26.91,0,0,0,8.62.09" fill="none" stroke="#f7a48b" stroke-miterlimit="10"/>
<path d="M257.37,237.28s7.85-1.94,9.78,3.86" fill="none" stroke="#f7a48b" stroke-miterlimit="10"/>
<path d="M321.09,218.61a15,15,0,0,0,2.28,1.63,16.88,16.88,0,0,0,2.48,1.24,11,11,0,0,0,5.33.75c.22,0,.45,0,.66-.06l.65-.17a6.22,6.22,0,0,0,1.27-.39l1.22-.54,1.12-.73c.18-.13.38-.24.55-.37l.5-.45,1-.9c.62-.65,1.19-1.36,1.79-2l1.17.92c-.66.71-1.29,1.45-2,2.13l-1.14.93-.57.46c-.2.14-.42.25-.63.38l-1.27.74-1.39.53a6.83,6.83,0,0,1-1.43.37l-.72.14c-.24,0-.49,0-.74,0a11.71,11.71,0,0,1-5.61-1.25A15.46,15.46,0,0,1,321.09,218.61Z" fill="#005e94" data-secondary="true"/>
<path d="M340.85,200.11a10.89,10.89,0,0,1,4.58-14.63,26.59,26.59,0,0,1,7.85-3.1c1.37-.33,2.75-.6,4.15-.81a32.27,32.27,0,0,0,4.06-.75,25.88,25.88,0,0,0,7.52-3.16,14.92,14.92,0,0,0,5.4-5.84l.41-.91a4.34,4.34,0,0,0,.35-.93c.16-.65.37-1.25.51-1.94a24,24,0,0,1,1.22-4.14,13.8,13.8,0,0,1,2.22-3.8,5.9,5.9,0,0,1,4.09-2.2l.06,1.48a4.41,4.41,0,0,0-3.06,1.67,12.43,12.43,0,0,0-2,3.39,23.48,23.48,0,0,0-1.21,3.87c-.15.67-.39,1.39-.59,2.09a4.7,4.7,0,0,1-.4,1l-.46,1a16.24,16.24,0,0,1-5.93,6.21,26.5,26.5,0,0,1-7.9,3.17,33.61,33.61,0,0,1-4.18.66c-1.37.17-2.74.39-4.09.68a26.12,26.12,0,0,0-7.74,2.81,11.25,11.25,0,0,0-5.29,6.05A11.5,11.5,0,0,0,340.85,200.11Z" fill="#005e94" data-secondary="true"/>
<path d="M387.27,139a6.68,6.68,0,0,1,8.69,1.57,7.75,7.75,0,0,1,1.42,2.93,8.13,8.13,0,0,1-1,6.23,14.46,14.46,0,0,1-4.38,4.46l-.53-.78a13.31,13.31,0,0,0,4-4.19,6.85,6.85,0,0,0-2.57-9.7A7.44,7.44,0,0,0,387.27,139Z" fill="#005e94" data-secondary="true"/>
<path d="M371,157a6.19,6.19,0,0,0,2.52.94,11.38,11.38,0,0,0,2.67.16,21.71,21.71,0,0,0,2.67-.24c.89-.14,1.78-.32,2.67-.47l.26,1.06c-.45.13-.91.23-1.37.34s-.94.15-1.4.22a16.94,16.94,0,0,1-2.85.09,10.78,10.78,0,0,1-2.81-.56A5.18,5.18,0,0,1,371,157Z" fill="#005e94" data-secondary="true"/>
<path d="M424.16,186a23.25,23.25,0,0,0,2.8,1.48,29.19,29.19,0,0,0,3,1.19,26.54,26.54,0,0,0,6.22,1.39,20,20,0,0,0,6.36-.3c.52-.11,1.05-.22,1.57-.35l1.52-.54c.25-.09.52-.16.77-.27l.73-.35,1.46-.71a19.2,19.2,0,0,1-5.91,2.83,20,20,0,0,1-6.58.69,26.24,26.24,0,0,1-6.52-1.27,25.91,25.91,0,0,1-6-2.87Z" fill="#005e94" data-secondary="true"/>
<path d="M443.65,215.84a19.85,19.85,0,0,0,2.76-4.61,13.26,13.26,0,0,0,1.19-5.14,9.32,9.32,0,0,0-1.29-5,12.54,12.54,0,0,0-3.56-3.77,21,21,0,0,0-4.58-2.57,21.85,21.85,0,0,0-2.52-.83c-.84-.22-1.76-.4-2.63-.66a41,41,0,0,1-5.14-1.86,22.34,22.34,0,0,1-4.76-2.72l.42-.54a22.08,22.08,0,0,0,4.64,2.57,41,41,0,0,0,5.06,1.77c.86.24,1.71.4,2.62.6a22.38,22.38,0,0,1,2.65.79,18,18,0,0,1,4.84,2.65,13.27,13.27,0,0,1,3.68,4.17,9.81,9.81,0,0,1,1.19,5.4A16.55,16.55,0,0,1,443.65,215.84Z" fill="#005e94" data-secondary="true"/>
<path d="M392.08,190.06l.1,12s8.82,3.2,15.51-2.64Z" fill="#f7a48b"/>
<ellipse cx="407.53" cy="179.76" rx="17.86" ry="22.89" fill="#f9b499"/>
<path d="M392.51,178.46s.25-6.69,8.49-9c0,0,15.44-1.54,14.16-10.3a21.75,21.75,0,0,1,9.52,14.68s4.38-16.74-8.49-21.37c0,0-14.16-2.83-24.46,1.29,0,0,3.2-9.77-3.41-14.38a10,10,0,0,0-7.81-1.47c-3.06.64-6,2.12-7.57,7.1,0,0-3.6,11.06,10.3,13.64a22.8,22.8,0,0,0-3.15,10,17.33,17.33,0,0,1-2.72,8.93c-2.59,4-6.75,8.85-12.15,10.17,0,0-27.54,2.83-26,20.07,0,0,6.18,18-13.12,20.08,0,0-21.63,3.35-16.22,26l13.39,2.06s-.78-12.1,9-15.19c0,0,8.24-3.6,10.56-7.72,0,0-1.8,6.95-7.72,10.29,0,0-6.7,4.9-5.67,11.07l12.1-8.49-1-2.32s8.75-8.75,13.39-10.81c0,0-6.18-11.58,3.86-20.33,0,0,4.89-5.92,14.93-6.7,0,0,7.91,1.59,10-9.88a41.89,41.89,0,0,1,1.41-5.72l1-2.93Z" fill="#005e94" data-secondary="true"/>
<ellipse cx="390.01" cy="183.92" rx="5.9" ry="6.59" fill="#f9b499"/>
<path d="M381.44,287.08a30.92,30.92,0,0,0,7.88,2.05,28.11,28.11,0,0,0,8.09-.06,29.49,29.49,0,0,0,3.93-.92,26.23,26.23,0,0,0,3.71-1.56,27.78,27.78,0,0,0,6.46-4.79l.26-.26.31.23a31.18,31.18,0,0,0,6.13,3.45,32.15,32.15,0,0,0,6.77,2,24.57,24.57,0,0,0,7.06.25,24.32,24.32,0,0,0,6.88-1.78,23.13,23.13,0,0,1-6.83,2.19,24.54,24.54,0,0,1-7.21,0,28.1,28.1,0,0,1-7-1.94,31,31,0,0,1-6.36-3.49l.57,0a26.91,26.91,0,0,1-6.69,4.91,27.39,27.39,0,0,1-3.86,1.57,25.57,25.57,0,0,1-4.06.89,28.86,28.86,0,0,1-8.25-.2,32.12,32.12,0,0,1-4-1A23.64,23.64,0,0,1,381.44,287.08Z" opacity="0.2"/>
<path d="M390.7,385.67,436,437.41s7.33-3.09,10.94-9.91Z" opacity="0.2"/>
<path d="M449.71,361.55l37,39.64a24.6,24.6,0,0,0,4.11-5.43Z" opacity="0.2"/>
<path d="M609.91,325.93s4.19,25.52,1.91,38.09c0,0,58.28,5.34,72.37-67.8,0,0-12.57-19.05-25.52-29.33C658.67,266.89,661.72,325.93,609.91,325.93Z" fill="#8a0063" data-primary="true"/>
<path d="M612.2,327.84s3,21.71,2.67,33.14c0,0,56,3.43,66.28-64.38,0,0-12.57-19.05-19.81-24C661.34,272.6,656.39,329.74,612.2,327.84Z" fill="#fff"/>
<path d="M652.2,312.25c2,.21,11.18,2.24,9.26,21a.25.25,0,0,0,.45.17l7.2-11.1a10.71,10.71,0,0,0,1.66-4.53c.54-4.15,1.73-12.49,3.14-15.87l2.23-8.54a.4.4,0,0,0-.07-.33l-9.57-12a.38.38,0,0,0-.68.2c-.24,2.76-1.19,10.87-4,14.7a85.59,85.59,0,0,0-5,7.43L652,311.87A.25.25,0,0,0,652.2,312.25Z" fill="#8a0063" data-primary="true"/>
<ellipse cx="666.65" cy="305.96" rx="3.54" ry="7.82" fill="#fff"/>
<path d="M615.76,335.21s1.71,11.36,1.28,16.07c0,0,14.79-2.14,18.86,0l12.64-6.21s-11.36-7.49-6-22.5c0,0-9.43,4.61-14.49,9.92a4.27,4.27,0,0,1-2.47,1.28Z" fill="#8a0063" data-primary="true"/>
<circle cx="631.67" cy="341.91" r="4.98" fill="#fff"/>
<path d="M187.93,196.23s-25.87-.32-37.85-4.75c0,0-15.39,56.46,54.18,83.06,0,0,20.94-9.06,33.33-20C237.59,254.51,178.91,247.24,187.93,196.23Z" fill="#8a0063" data-primary="true"/>
<path d="M185.65,198.15s-21.91-.78-33.1-3.14c0,0-13.11,54.54,51.87,76.47,0,0,20.94-9.07,27.07-15.33C231.49,256.15,176.09,241.33,185.65,198.15Z" fill="#fff"/>
<path d="M194.05,240.25c-.57,1.93-4.16,10.62-22.31,5.46a.25.25,0,0,0-.24.42l9.67,9a11,11,0,0,0,4.18,2.43c4,1.24,12,3.87,15.07,5.84l8,3.68a.35.35,0,0,0,.33,0l13.45-7.34a.38.38,0,0,0-.08-.7c-2.67-.72-10.5-3.07-13.79-6.47a83.5,83.5,0,0,0-6.45-6.17l-7.47-6.28A.24.24,0,0,0,194.05,240.25Z" fill="#8a0063" data-primary="true"/>
<ellipse cx="197.72" cy="255.57" rx="3.54" ry="7.82" transform="translate(-88.35 405.81) rotate(-79.98)" fill="#fff"/>
<path d="M177.77,200.37s-11.48-.29-16.05-1.53c0,0-.29,9.29-1.79,15a16.82,16.82,0,0,0,.07,9l2.36,8.14s9.35-9.88,23.2-2c0,0-2.9-10.09-7.24-16a4.3,4.3,0,0,1-.84-2.66Z" fill="#8a0063" data-primary="true"/>
<circle cx="168.41" cy="214.87" r="4.98" fill="#fff"/>
<path d="M569.2,186.09,598.59,233s61.55-28.59,74.26-36.14l-29.39-48.45Z" fill="#8a0063" data-primary="true"/>
<polygon points="569.2 186.09 597.39 199.19 639.49 178.94 643.46 148.36 569.2 186.09" fill="#005e94" data-secondary="true"/>
<polygon points="569.2 186.09 597.05 239.32 672.85 204.6 672.85 196.81 598.59 232.95 569.2 186.09" fill="#005e94" data-secondary="true"/>
<polygon points="569.2 186.09 597.05 239.32 672.85 204.6 672.85 196.81 598.59 232.95 569.2 186.09" opacity="0.2"/>
<polygon points="569.2 186.09 600.48 203.53 610.55 198.18 613.55 199.19 631.12 190.66 631.12 187.46 639.05 182.53 639.49 178.94 597.39 199.19 569.2 186.09" opacity="0.2"/>
<path d="M564.34,123.12s6-11,14-12.05c0,0-18.57-12.52-12.57-26.52,0,0-12-2.86-19.71-10l-9.43,10.57s13.24,10.23,3.48,22.4Z" fill="#8a0063" data-primary="true"/>
<path d="M428.74,21.28a30.44,30.44,0,1,0,30.44,30.44A30.44,30.44,0,0,0,428.74,21.28Zm0,53.91a23.47,23.47,0,1,1,23.47-23.47A23.47,23.47,0,0,1,428.74,75.19Z" fill="#8a0063" data-primary="true"/>
<polygon points="254.18 92.1 262.6 37.52 305.56 60.55 254.18 92.1" fill="#8a0063" data-primary="true"/>
<polygon points="330.42 44.26 305.56 60.55 262.6 37.52 293.77 24.46 330.42 44.26" fill="#005e94" data-secondary="true"/>
<path d="M259.9,171.66a32.56,32.56,0,0,1-27.33,8,50.27,50.27,0,0,1-7.63-1.79h0A38.49,38.49,0,0,1,199.61,153a27.78,27.78,0,0,1-1-4l9.26-14.23L227.51,122c5.35,3.57,15.29,6.12,15.29,6.12a25.37,25.37,0,0,1,9,2.24,26.69,26.69,0,0,1,15.81,20.39C269,160.11,265,166.94,259.9,171.66Z" fill="#8a0063" data-primary="true"/>
<path d="M242.8,128.08C230.59,146.61,199.61,153,199.61,153a27.78,27.78,0,0,1-1-4l9.26-14.23L227.51,122C232.86,125.53,242.8,128.08,242.8,128.08Z" fill="#fff" opacity="0.2"/>
<path d="M259.9,171.66a32.56,32.56,0,0,1-27.33,8,50.27,50.27,0,0,1-7.63-1.79h0S250.38,166,242.8,128.08a25.37,25.37,0,0,1,9,2.24,26.69,26.69,0,0,1,15.81,20.39C269,160.11,265,166.94,259.9,171.66Z" fill="#fff" opacity="0.2"/>
<path d="M206.37,315.5A37.58,37.58,0,1,0,244,353.08,37.58,37.58,0,0,0,206.37,315.5Zm0,69.42a31.84,31.84,0,1,1,31.83-31.84A31.84,31.84,0,0,1,206.37,384.92Z" fill="#005e94" data-secondary="true"/>
<circle cx="206.35" cy="354" r="3.73" fill="#8a0063" data-primary="true"/>
<polygon points="215.59 333.6 206.81 354.21 206.83 353.87 212.41 376.41 205.87 354.13 205.82 353.96 205.9 353.8 215.59 333.6" fill="#005e94" data-secondary="true"/>
<rect x="610.56" y="185.02" width="17.37" height="6.87" transform="translate(-18.32 300.22) rotate(-26.87)" fill="#8a0063" data-primary="true"/>
<path d="M502.34,104a25.38,25.38,0,0,1,12.29,14.57l26.86-10.28s-12.57-5.15-6-16.58l8.57-13.14-1.72-5.43S529.77,84.27,521.2,84.27c0,0,2.29,8.57-9.14,14Z" fill="#8a0063" data-primary="true"/>
<path d="M542.34,73.12s-22.28,23.72-14.85,31.72l6.67,6.23,7.33-2.8s-13-5.82-6-16.58l8.57-13.14Z" opacity="0.2"/>
<path d="M227.73,125.08c0,13.24-11.24,24-25.11,24s-25.11-10.73-25.11-24a21.42,21.42,0,0,1,.22-3.12c1.6-11.76,12.14-20.84,24.89-20.84s23.3,9.08,24.89,20.84A21.42,21.42,0,0,1,227.73,125.08Z" fill="#f7a48b"/>
<path d="M227.51,122c-1.6,13-12.13,23-24.89,23s-23.29-10-24.89-23c1.6-11.76,12.14-20.84,24.89-20.84S225.92,110.2,227.51,122Z" fill="#f9b499"/>
<circle cx="189.48" cy="146.52" r="6.49" fill="#f9b499"/>
</svg>