<svg id="e36c23ea-8276-402a-bafd-5e99d9cf3157" data-name="Layer 1" xmlns="http://www.w3.org/2000/svg" width="865.76" height="682.89" viewBox="0 0 865.76 682.89"><path d="M266.16,195.43l16.49,5.63h0a2.72,2.72,0,0,1,3.57-1.77l12.94,5a2.72,2.72,0,0,1,1.59,3.43l-1,2.74a2.71,2.71,0,0,1-3.5,1.64l-12.8-4.79a2.71,2.71,0,0,1-1.64-3.32l.13-.41-15.81-5.22Z" fill="#2f2e41"/><path d="M266.16,195.43l16.49,5.63h0a2.72,2.72,0,0,1,3.57-1.77l12.94,5a2.72,2.72,0,0,1,1.59,3.43l-1,2.74a2.71,2.71,0,0,1-3.5,1.64l-12.8-4.79a2.71,2.71,0,0,1-1.64-3.32l.13-.41-15.81-5.22Z" opacity="0.2"/><polygon points="229.61 658.13 240.33 658.13 267.54 404.32 248.57 404.32 229.61 658.13" fill="#ccc"/><polygon points="229.61 658.13 240.33 658.13 267.54 404.32 248.57 404.32 229.61 658.13" opacity="0.2"/><polygon points="577.56 658.13 549.53 404.32 570.14 400.87 589.1 658.13 577.56 658.13" fill="#ccc"/><polygon points="577.56 658.13 549.53 404.32 570.14 400.87 589.1 658.13 577.56 658.13" opacity="0.2"/><path d="M461,237.62h-1.37a6.39,6.39,0,0,1-8.85.2l-.2-.2h-8.95a6.38,6.38,0,0,1-8.23,0H422.87a6.39,6.39,0,0,1-8.25,0H403.16a6.39,6.39,0,0,1-8.25,0h-1.77a5.49,5.49,0,0,0-5.5,5.49v29.58h78.88V243.11A5.49,5.49,0,0,0,461,237.62Z" fill="#2f2e41"/><path d="M808.43,609.89l-16.7-26.18,16.7-9.48,14.43,26.39S813.58,610.72,808.43,609.89Z" fill="#f9b499"/><path d="M714.43,590.31c-.62,0,2.06,28.86,0,33.39,0,0,1.45,3.92,17.52,0l1.58-33.39Z" fill="#f9b499"/><polygon points="695.47 385.62 712.78 592.16 733.4 592.16 739.58 504.76 708.77 382.51 695.47 385.62" fill="#2f2e41"/><path d="M596.73,188.9l2.26-4,22.55,4.34,22.4,5.56,16.9,37c-10.72,5.5-24.74,16.91-24.74,16.91l-7.83-15.26C618.79,238,613.56,236,613.56,236,600.92,229.92,596.73,188.9,596.73,188.9Z" fill="#f9b499"/><path d="M598.17,182.37s.39-12.48,20.15-19.24a8,8,0,0,0,3.07-1.91l1.52-1.52s-7-11.13,4.53-16.49c0,0,8.69-5.68,13.43,1.9a12,12,0,0,1,1.71,5.87,22,22,0,0,1-2.15,10.79s5-1.45,6.18,2.26c0,0-4.53-1.24-7.62.41l7.62,6.39s5.78,0,6,6.8c0,0-4.94-7.21-7.21-4.12,0,0,28.65,20,2.68,44.11l-.74-.77a39.54,39.54,0,0,0-10.05-7.56l-1.79-.95s6-4.6,2.24-9.78a5.43,5.43,0,0,0-3.67-2.31c-2.08-.26-4.8.76-4.54,8,0,0,1,9.69,8.65,12.16,0,0,6.19,3.51,1.86,8.66,0,0,.41-5.91-2.89-6,0,0-9.48,1.72-16.9-13.33,0,0-12.78-2.33-20-16.42,0,0-3.09-3.13-2.07,3.23,0,0,2.27,12.78,1,16.29C599.2,208.76,590.34,185.67,598.17,182.37Z" fill="#2f2e41"/><path d="M788.91,644.27c-1.1-2.8-1.27-6.3,2.82-8.75,0,0,12.36-12.3,16.46-27.64l12.69-8.39s8.85,2.58,16,18.42a3.28,3.28,0,0,1-1.29,4.15L795.55,646.5A4.59,4.59,0,0,1,788.91,644.27Z" fill="#2f2e41"/><path d="M680.44,644.53c.46-3,2.09-6.08,6.85-6.13,0,0,16.88-4.38,28.16-15.56l15.19-.83s6.34,6.7,4.56,24a3.28,3.28,0,0,1-3.21,2.92l-46.94.86A4.57,4.57,0,0,1,680.44,644.53Z" fill="#2f2e41"/><path d="M560.52,329.42l34.42-13.17,11.22,16.52s-30.06,8.91-35.67,8.91c0,0-8.26,5.92-21.8,3.12,0,0-11.89-.66-16.84.75a22.7,22.7,0,0,1-9.25-.75s12.55-12.69,18.83-12.36l11.72-1.25A29.26,29.26,0,0,0,560.52,329.42Z" fill="#f9b499"/><path d="M204.12,345.73l396.28-.91a7.29,7.29,0,0,1,7.1,5.58l9,37.74a2.64,2.64,0,0,1-1.46,3c-2.35,1.07-6.83,2.41-13.33,1.34l.15.58a2.75,2.75,0,0,1-1.71,3.31l-10.67,3.87.2,2a2.85,2.85,0,0,1-1.73,2.91h0a7.79,7.79,0,0,1-4.1.55l-4.6-.61a4.65,4.65,0,0,0-4.19,1.64h0a5.86,5.86,0,0,1-5.78,2h0a1.84,1.84,0,0,0-1.93.8L566,411.71a10.28,10.28,0,0,1-7.66,4.7l-20.76,2.06a3.69,3.69,0,0,0-2.92,1.87,3,3,0,0,0-.37,1.77,6.56,6.56,0,0,1-1.17,4.73c-1.4,1.79-4.07,4-9.18,6,0,0-17.32,7.42-28.24,3.1,0,0-4.9-2.37-5.15,2a9.19,9.19,0,0,1-3.08,6.62c-3.69,3.1-11.35,6.64-26.94,6.06a6.7,6.7,0,0,0-3.57.8,3.86,3.86,0,0,0-2,2.33,5.49,5.49,0,0,1-3.19,3.95,85.85,85.85,0,0,1-38.51,5.85s-13-8.07-20.61.29c0,0-23.22-.52-35.8-5.62a9.84,9.84,0,0,1-5.49-5.18c-.67-1.6-2.71-3.27-8.59-2.07,0,0-25.32-.54-27.34-12.38a3.52,3.52,0,0,0-.89-1.92c-.69-.7-1.92-1.32-4-.7a21.51,21.51,0,0,1-6.7,1c-7.77-.17-23.59-1.73-30.9-11.16a5.72,5.72,0,0,1-1.09-4.56h0s-.83-3.92-6.6-2.47c0,0-25.37,1.58-25.79-7.42a2.84,2.84,0,0,0-2.15-2.66,4,4,0,0,0-.51-.06,10.39,10.39,0,0,1-6.37-2.67l0,0a2.05,2.05,0,0,0-1.43-.55l-6.77.12a5.7,5.7,0,0,1-5.15-3.2,7.75,7.75,0,0,0-2.9-3.21,6.49,6.49,0,0,0-1.81-.68c-1.75-.38-6-1.59-7.34-4.27a3.49,3.49,0,0,0-3.27-1.7c-3.2.34-8.37.32-12.1-2.45a2.42,2.42,0,0,1-.83-2.63l11.25-38.63A4.22,4.22,0,0,1,204.12,345.73Z" fill="#ccc"/><rect x="258.28" y="219.15" width="9.26" height="116.58" fill="#2f2e41"/><polygon points="267.54 219.15 271.39 218.28 300.67 344.8 296.82 345.67 267.54 219.15" fill="#2f2e41"/><polygon points="253.93 218.16 257.78 219.05 229.5 345.79 225.65 344.91 253.93 218.16" fill="#2f2e41"/><polygon points="231.26 327.21 262.91 331.89 294.2 327.21 294.2 330.51 262.91 335.74 231.26 331.48 231.26 327.21" fill="#2f2e41"/><rect x="251.87" y="206.83" width="21.71" height="13.74" rx="3.29" fill="#2f2e41"/><rect x="255.44" y="201.06" width="14.84" height="8.25" fill="#2f2e41"/><polygon points="267.54 203.53 257.78 203.53 257.78 187.32 267.54 189.66 267.54 203.53" fill="#2f2e41"/><polygon points="248.16 179.62 247.06 185.19 272.07 190.75 272.07 186.36 248.16 179.62" fill="#2f2e41"/><polygon points="248.31 154.62 248.31 152.47 267.54 152.47 279.98 157.71 277.46 187.32 272.07 187.32 253.35 181.09 248.31 154.62" fill="#2f2e41"/><path d="M299.61,163.16l-29.32-1.47c-7.4,10.28-2.75,19.51-2.75,19.51L295,191.43" fill="#2f2e41"/><path d="M299.61,163.16l-29.32-1.47c-7.4,10.28-2.75,19.51-2.75,19.51L295,191.43" opacity="0.2"/><ellipse cx="299.61" cy="177.95" rx="11.21" ry="14.79" fill="#2f2e41"/><polygon points="229.2 223.81 229.2 227.42 247.34 227.42 252.71 216.83 252.71 210.13 245.7 224.15 229.2 223.81" fill="#2f2e41"/><path d="M231.22,227.42h5.14a0,0,0,0,1,0,0v5.22a2.57,2.57,0,0,1-2.57,2.57h0a2.57,2.57,0,0,1-2.57-2.57v-5.22A0,0,0,0,1,231.22,227.42Z" fill="#2f2e41"/><rect x="110.19" y="135" width="7.74" height="506.09" fill="#ccc"/><polygon points="28.15 654.83 32.55 658.13 107.58 563.86 107.58 553.92 28.15 654.83" fill="#ccc"/><polygon points="190.31 658.13 117.93 564.4 117.93 556.16 194.59 654.29 190.31 658.13" fill="#ccc"/><polygon points="129.56 631.47 114.06 563.58 119.67 562.21 136.44 629.27 129.56 631.47" fill="#ccc"/><polygon points="178.87 642.1 114.32 615.34 48.97 636.59 48.04 633.73 114.44 612.14 180.02 639.33 178.87 642.1" fill="#bcbec0"/><path d="M377.94,276h-5a1.65,1.65,0,0,1-1.65-1.65h0a1.65,1.65,0,0,1,1.65-1.66H481.64a1.65,1.65,0,0,1,1.65,1.66h0a1.65,1.65,0,0,1-1.65,1.65H477l-5.2,6.72a9.05,9.05,0,0,1-7.17,3.51H443a5,5,0,0,0-4,2c-4.42,5.87-15,24.36,4,48.51,0,0,3,1.7,1.65,4.35h5.89a4.67,4.67,0,0,1,4.68,4.67H398.36v-.37a4.67,4.67,0,0,1,4.68-4.68h6.59s-1.1-4.65,2.75-4c0,0,19.21-26.68,4.3-48.26a6.3,6.3,0,0,0-5.16-2.74H389.07a9.06,9.06,0,0,1-7.67-4.23Z" fill="#bcbec0"/><rect x="430.52" y="241.05" width="33.53" height="7.7" fill="#fff"/><rect x="430.52" y="255.15" width="33.53" height="7.7" fill="#fff"/><rect x="430.52" y="266.75" width="33.53" height="5.95" fill="#fff"/><path d="M449.59,336a.89.89,0,0,1,.89-.89h72.69a.89.89,0,0,1,.89.89h0a.89.89,0,0,1-.89.89H518.4L504.18,345H469.55l-14.23-8.11h-4.84a.89.89,0,0,1-.89-.89Z" fill="#bcbec0"/><path d="M480.15,299.66H511.6a0,0,0,0,1,0,0v35.49a0,0,0,0,1,0,0H475.11a0,0,0,0,1,0,0V304.7A5,5,0,0,1,480.15,299.66Z" fill="#2f2e41"/><rect x="478.82" y="303.37" width="32.78" height="9.28" fill="#fff"/><rect x="478.82" y="316.25" width="32.78" height="9.28" fill="#fff"/><rect x="478.82" y="329.14" width="32.78" height="6.01" fill="#fff"/><path d="M598.13,397.12l-2.8-39,7.31,34.49-.89-.13S603.61,395.13,598.13,397.12Z" opacity="0.2"/><path d="M585.73,405.77l-6.54-47.64,11.22,41.8-.89.32S591.42,405.4,585.73,405.77Z" opacity="0.2"/><path d="M554.27,355.73l8.3,59.31a13.45,13.45,0,0,0,4.53-5s.31-2.09,3.63-1.14Z" opacity="0.2"/><path d="M517,355.73l14.82,72.56a8.48,8.48,0,0,0,2.57-7.12,3.45,3.45,0,0,1,3.23-2.7Z" opacity="0.2"/><path d="M487.5,444.55l-8.4-78.93,15.24,69.82s-3.62-1.34-3.76,2.49A8.42,8.42,0,0,1,487.5,444.55Z" opacity="0.2"/><path d="M440.89,357l10.89,100.72a5.32,5.32,0,0,0,3.19-3.95s.83-2.85,3.61-2.94Z" opacity="0.2"/><path d="M392.66,463.83,402.5,357l10.77,106.57S400.7,455.6,392.66,463.83Z" opacity="0.2"/><path d="M354.94,352.36,342.78,451s7.36-2.63,9.34,3.46Z" opacity="0.2"/><path d="M307.3,436.74l14.55-84.38-6.41,86.22s-.25-3.57-4.88-2.62A23.22,23.22,0,0,1,307.3,436.74Z" opacity="0.2"/><path d="M280.18,357.91l-14.91,60.9s5.5-2.09,6.6,2.47Z" opacity="0.2"/><path d="M249.81,357.91,233.9,408.05a20.19,20.19,0,0,0,2.85.73,3.32,3.32,0,0,1,2.77,3v.08Z" opacity="0.2"/><path d="M226.52,361.3l-12.08,38s2.55,1.86,3.09,4.08Z" opacity="0.2"/><path d="M212.71,355.73,200.5,392.58l.83-.11a3.77,3.77,0,0,1,3.86,2,2.88,2.88,0,0,0,.77.94Z" opacity="0.2"/><path d="M519.21,266.75s31.94,31,50.52,29.82L566,275.89l-39.18-20.74s-6.59-5-14-4.34c0,0-18.34,2.68-11.74,9.27,0,0-2.07,6.39.2,7.63l2.61,1a9.6,9.6,0,0,0,5.61.35Z" fill="#f9b499"/><polygon points="489.54 293.48 501.29 267.71 503.9 268.69 489.54 293.48" fill="#2f2e41"/><polygon points="508.91 251.6 515.07 239.12 517.47 240.19 512.84 250.81 508.91 251.6" fill="#2f2e41"/><path d="M706.19,384S703.3,468.9,740,515.07l52,72.15,19-12S761,480,753.19,473.43c0,0,6.18-27.21,2.06-37.1l-33-61.43Z" fill="#2f2e41"/><path d="M706.19,384S703.3,468.9,740,515.07l52,72.15,19-12S761,480,753.19,473.43c0,0,6.18-27.21,2.06-37.1l-33-61.43Z" opacity="0.2"/><path d="M643.94,298.63s.66,15.7,9.81,21.84a32.92,32.92,0,0,1,7.55,6.72c7.16,9,21.59,28.44,27.41,46.12a50.46,50.46,0,0,1,2.17,11.36c.34,3.81,3.57,10.84,25.61-1.94l-14.43-55.65-50.29-43.29Z" fill="#e6e7e8"/><path d="M569.73,296.57l-4.13-23.09s3.92-4.12,7.22-2.68c0,0,3.5-4.12,7.83-2.68,0,0,4.13-4.12,8.87-1.85,0,0,32.45-17.15,44.77-21l24.66-15s38.58,8.66,91.35,100.19c0,0,25.56,36.69,21,70.08l-1.65,30.1s-8.25,19.78-32.16,9.89c0,0-26.39-58.54-33.81-81.22,0,0-42.05-51.53-50.7-66l-19.38,21s-.83,8-6.87,9.34c0,0-3.58,1.93-3.58,4.12,0,0-1.92,3-4.94,1.93,0,0-7.7,3-8.25,5.49l-5.49-.82-13.2-18.14,6.87-5.22s3.85-4.12,6.87-3.57c0,0,3-7.43,6.88-7.7l3.57-9.62-22,3.3s-2.2,3-8.24,1.65c0,0-2.75,2.77-9.62-.55C575.64,294.51,572.61,301.65,569.73,296.57Z" fill="#0071f2"/><circle cx="398.88" cy="233.73" r="4.52" fill="#2f2e41"/><circle cx="418.67" cy="233.73" r="4.52" fill="#2f2e41"/><circle cx="437.71" cy="233.73" r="4.52" fill="#2f2e41"/><circle cx="455.41" cy="233.73" r="4.52" fill="#2f2e41"/><path d="M247.34,154.35s-6.79,2.31-6.58,21.82l15,7a2.32,2.32,0,0,0,3.06-1c1.91-3.72,5.88-12.18,7.08-20.52a2.33,2.33,0,0,0-1.68-2.58Z" fill="#2f2e41"/><path d="M247.34,154.35s-6.79,2.31-6.58,21.82l15,7a2.32,2.32,0,0,0,3.06-1c1.91-3.72,5.88-12.18,7.08-20.52a2.33,2.33,0,0,0-1.68-2.58Z" opacity="0.2"/><ellipse cx="299.42" cy="178.48" rx="11.38" ry="7.37" transform="translate(80 449.33) rotate(-81.79)" opacity="0.2"/><rect x="106.19" y="340.88" width="14.89" height="21.66" rx="3.56" fill="#bcbec0"/><rect x="106.19" y="538.77" width="14.89" height="30.31" rx="1.43" fill="#bcbec0"/><path d="M127.94,97.08S113.76,93.43,109,112.71a40.79,40.79,0,0,0-1.1,9.66v15.26h12.22V117.22a6.1,6.1,0,0,1,7.81-5Z" fill="#bcbec0"/><path d="M247.34,24.77,162.63,227.42s-38.5-63.78-38.91-124a37.81,37.81,0,0,1,6.62-21.65C142.14,64.54,173.38,33.15,247.34,24.77Z" fill="#ccc"/><path d="M628.27,233.49l1.37,2.66s6.37-2.17,8.78-7.21C638.42,228.94,631.66,233.19,628.27,233.49Z" fill="#f7a48b"/></svg>