 <!DOCTYPE svg PUBLIC "-//W3C//DTD SVG 1.1//EN" "http://www.w3.org/Graphics/SVG/1.1/DTD/svg11.dtd">
<svg id="ffbdd28e-4b5f-436c-823d-460d95263cc2" data-name="Layer 1" xmlns="http://www.w3.org/2000/svg" width="865.76" height="682.89" viewBox="0 0 865.76 682.89">
<defs>
<style xmlns="http://www.w3.org/1999/xhtml">*, ::after, ::before { box-sizing: border-box; }
img, svg { vertical-align: middle; }
</style>
<style xmlns="http://www.w3.org/1999/xhtml">*, body, html { -webkit-font-smoothing: antialiased; }
img, svg { max-width: 100%; }
</style>
</defs>
<path d="M128,452.77C94.47,440.38,63.15,419,49.4,389.48c-11.41-24.5-9.59-52.19-.82-77,21.35-60.3,85.25-106.2,157.27-113,57,3.9,109.65-22.75,153.72-53.21s84.72-66.17,136.49-85.66c77.83-29.3,175.64-15.42,242.22,33.88S837.26,226,819.57,299s-84.41,133.73-166.7,152.51c-69.43,15.84-143.71,3.4-215.95,4.82C333,458.4,225.05,488.59,128,452.77Z" fill="#8a0063" data-primary="true"/>
<path d="M128,452.77C94.47,440.38,63.15,419,49.4,389.48c-11.41-24.5-9.59-52.19-.82-77,21.35-60.3,85.25-106.2,157.27-113,57,3.9,109.65-22.75,153.72-53.21s84.72-66.17,136.49-85.66c77.83-29.3,175.64-15.42,242.22,33.88S837.26,226,819.57,299s-84.41,133.73-166.7,152.51c-69.43,15.84-143.71,3.4-215.95,4.82C333,458.4,225.05,488.59,128,452.77Z" fill="#fff" opacity="0.7"/>
<ellipse cx="376.22" cy="631.86" rx="242.05" ry="21.08" fill="#8a0063" data-primary="true"/>
<g opacity="0.7">
<ellipse cx="376.22" cy="631.86" rx="242.05" ry="21.08" fill="#fff"/>
</g>
<g id="bb7728e6-0755-4974-9943-f1587e24eaef" data-name="freepik--Icons--inject-5">
<path d="M590.86,417a15.65,15.65,0,0,1-8.84-2.42c-9.55-6.31-9.45-23.48-9.35-40.09l0-3.27c.07-20.31-5-21-26.33-24.07-5.21-.74-11.11-1.58-18.18-2.87-19.11-3.47-33.2-14.09-37.7-28.41-4.15-13.21.4-27.37,12.81-39.86,14.77-14.86,14-19.34,13-20.58-2.35-2.86-12.93.46-23.12,7.23-12.7,8.46-37.9-15.64-58.15-35-9.43-9-17.56-16.8-22.53-19.43-5.35-2.84-6.88-3.05-7.23-2.73s.61,3,1.66,5.49a58.37,58.37,0,0,1,4.44,14c2.3,15.05-6.45,17.08-6.53,17.1l-.61.13,0-.62c0-.17.59-16.87-12.19-22s-31.36,2.63-35.76,12.28a81.13,81.13,0,0,0-3.16,8.49c-2.31,7-5.19,15.82-16,32.62l-1.42,2.21c-14.84,23.11-27.67,43.07-76,49a93.39,93.39,0,0,1-11.43.7c-24.61,0-48.62-9.61-64.65-26.34-14.73-15.37-20.94-35.3-17.47-56.11,4.33-26,17.81-45.61,37-53.89,15.48-6.68,32.77-5,47.61,4.53a125.94,125.94,0,0,1-7.2-37.91C242.67,127,255.84,99.48,274.18,91c8.25-3.79,21.22-5.44,36.23,8.23,8.24,7.51,15,18.3,20.2,30.47-2.72-12.78-2.88-25.29,0-35.14,3.88-13.37,12-23.3,23.6-28.73,14.33-6.73,33.23-6,51.84,2.15,19.45,8.45,20.57,22.85,21.39,33.36.59,7.59,1,13.07,7.82,13.38,5.92.27,8.16-8.68,10.95-20,4.86-19.77,11.52-46.86,43.44-47.37C510.3,47,529.12,56,542.54,72.64c16.28,20.16,22.58,49.11,16.45,75.54-6.17,26.62-26.29,52.06-51.25,64.81-15.65,8-30.6,9.73-42.1,4.89-15.31-6.44-24.72-19.95-33.83-33-8.76-12.58-17.05-24.47-29.87-29.15-9.13-3.34-17.54-2.7-25,1.88-7.23,4.44-13.22,12.65-17.07,22.91A35.93,35.93,0,0,0,375,188c3.82.77,7.43,1.43,10.92,2.07,24.3,4.47,40.36,7.42,58.39,33.17,24.3,34.7,56.06,29.17,72.83,22.79,12.5-4.76,17.28-17.89,22.82-33.1,5.42-14.87,11.56-31.72,26.23-45.51,12.2-11.47,27.35-14.46,41.55-8.21,18.66,8.22,30.51,29.47,30.19,54.15-.55,43.17-22.15,43.33-52,43.54-2.26,0-4.56,0-6.9.07-32.29.49-57.44,23.42-57.25,52.2a23.25,23.25,0,0,0,7.9,17.6c13.78,12.64,42.95,15.2,65.66,13.38,25.17-2,25.56-10.84,26.75-37,.18-4.13.39-8.81.73-13.9.84-12.68,7.4-23.08,17.54-27.84,7.49-3.51,15.4-3.12,21.17,1.06,6.74,4.89,9.63,14.27,8.14,26.41-3.07,24.94-13.92,32.67-24.4,40.15-7.43,5.3-14.45,10.3-18.81,21.09-4.09,10.13-2.38,19.5-.86,27.77,2.46,13.45,4.59,25.07-17.89,34.84C601,415.53,595.47,417,590.86,417ZM513.19,253.41a4.76,4.76,0,0,1,3.83,1.37c2.57,3.13-1.94,10.69-13,21.87-12.14,12.22-16.61,26-12.57,38.89,4.39,14,18.2,24.35,37,27.75,7,1.29,12.95,2.13,18.15,2.87,21.45,3.06,27.22,3.88,27.15,25l0,3.27c-.1,16.35-.2,33.26,8.92,39.28,5.4,3.56,13.47,2.92,24.68-2,21.79-9.47,19.82-20.2,17.33-33.79-1.53-8.4-3.28-17.91.92-28.3,4.46-11.05,11.93-16.37,19.14-21.51,10.32-7.36,21-15,24-39.49,1.45-11.77-1.3-20.83-7.75-25.51-5.47-4-13-4.33-20.19-1-9.82,4.61-16.17,14.71-17,27-.33,5.08-.55,9.76-.73,13.88-1.18,26.09-1.62,35.85-27.63,37.94-22.91,1.83-52.38-.78-66.39-13.63a24.18,24.18,0,0,1-8.21-18.3c-.19-29.32,25.37-52.67,58.19-53.17,2.35,0,4.65-.05,6.91-.07,29.35-.21,50.56-.36,51.1-42.59.31-24.29-11.31-45.2-29.62-53.26-13.83-6.09-28.59-3.16-40.51,8-14.5,13.63-20.6,30.37-26,45.14-5.62,15.43-10.47,28.75-23.38,33.66-17,6.49-49.28,12.11-74-23.13-17.8-25.42-33.7-28.35-57.77-32.77-3.5-.65-7.11-1.31-10.94-2.08a36.55,36.55,0,0,1-15.26-7.45,73.7,73.7,0,0,0-3.74,16.07c-1.85,15.44-12.11,31.69-26.14,41.38-10.65,7.36-22.19,10-32.52,7.47-12.82-3.17-26-14.7-36.19-31.66a119.06,119.06,0,0,1-9.63-20.17l-.17-.12c-14.76-9.89-32.12-11.72-47.61-5-18.87,8.14-32.14,27.52-36.41,53.16-3.42,20.5,2.7,40.14,17.22,55.29,18.3,19.1,47.14,28.81,75.26,25.35,47.88-5.9,60.59-25.69,75.3-48.6l1.42-2.21c10.76-16.7,13.62-25.4,15.92-32.4a80.28,80.28,0,0,1,3.2-8.59c4.66-10.22,23.43-18.26,37-12.77,11.88,4.8,12.74,19,12.78,22.28,1.81-.72,7-3.84,5.2-15.82A57,57,0,0,0,406,211.33c-1.5-3.54-2.4-5.68-1.42-6.58.8-.73,2.42-.54,8.34,2.59,5.07,2.7,13.26,10.52,22.73,19.58,20,19.13,44.89,42.94,57,34.9C499.79,257.06,508.14,253.41,513.19,253.41ZM252.85,195.59c9.7,25.24,26.62,45.42,44.49,49.83,10.06,2.48,21.33-.12,31.75-7.32,13.81-9.54,23.91-25.52,25.73-40.71a74.55,74.55,0,0,1,3.9-16.58,70.54,70.54,0,0,1-15.13-18.07A101.46,101.46,0,0,1,338,152c4.87,19.9,5.79,40.44,2.16,55-3,11.89-8.66,19.23-16.46,21.22-22.28,5.7-33.33-3.27-50.07-16.85C267.66,206.58,261,201.17,252.85,195.59Zm-.59-1.56c8.71,5.88,15.72,11.57,21.93,16.6,16.51,13.4,27.41,22.24,49.22,16.67,7.44-1.9,12.89-9,15.76-20.52,4-16.17,2.42-39.75-4-61.55-1.06-2.82-2-5.67-2.81-8.53-5.34-14.7-13-28-22.58-36.73C298.19,89.43,286,86.64,274.59,91.91c-18,8.29-30.94,35.45-30.08,63.17A124.9,124.9,0,0,0,252.26,194Zm138.55-41.39a33.21,33.21,0,0,1,11.46,2.17c13.11,4.78,21.47,16.79,30.33,29.5,9,13,18.36,26.35,33.41,32.68,11.24,4.73,25.9,3,41.29-4.86C532,199.5,551.94,174.32,558.06,148c6.06-26.15-.17-54.78-16.27-74.71C528.56,56.86,510,48,489.64,48.34c-31.17.49-37.73,27.16-42.52,46.63C444.23,106.73,442,116,435.2,115.71c-7.66-.34-8.14-6.49-8.74-14.27-.8-10.27-1.89-24.33-20.81-32.55-18.37-8-37-8.77-51-2.16-11.3,5.3-19.28,15-23.09,28.13-3.35,11.53-2.49,26.77,1.81,41.79.95,2.62,1.83,5.29,2.63,8a103.75,103.75,0,0,0,8.46,17.61,69.94,69.94,0,0,0,14.66,17.62c3.94-10.32,10-18.59,17.35-23.08A27,27,0,0,1,390.81,152.64Z" fill="#8a0063" data-primary="true"/>
<path d="M231.7,301.85a40.14,40.14,0,1,1,11.62-1.73A40.3,40.3,0,0,1,231.7,301.85Zm.12-79.09a39.07,39.07,0,0,0-34.49,20.6h0a39.08,39.08,0,1,0,34.49-20.6ZM196.9,243.13h0Z" fill="#005e94" data-secondary="true"/>
<path d="M231.82,294.42A32.67,32.67,0,0,1,199.51,257h0a32.59,32.59,0,1,1,32.31,37.43Zm-31.36-37.29a31.64,31.64,0,1,0,36-26.61,31.68,31.68,0,0,0-36,26.61Z" fill="#005e94" data-secondary="true"/>
<path d="M229.67,259.25l-14.43-9.64-1.06,1.58,14.43,9.62A3.24,3.24,0,0,1,229.67,259.25Z" fill="#005e94" data-secondary="true"/>
<path d="M229.38,264l-13.26,23.22,1.64.94L231,265A3.17,3.17,0,0,1,229.38,264Z" fill="#005e94" data-secondary="true"/>
<path d="M231.79,265.56a3.76,3.76,0,0,1-2.46-.91,3.7,3.7,0,0,1-1.3-2.57,3.77,3.77,0,1,1,7.51-.59h0a3.79,3.79,0,0,1-3.45,4.05Zm0-6.58h-.22a2.81,2.81,0,0,0-2.59,3,2.83,2.83,0,0,0,3,2.58,2.84,2.84,0,0,0,2.59-3h0a2.81,2.81,0,0,0-1-1.92A2.77,2.77,0,0,0,231.79,259Z" fill="#005e94" data-secondary="true"/>
<path d="M288.09,155.6a2,2,0,0,1-2-1.89l-.86-10.63a2.07,2.07,0,0,1,1.89-2.22h0l32.39-2.59a2,2,0,0,1,2.21,1.88l.85,10.63a2,2,0,0,1-1.88,2.21l-32.39,2.6Zm-.94-13.78a1.1,1.1,0,0,0-1,1.18l.85,10.63a1.11,1.11,0,0,0,1.18,1l32.39-2.6a1.06,1.06,0,0,0,.75-.38,1,1,0,0,0,.25-.79l-.85-10.63a1.09,1.09,0,0,0-1.17-1Z" fill="#005e94" data-secondary="true"/>
<path d="M291.62,216.53a8.4,8.4,0,0,1-8.33-9.2L288.38,155a.48.48,0,0,1,1,.1l-5.1,52.3a7.43,7.43,0,0,0,8,8.12l33.7-2.7a7.43,7.43,0,0,0,6.17-4.32l.61-1.33a7.41,7.41,0,0,0,.29-5.42l-13.49-49.08a.48.48,0,0,1,.33-.59.46.46,0,0,1,.59.33l13.49,49.06a8.36,8.36,0,0,1-.34,6.1l-.6,1.33a8.41,8.41,0,0,1-7,4.88l-33.71,2.7C292.08,216.52,291.85,216.53,291.62,216.53Z" fill="#005e94" data-secondary="true"/>
<path d="M289,140.79a.54.54,0,0,1-.34-.12c-.21-.18-1.17-1.26,1-4.3,1-1.41,2.61-1.62,4.18-1.82,1.95-.25,3.64-.46,4.32-2.75s0-3.58-.95-5.46a16.57,16.57,0,0,1-2-7,6.51,6.51,0,0,1,4.15-6.66,7.12,7.12,0,0,1,8,1.62,15.79,15.79,0,0,1,3.23,13.19c-.31.89-.89,3.28,0,4.42a2.37,2.37,0,0,0,2.21.67,8.27,8.27,0,0,1,5.62,2.56,4.13,4.13,0,0,1,.92,3.8.48.48,0,1,1-.93-.23,3.17,3.17,0,0,0-.72-2.95,7.44,7.44,0,0,0-4.8-2.23,3.22,3.22,0,0,1-3.06-1c-1.38-1.78-.2-5.11-.15-5.25a14.85,14.85,0,0,0-3-12.32,6.18,6.18,0,0,0-6.91-1.35,5.6,5.6,0,0,0-3.55,5.72,15.54,15.54,0,0,0,1.94,6.64c1,1.92,1.78,3.58,1,6.16-.85,2.89-3.12,3.18-5.12,3.44-1.43.18-2.77.35-3.52,1.41-1.36,1.94-1.26,2.86-1.1,3.05a.45.45,0,0,1,0,.66A.44.44,0,0,1,289,140.79Z" fill="#005e94" data-secondary="true"/>
<path d="M296.36,210.72a7.77,7.77,0,0,1-7.75-8.37l3.39-43a.49.49,0,0,1,.44-.44l12.48-1a.49.49,0,0,1,.52.45.47.47,0,0,1-.44.51l-12.07,1-3.36,42.6a6.89,6.89,0,0,0,1.87,5.25,6.82,6.82,0,0,0,5.39,2.07l5.77-.46a.48.48,0,0,1,.52.44.49.49,0,0,1-.44.52l-5.77.46Z" fill="#005e94" data-secondary="true"/>
<path d="M319.64,208.16a3.46,3.46,0,0,1-3.45-3.09l-5.34-47.15a.47.47,0,0,1,.1-.36.51.51,0,0,1,.34-.17l7-.58a.48.48,0,0,1,.52.44.48.48,0,0,1-.44.52l-6.56.54L317.14,205a2.53,2.53,0,0,0,2.71,2.23l4.64-.38a.49.49,0,0,1,.52.44.48.48,0,0,1-.44.52l-4.65.38Z" fill="#005e94" data-secondary="true"/>
<path d="M348.31,153.23a3.1,3.1,0,0,1-3.08-2.85l-3.06-38.2a3.1,3.1,0,0,1,2.83-3.33l64.93-5.2a3.1,3.1,0,0,1,3.33,2.84l3.06,38.2a3.1,3.1,0,0,1-2.83,3.33l-64.93,5.2Zm-3.23-43.42a2.12,2.12,0,0,0-1.95,2.29l3.06,38.21a2.12,2.12,0,0,0,.74,1.45,2.08,2.08,0,0,0,1.55.5l64.93-5.2a2.12,2.12,0,0,0,1.95-2.29l-3.06-38.21a2.08,2.08,0,0,0-.74-1.45,2.14,2.14,0,0,0-1.55-.5l-64.93,5.2Zm0-.48h0Z" fill="#005e94" data-secondary="true"/>
<path d="M345.06,142.76a.51.51,0,0,1-.31-.11.47.47,0,0,1-.17-.33l-1.18-14.7a.49.49,0,0,1,.44-.52L414,121.48a.46.46,0,0,1,.35.12.47.47,0,0,1,.17.33l1.17,14.7a.47.47,0,0,1-.44.51l-70.13,5.62ZM344.4,128l1.1,13.75,69.18-5.55-1.1-13.74Z" fill="#005e94" data-secondary="true"/>
<path d="M390.82,115.25a2.5,2.5,0,0,1-2.36-1.71,2.46,2.46,0,0,1,.14-1.9,2.48,2.48,0,0,1,3.34-1.09,2.42,2.42,0,0,1,1.24,1.44,2.46,2.46,0,0,1-.14,1.9,2.49,2.49,0,0,1-1.44,1.24A2.64,2.64,0,0,1,390.82,115.25Zm0-4a1.5,1.5,0,0,0-.47.08h0a1.46,1.46,0,0,0-.89.76,1.53,1.53,0,0,0,.67,2,1.58,1.58,0,0,0,1.17.09,1.54,1.54,0,0,0,.88-.76,1.52,1.52,0,0,0-.67-2A1.53,1.53,0,0,0,390.82,111.24Zm-.62-.38h0Z" fill="#005e94" data-secondary="true"/>
<path d="M398.6,114.62a2.48,2.48,0,1,1,2.48-2.68h0a2.48,2.48,0,0,1-2.29,2.66Zm0-4h-.12a1.54,1.54,0,0,0-1.39,1.64,1.52,1.52,0,0,0,1.64,1.4,1.51,1.51,0,0,0,1.4-1.63A1.54,1.54,0,0,0,398.59,110.61Z" fill="#005e94" data-secondary="true"/>
<path d="M406.39,114a2.49,2.49,0,0,1-1.6-.59,2.44,2.44,0,0,1-.87-1.69,2.48,2.48,0,1,1,4.95-.42h0a2.49,2.49,0,0,1-.57,1.82,2.52,2.52,0,0,1-1.7.87Zm0-4h-.13a1.51,1.51,0,0,0-1.39,1.65,1.49,1.49,0,0,0,.53,1,1.45,1.45,0,0,0,1.11.36,1.49,1.49,0,0,0,1-.53,1.58,1.58,0,0,0,.36-1.12h0A1.54,1.54,0,0,0,406.4,109.94Z" fill="#005e94" data-secondary="true"/>
<path d="M490.28,177.84a.53.53,0,0,1-.27-.08.49.49,0,0,1-.19-.52c3.71-13.57-5.57-22.43-15.4-31.81a111.43,111.43,0,0,1-10-10.42c-10.83-13.51-9.41-32.8-9.4-33a.48.48,0,0,1,.25-.39L507.92,72.7a.49.49,0,0,1,.44,0,.47.47,0,0,1,.26.35c0,.11,1.94,11.23,5,23.72,2.6,10.69,9.18,15.07,16.79,20.14,1.27.85,2.56,1.71,3.87,2.62,9.36,6.53,9.06,20.19,9,20.77a.48.48,0,0,1-.2.38l-52.53,37.09A.54.54,0,0,1,490.28,177.84Zm-34.34-75.49c-.12,2.31-.71,19.68,9.21,32.06a111.8,111.8,0,0,0,9.93,10.32c9.31,8.89,18.93,18.07,16,31.5L542.33,140c0-1.84-.35-14-8.63-19.72-1.3-.91-2.59-1.76-3.85-2.6-7.78-5.19-14.51-9.67-17.19-20.72-2.62-10.78-4.41-20.54-4.87-23.12Z" fill="#005e94" data-secondary="true"/>
<path d="M475.09,202.88a.5.5,0,0,1-.26-.08.48.48,0,0,1-.21-.5,38.41,38.41,0,0,0-1.24-20.14c-2.12-5.84-8.74-10.22-15.14-14.46-4.64-3.06-9.43-6.23-12.37-9.92A179,179,0,0,1,432.54,138a.48.48,0,0,1,.16-.65l24.78-15.15a.48.48,0,0,1,.5.82l-24.37,14.9a176.94,176.94,0,0,0,13,19.28c2.84,3.57,7.36,6.56,12.14,9.72,6.53,4.32,13.28,8.79,15.52,14.95a39.43,39.43,0,0,1,1.5,19.48l47.45-33.07c.24-1.12,1.4-7.58-2.83-12.38a.49.49,0,0,1,.05-.68.48.48,0,0,1,.68,0c5,5.64,3.07,13.11,3,13.43a.48.48,0,0,1-.19.27l-48.57,33.85A.49.49,0,0,1,475.09,202.88Z" fill="#005e94" data-secondary="true"/>
<path d="M484.2,142.91a.5.5,0,0,1-.41-.22.48.48,0,0,1,.14-.66l34.76-22.92a.48.48,0,1,1,.53.81l-34.76,22.91A.5.5,0,0,1,484.2,142.91Z" fill="#005e94" data-secondary="true"/>
<path d="M487.66,149.58a.48.48,0,0,1-.26-.89l38.34-23.93a.49.49,0,0,1,.67.16.48.48,0,0,1-.16.66L487.91,149.5A.46.46,0,0,1,487.66,149.58Z" fill="#005e94" data-secondary="true"/>
<path d="M493.33,156.44a.48.48,0,0,1-.4-.21.47.47,0,0,1,.13-.66l38.2-25.75a.48.48,0,0,1,.53.8L493.6,156.36A.45.45,0,0,1,493.33,156.44Z" fill="#005e94" data-secondary="true"/>
<path d="M465.34,167.84a.48.48,0,0,1-.27-.88l17-11.25a.47.47,0,0,1,.66.13.48.48,0,0,1-.13.67l-17,11.25A.42.42,0,0,1,465.34,167.84Z" fill="#005e94" data-secondary="true"/>
<path d="M471.25,173.21a.48.48,0,0,1-.4-.21.48.48,0,0,1,.13-.67l14.94-10a.48.48,0,0,1,.67.13.49.49,0,0,1-.14.67l-14.93,10A.45.45,0,0,1,471.25,173.21Z" fill="#005e94" data-secondary="true"/>
<path d="M478.48,113.27a6.59,6.59,0,0,1,.56,4.32c1.69.57,2.49,2.07,3.4,3.57,0,.09.2.33.23.42a9.49,9.49,0,0,1,1.44,3.92c0,1.29-.51,1.63-1.44,2.3s-2.13,1.14-3.08,1.79c-3-6.21-5.77-12.36-8.54-18.68a29.89,29.89,0,0,1,2.89-1.44c.95-.32,1.44-.55,2.39.12a7.19,7.19,0,0,1,1.93,3.16C478.31,112.75,478.45,113.17,478.48,113.27Zm-2.09,4.6c.24-.2.46-.16.72-.42s.48-.27.39-.88a10.48,10.48,0,0,0-.68-2.12l-.46-1.17a4.53,4.53,0,0,0-.75-1.36.7.7,0,0,0-.81-.11c-.29.09-.42.22-.68.3C474.9,114,475.62,116,476.39,117.87Zm4.33,8.37c.26-.2.46-.19.75-.43s.53-.39.43-1a7.56,7.56,0,0,0-.85-1.93c-.3-.51-.48-.82-.75-1.33a10.94,10.94,0,0,0-1.13-1.73.76.76,0,0,0-1-.23,5.42,5.42,0,0,0-.87.43C478.39,122.15,479.51,124.29,480.72,126.24Z" fill="#005e94" data-secondary="true"/>
<path d="M487,125.73a121.39,121.39,0,0,1-8.66-18.34c.63-.31,1.25-.65,1.89-1a99.47,99.47,0,0,0,8.66,18.38Z" fill="#005e94" data-secondary="true"/>
<path d="M490.8,123.76a77.55,77.55,0,0,1-8.65-18.43l2-1.17c2.19,6.12,3.49,11,7.28,16.28.91-.54,1.81-1.07,2.7-1.63l1.45,2.18Q493.19,122.42,490.8,123.76Z" fill="#005e94" data-secondary="true"/>
<path d="M496.75,120.22a103.08,103.08,0,0,1-8.66-18.45l2.17-1.45a116.87,116.87,0,0,0,7.43,16.26l2.88-1.86c.44.77.84,1.53,1.27,2.3C500.08,118.1,498.42,119.17,496.75,120.22Z" fill="#005e94" data-secondary="true"/>
<path d="M499.92,111.38c-.17-.31-.57-1.14-.78-1.45.7-.5,1.45-1,2.11-1.44.3.61.59,1.15.91,1.77a7.7,7.7,0,0,0,1.28,1.91.78.78,0,0,0,1.07.18l.05,0c.41-.23.53-.41.44-1a5.09,5.09,0,0,0-.69-1.71,6.7,6.7,0,0,0-1.31-1.73,7.3,7.3,0,0,0-1.84-1.15c-.64-.29-1.12-.43-1.78-.77a7.87,7.87,0,0,1-2.08-1.34,7.08,7.08,0,0,1-1.45-2.24,8.11,8.11,0,0,1-.8-3.88A3.15,3.15,0,0,1,496.76,96a2.25,2.25,0,0,1,2.89,0,7.93,7.93,0,0,1,2.29,3.41c.11.22.6.89.45,1.1-.37.49-1.33.79-1.85,1.22-.21-.5-.34-.83-.57-1.35a7.26,7.26,0,0,0-1-1.82c-.38-.41-.6-.39-1-.19a.91.91,0,0,0-.53.92,3.47,3.47,0,0,0,.38,1.45,3.3,3.3,0,0,0,.85,1.3,8.7,8.7,0,0,0,1.44.86l1.82.93a11.85,11.85,0,0,1,2.37,1.74,9.32,9.32,0,0,1,1.73,2.44,9.89,9.89,0,0,1,1.28,4.1,2.65,2.65,0,0,1-1.54,2.58,2.6,2.6,0,0,1-3.11.17A9.38,9.38,0,0,1,499.92,111.38Z" fill="#005e94" data-secondary="true"/>
<path d="M457.1,144.93a5.33,5.33,0,0,1,1.09,3.95,7.33,7.33,0,0,1,4.1,3l.3.35a8.15,8.15,0,0,1,2,3.45c.16,1.17-.36,1.53-1.29,2.19s-2.18,1.2-3.16,1.86c-3.92-5.4-7.74-10.73-11.4-16.26,1-.48,2-1.17,3-1.56a2.66,2.66,0,0,1,2.62-.09,7.24,7.24,0,0,1,2.41,2.63Zm-1.79,4.32c.24-.21.49-.17.75-.43s.49-.3.31-.84a8.49,8.49,0,0,0-1-1.86c-.11-.18-.41-.7-.62-1a4.61,4.61,0,0,0-1-1.19,1,1,0,0,0-.9,0c-.3.11-.45.24-.72.34,1.07,1.69,2.06,3.33,3.12,5Zm5.65,7.22c.26-.2.48-.2.77-.45s.55-.39.37-.89a6.21,6.21,0,0,0-1.14-1.69l-1-1.16a9.8,9.8,0,0,0-1.44-1.44,1,1,0,0,0-1.08-.14c-.41.11-.54.33-.9.46,1.42,1.83,2.86,3.64,4.4,5.35Z" fill="#005e94" data-secondary="true"/>
<path d="M467.75,155.6a112.51,112.51,0,0,1-11.55-16c.67-.33,1.31-.68,1.95-1a92.71,92.71,0,0,0,11.54,16Z" fill="#005e94" data-secondary="true"/>
<path d="M471.71,153.47a70.18,70.18,0,0,1-11.54-16c.69-.39,1.37-.81,2.05-1.22,3.07,5.39,5,9.7,9.77,14.19.94-.55,1.86-1.11,2.77-1.68.59.61,1.17,1.25,1.74,1.87C475,151.58,473.34,152.53,471.71,153.47Z" fill="#005e94" data-secondary="true"/>
<path d="M572.1,193.5l-2.48-3.82c-.52,0-1.28,0-1.6-.52a1.25,1.25,0,0,1-.17-.92,3.08,3.08,0,0,1,1.37-1.86c1.13-.79,2.63-.72,3.06-.12s0,1.35-.26,1.8l2.65,3.67-.44.27c-.58.36-1.16.76-1.72,1.19Zm-2-4.88,2.27,3.49c.31-.23.62-.44.94-.65l-2.44-3.39.2-.28a2,2,0,0,0,.43-1,2.19,2.19,0,0,0-1.71.38,2.12,2.12,0,0,0-1,1.23.31.31,0,0,0,0,.24,1.38,1.38,0,0,0,.93,0Z" fill="#005e94" data-secondary="true"/>
<path d="M566.1,201.94l-6.27-3.21a2,2,0,0,1-1.66.51,1.39,1.39,0,0,1-.73-.81,3.42,3.42,0,0,1,.29-2.49c.68-1.43,1.88-2.18,2.8-1.75a2.09,2.09,0,0,1,.69,1.83l6.33,2.79-.24.45a21.78,21.78,0,0,0-1,2.19Zm-6.37-4.33,5.87,3c.19-.46.4-.9.62-1.34l-6-2.65,0-.36a1.83,1.83,0,0,0-.18-1.24c-.24-.1-1,.33-1.46,1.34a2.53,2.53,0,0,0-.25,1.74.45.45,0,0,0,.19.26,3.68,3.68,0,0,0,1-.57Z" fill="#005e94" data-secondary="true"/>
<path d="M559.25,213.24a1.3,1.3,0,0,1-.84-.33,3.56,3.56,0,0,1-.29-4.41,1.21,1.21,0,0,1,.87-.41c.62,0,1.1.63,1.37,1.13l4.54-.49v.54c0,.12,0,.25,0,.37s0,.43,0,.66,0,.27.06.41a3.94,3.94,0,0,1,.08.68v.46l-4.47.23c-.19.45-.57,1.12-1.21,1.16Zm-.26-4.19a.32.32,0,0,0-.17.11,2.26,2.26,0,0,0-.36,1.57,2.09,2.09,0,0,0,.57,1.44.34.34,0,0,0,.25.11,1.53,1.53,0,0,0,.48-.8l.09-.32,4.16-.22a.15.15,0,0,0,0-.07c0-.17,0-.33-.06-.5a5.43,5.43,0,0,1,0-.57l-4.12.44-.15-.31A2.07,2.07,0,0,0,559,209.05Z" fill="#005e94" data-secondary="true"/>
<path d="M581.61,189.32h-.45l-.37-7c-.51-.22-1.15-.61-1.26-1.15a1.33,1.33,0,0,1,.33-1,3.88,3.88,0,0,1,4.79-.33,1.27,1.27,0,0,1,.43.93c.07.66-.72,1.2-1.23,1.48l.75,6.91h-1c-.26,0-.52,0-.78,0a4,4,0,0,0-.48.07A4.52,4.52,0,0,1,581.61,189.32Zm.92-9.19h-.3a2.42,2.42,0,0,0-1.63.65.4.4,0,0,0-.12.27,2.86,2.86,0,0,0,.94.51l.3.11.35,6.63.14,0a4,4,0,0,1,.58-.08,6.09,6.09,0,0,1,.74,0l-.71-6.52.31-.14a2.08,2.08,0,0,0,1-.74.31.31,0,0,0-.13-.24A2.28,2.28,0,0,0,582.53,180.13Z" fill="#005e94" data-secondary="true"/>
<path d="M594.32,191.71l-.46-.24c-.67-.35-1.29-.64-1.89-.89l-.48-.2,2-4c-.3-.41-.67-1.06-.43-1.58a1.29,1.29,0,0,1,.76-.66,3,3,0,0,1,2.29.27c1.37.65,2.07,1.74,1.67,2.6-.28.54-1,.62-1.66.64Zm-1.51-1.82c.34.15.68.31,1,.49l1.65-3.74h.31a2.51,2.51,0,0,0,1.14-.14c.09-.2-.31-.83-1.24-1.27a2.26,2.26,0,0,0-1.56-.24.34.34,0,0,0-.21.17,2.26,2.26,0,0,0,.49.79l.21.24Z" fill="#005e94" data-secondary="true"/>
<path d="M601.64,199.05l-.28-.44a18.56,18.56,0,0,0-1.4-2l-.34-.42,5.94-3.81c-.08-.55-.09-1.38.43-1.73.83-.57,2.14,0,3,1.3s.78,2.83.12,3.29-1.44,0-1.94-.31Zm-.6-2.61c.3.4.59.81.86,1.23l5.31-3.91.29.22a2.12,2.12,0,0,0,1.12.49,2.24,2.24,0,0,0-.37-2c-.64-.91-1.44-1.23-1.72-1a2.32,2.32,0,0,0,0,1.06l.07.32Z" fill="#005e94" data-secondary="true"/>
<path d="M609.91,209.36c-.59,0-1-.68-1.29-1.12l-4.53.48v-.89c0-.23,0-.47,0-.69a2.12,2.12,0,0,0-.06-.43,4.78,4.78,0,0,1-.07-.65v-.45l4.47-.23c.19-.49.57-1.15,1.17-1.17.93,0,1.77,1,1.87,2.45a3.12,3.12,0,0,1-.61,2.29,1.18,1.18,0,0,1-.88.41Zm-.71-2.15.14.32a2,2,0,0,0,.63.87.28.28,0,0,0,.18-.1,2.21,2.21,0,0,0,.36-1.57c-.07-.95-.55-1.56-.84-1.56h0a2.06,2.06,0,0,0-.43.82l-.1.32-4.15.21v0a3.73,3.73,0,0,1,.07.56c0,.18,0,.36,0,.55Z" fill="#005e94" data-secondary="true"/>
<path d="M609,223.43a1.33,1.33,0,0,1-.55-.12,2.15,2.15,0,0,1-.69-1.83l-6.33-2.79.25-.46a21.45,21.45,0,0,0,1-2.17l.19-.49,6.25,3.18c.48-.36,1.16-.75,1.72-.48a1.34,1.34,0,0,1,.68.8,3.34,3.34,0,0,1-.29,2.48A2.86,2.86,0,0,1,609,223.43Zm-6.23-5.2,6,2.65,0,.35a2,2,0,0,0,.18,1.25c.25.1,1-.34,1.47-1.34a2.54,2.54,0,0,0,.25-1.74.4.4,0,0,0-.2-.26,2,2,0,0,0-.92.55l-.24.21-5.89-3C603.2,217.35,603,217.79,602.77,218.23Z" fill="#005e94" data-secondary="true"/>
<path d="M598,231.6a1.5,1.5,0,0,1-1.24-.47c-.39-.54,0-1.34.25-1.79l-2.65-3.62.45-.27a20,20,0,0,0,1.72-1.17l.41-.31,2.48,3.81c.51-.06,1.25-.06,1.57.42a1.27,1.27,0,0,1,.2,1,3.07,3.07,0,0,1-1.38,1.87A3.25,3.25,0,0,1,598,231.6ZM595.7,226l2.44,3.32-.2.29a1.94,1.94,0,0,0-.44,1,2.21,2.21,0,0,0,1.72-.36,2.18,2.18,0,0,0,1-1.23.32.32,0,0,0,0-.25,1.93,1.93,0,0,0-.93,0l-.32.07-2.27-3.49C596.33,225.58,596,225.79,595.7,226Z" fill="#005e94" data-secondary="true"/>
<path d="M562.26,227A3.09,3.09,0,0,1,560,225.5a3.47,3.47,0,0,1-.58-2.5,1.18,1.18,0,0,1,.46-.81c.59-.4,1.46,0,1.93.31l5.58-4.08.28.43c.43.68.91,1.36,1.41,2l.33.41-5.93,3.8c.07.55.09,1.37-.43,1.73A1.26,1.26,0,0,1,562.26,227Zm-1.85-4h0a2.36,2.36,0,0,0,.38,2c.63.92,1.44,1.23,1.71,1a2.2,2.2,0,0,0,0-1.08l-.07-.32L568,221c-.3-.4-.59-.81-.86-1.22l-5.32,3.89-.28-.21A2.45,2.45,0,0,0,560.41,223Z" fill="#005e94" data-secondary="true"/>
<path d="M586.41,238.3a3.18,3.18,0,0,1-2.13-.67,1.25,1.25,0,0,1-.43-.93c-.07-.66.72-1.2,1.23-1.48l-.75-6.91h1.77l1.68-.22.36,7c.47.19,1.23.61,1.27,1.24a1.33,1.33,0,0,1-.34,1,3.42,3.42,0,0,1-2.29,1Zm-1-9,.71,6.52-.31.15a2.16,2.16,0,0,0-1,.73.33.33,0,0,0,.13.26,2.52,2.52,0,0,0,1.76.4,2.47,2.47,0,0,0,1.63-.65.4.4,0,0,0,.12-.27,2,2,0,0,0-.92-.52l-.32-.11-.33-6.6-.72.09Z" fill="#005e94" data-secondary="true"/>
<path d="M574.41,233.5a3.73,3.73,0,0,1-1.55-.39c-1.36-.67-2.06-1.77-1.67-2.62.29-.54,1-.62,1.67-.63l1.81-4.11.46.23c.66.35,1.28.64,1.89.9l.48.19-2,4.06a1.68,1.68,0,0,1,.43,1.57,1.27,1.27,0,0,1-.78.68A2.08,2.08,0,0,1,574.41,233.5Zm-1.24-2.68A2.6,2.6,0,0,0,572,231c-.08.2.32.84,1.25,1.29a2.14,2.14,0,0,0,1.52.24.4.4,0,0,0,.23-.18,2.26,2.26,0,0,0-.49-.8l-.21-.24,1.85-3.7c-.34-.15-.69-.31-1-.49l-1.65,3.75Z" fill="#005e94" data-secondary="true"/>
<path d="M584.45,229.33A20.62,20.62,0,1,1,588,229,21,21,0,0,1,584.45,229.33Zm.06-40.24a19.64,19.64,0,1,0,19.34,16.33A19.67,19.67,0,0,0,584.51,189.09Z" fill="#005e94" data-secondary="true"/>
<path d="M582.77,196.12a2.54,2.54,0,0,1-1.56-.53,2.57,2.57,0,0,1-1-1.7,2.6,2.6,0,0,1,.51-1.89,2.57,2.57,0,0,1,1.7-1h.13a2.56,2.56,0,0,1,2.23,4.11,2.57,2.57,0,0,1-1.7,1Zm0-4.16h-.15a1.6,1.6,0,0,0-1.15.62,1.59,1.59,0,0,0,.29,2.24,1.62,1.62,0,0,0,1.18.32,1.65,1.65,0,0,0,1.06-.61,1.62,1.62,0,0,0,.32-1.18h0A1.55,1.55,0,0,0,582.81,192Z" fill="#005e94" data-secondary="true"/>
<path d="M571.57,213a2.56,2.56,0,0,1-.33-5.1h.13a2.51,2.51,0,0,1,2.74,2.22A2.57,2.57,0,0,1,571.9,213Zm0-4.16h-.14a1.62,1.62,0,0,0-1.47,1.8,1.6,1.6,0,0,0,3.17-.42h0A1.56,1.56,0,0,0,571.6,208.86Z" fill="#005e94" data-secondary="true"/>
<path d="M580.4,207.13a2.56,2.56,0,0,1-2.54-2.26,2.56,2.56,0,1,1,5.09-.59h0a2.53,2.53,0,0,1-.53,1.88,2.5,2.5,0,0,1-1.71,1A1.51,1.51,0,0,1,580.4,207.13Zm0-4.16h-.15a1.62,1.62,0,0,0-1.14.6,1.6,1.6,0,0,0,1.44,2.58,1.62,1.62,0,0,0,1.4-1.77v-.06A1.56,1.56,0,0,0,580.44,203Z" fill="#005e94" data-secondary="true"/>
<path d="M577,224.66a2.56,2.56,0,0,1-.32-5.09l.13,0a2.52,2.52,0,0,1,2.73,2.23,2.56,2.56,0,0,1-2.2,2.86A2,2,0,0,1,577,224.66Zm0-4.16h-.14a1.66,1.66,0,0,0-1.15.62,1.6,1.6,0,1,0,2.85.77h0A1.58,1.58,0,0,0,577,220.5Z" fill="#005e94" data-secondary="true"/>
<path d="M598.8,214.61a2.55,2.55,0,0,1-1.56-.54,2.56,2.56,0,0,1,1.23-4.56h.13a2.45,2.45,0,0,1,1.82.52,2.51,2.51,0,0,1,.92,1.67l-.48.09.48-.06a2.55,2.55,0,0,1-2.21,2.86Zm-.26-4.62.06.47a1.58,1.58,0,0,0-1.06.61,1.62,1.62,0,0,0-.32,1.18,1.58,1.58,0,0,0,.61,1.06,1.6,1.6,0,0,0,2.56-1.47v0l.47,0-.48,0a1.46,1.46,0,0,0-.56-1,1.48,1.48,0,0,0-1.12-.33Z" fill="#005e94" data-secondary="true"/>
<path d="M584.24,218.47a2.56,2.56,0,0,1-2-4.12,2.49,2.49,0,0,1,1.69-1l.13,0a2.49,2.49,0,0,1,2.74,2.2l-.48.09.48-.07a2.56,2.56,0,0,1-2.21,2.87A1.83,1.83,0,0,1,584.24,218.47Zm-.26-4.62.06.48a1.58,1.58,0,0,0-1.06.61,1.6,1.6,0,1,0,2.85.77v0l.47,0-.48,0a1.51,1.51,0,0,0-1.68-1.35Z" fill="#005e94" data-secondary="true"/>
<path d="M590.3,210.07A2.56,2.56,0,0,1,590,205l.14,0a2.49,2.49,0,0,1,2.73,2.2l-.48.09.48-.06a2.55,2.55,0,0,1-2.21,2.86A1.83,1.83,0,0,1,590.3,210.07Zm-.26-4.62.06.48a1.6,1.6,0,1,0,1.79,1.38v0l.47,0-.48,0a1.51,1.51,0,0,0-1.68-1.36Z" fill="#005e94" data-secondary="true"/>
<path d="M594.56,200.51a2.56,2.56,0,0,1-.33-5.1h.13a2.52,2.52,0,0,1,2.74,2.22,2.56,2.56,0,0,1-2.21,2.87Zm0-4.16h-.15a1.63,1.63,0,0,0-1.15.61,1.57,1.57,0,0,0-.32,1.18,1.6,1.6,0,0,0,1.79,1.38,1.58,1.58,0,0,0,1.37-1.79h0A1.55,1.55,0,0,0,594.6,196.35Z" fill="#005e94" data-secondary="true"/>
<path d="M591.67,224.48a2.57,2.57,0,0,1-1.56-.54,2.56,2.56,0,0,1,1.24-4.56h.13a2.44,2.44,0,0,1,1.81.52,2.47,2.47,0,0,1,.92,1.67l-.47.09.47-.06a2.53,2.53,0,0,1-.51,1.89,2.49,2.49,0,0,1-1.69,1Zm-.26-4.62.06.47a1.6,1.6,0,0,0-1.38,1.79,1.58,1.58,0,0,0,.61,1.06,1.6,1.6,0,0,0,2.56-1.47v0l.48,0-.48,0a1.51,1.51,0,0,0-.57-1,1.47,1.47,0,0,0-1.12-.33Z" fill="#005e94" data-secondary="true"/>
<path d="M572.74,200.46a2.56,2.56,0,0,1-.33-5.09l.13,0a2.51,2.51,0,0,1,2.74,2.22h0a2.56,2.56,0,0,1-2.21,2.86A1.83,1.83,0,0,1,572.74,200.46Zm.06-4.16h-.17a1.64,1.64,0,0,0-1.15.62,1.59,1.59,0,0,0,.29,2.24,1.59,1.59,0,0,0,2.56-1.41v-.13A1.53,1.53,0,0,0,572.8,196.3Z" fill="#005e94" data-secondary="true"/>
<path d="M596.46,329.07h-.06l-66.17-7.62a.51.51,0,0,1-.4-.32.49.49,0,0,1,.1-.49c.13-.13,12.06-13.17,11-42.86a.45.45,0,0,1,.13-.35.39.39,0,0,1,.35-.14l66.28.83a.49.49,0,0,1,.34.15.47.47,0,0,1,.13.35c-.07,1.61-1.82,39.52-11.3,50.29A.48.48,0,0,1,596.46,329.07Zm-65.24-8.48,65,7.49c8.55-10.11,10.64-44.46,10.88-49l-65.28-.83C542.71,304.19,533.65,317.51,531.22,320.59Z" fill="#005e94" data-secondary="true"/>
<path d="M610.92,324h-.07l-10.44-1.42a.46.46,0,0,1-.41-.54.47.47,0,0,1,.54-.41L610.4,323l-3.24-44.36a.48.48,0,0,1,.45-.52.49.49,0,0,1,.51.45l3.28,44.95a.5.5,0,0,1-.15.38A.46.46,0,0,1,610.92,324Z" fill="#005e94" data-secondary="true"/>
<path d="M594.16,320.54h0L539.4,314.9a.47.47,0,0,1-.38-.27.45.45,0,0,1,0-.46c.07-.13,7.91-13.25,7.6-24.89a.51.51,0,0,1,.15-.36.5.5,0,0,1,.35-.13l53.8,2.15a.46.46,0,0,1,.34.16.48.48,0,0,1,.12.36c-.08.85-2,21-6.83,28.85A.45.45,0,0,1,594.16,320.54ZM540.23,314l53.68,5.53c4.22-7.13,6.16-24.49,6.48-27.67l-52.78-2.11C547.68,300.05,541.79,311.24,540.23,314Z" fill="#005e94" data-secondary="true"/>
<path d="M544.67,315.45a.46.46,0,0,1-.27-.09.47.47,0,0,1-.12-.67c5.36-7.67,7.54-25.08,7.56-25.25a.48.48,0,1,1,1,.12c-.09.72-2.23,17.81-7.73,25.68A.49.49,0,0,1,544.67,315.45Z" fill="#005e94" data-secondary="true"/>
<path d="M551.83,316.2a.49.49,0,0,1-.4-.76c5.38-7.67,7.55-25.09,7.57-25.26a.48.48,0,0,1,.53-.42.47.47,0,0,1,.42.53c-.08.73-2.21,17.83-7.73,25.7A.46.46,0,0,1,551.83,316.2Z" fill="#005e94" data-secondary="true"/>
<path d="M558.29,316.3a.46.46,0,0,1-.27-.09.48.48,0,0,1-.12-.67c5.38-7.67,7.56-25.09,7.58-25.26a.47.47,0,0,1,.53-.42.47.47,0,0,1,.42.53c-.09.73-2.23,17.83-7.74,25.7A.49.49,0,0,1,558.29,316.3Z" fill="#005e94" data-secondary="true"/>
<path d="M564.12,316.49a.46.46,0,0,1-.27-.09.48.48,0,0,1-.12-.67c5.38-7.69,7.54-25.09,7.56-25.27a.48.48,0,0,1,1,.12c-.09.72-2.22,17.81-7.73,25.7A.52.52,0,0,1,564.12,316.49Z" fill="#005e94" data-secondary="true"/>
<path d="M570.3,317a.49.49,0,0,1-.28-.09.48.48,0,0,1-.11-.67c5.38-7.68,7.54-25.07,7.56-25.25a.49.49,0,0,1,.53-.42.47.47,0,0,1,.42.54c-.08.72-2.21,17.81-7.73,25.68A.46.46,0,0,1,570.3,317Z" fill="#005e94" data-secondary="true"/>
<path d="M576.23,318.42a.49.49,0,0,1-.28-.09.48.48,0,0,1-.11-.67c5.37-7.67,7.47-26,7.49-26.22a.48.48,0,0,1,.53-.43.48.48,0,0,1,.42.53c-.08.77-2.14,18.8-7.66,26.67A.46.46,0,0,1,576.23,318.42Z" fill="#005e94" data-secondary="true"/>
<path d="M581.42,318.65a.46.46,0,0,1-.27-.09.48.48,0,0,1-.12-.67c5.37-7.67,7.76-26.39,7.78-26.58a.48.48,0,0,1,1,.12c-.1.78-2.45,19.14-7.95,27A.51.51,0,0,1,581.42,318.65Z" fill="#005e94" data-secondary="true"/>
<path d="M587.92,319.1a.49.49,0,0,1-.4-.76c5.32-7.67,6.8-26.28,6.81-26.47a.51.51,0,0,1,.52-.44.47.47,0,0,1,.44.51c-.06.78-1.51,19.07-7,26.95A.46.46,0,0,1,587.92,319.1Z" fill="#005e94" data-secondary="true"/>
<path d="M599.82,298.45h0l-52.95-3.84a.48.48,0,0,1,.07-1l53,3.84a.48.48,0,0,1,0,1Z" fill="#005e94" data-secondary="true"/>
<path d="M599,304.32h0l-53.32-4.46a.48.48,0,0,1-.44-.52.49.49,0,0,1,.52-.44L599,303.36a.49.49,0,0,1,.44.52A.48.48,0,0,1,599,304.32Z" fill="#005e94" data-secondary="true"/>
<path d="M597.54,310.25h0l-53.38-5.09a.48.48,0,0,1,.09-1l53.38,5.09a.48.48,0,0,1,.43.53A.47.47,0,0,1,597.54,310.25Z" fill="#005e94" data-secondary="true"/>
<path d="M595.71,315.56h-.05l-53.4-5.41a.48.48,0,0,1,.09-1l53.41,5.41a.5.5,0,0,1,.43.53A.49.49,0,0,1,595.71,315.56Z" fill="#005e94" data-secondary="true"/>
<path d="M551.33,282a4.37,4.37,0,1,1,4.28-5.3,5.43,5.43,0,0,1,.09.56.48.48,0,0,1-.44.52.49.49,0,0,1-.52-.44,2.24,2.24,0,0,0-.07-.44,3.41,3.41,0,0,0-4.06-2.61,3.41,3.41,0,0,0,1.45,6.67.48.48,0,1,1,.2.94A4.2,4.2,0,0,1,551.33,282Z" fill="#005e94" data-secondary="true"/>
<path d="M559.11,282.35a4.38,4.38,0,0,1-.92-8.66,4.38,4.38,0,0,1,5.2,3.35,5.62,5.62,0,0,1,.09.57.48.48,0,0,1-.44.52.49.49,0,0,1-.52-.44,3.11,3.11,0,0,0-.07-.44,3.42,3.42,0,0,0-4.06-2.62,3.42,3.42,0,0,0,1.45,6.68.48.48,0,0,1,.57.37.49.49,0,0,1-.37.57A4.9,4.9,0,0,1,559.11,282.35Z" fill="#005e94" data-secondary="true"/>
<path d="M566.88,282.69a4.35,4.35,0,0,1-2.36-.69,4.38,4.38,0,0,1-1.31-6.05,4.38,4.38,0,0,1,8,1.44,3.72,3.72,0,0,1,.08.57.48.48,0,0,1-.44.52.5.5,0,0,1-.51-.44c0-.15,0-.3-.07-.45a3.42,3.42,0,0,0-4.06-2.61,3.37,3.37,0,0,0-2.15,1.49,3.41,3.41,0,0,0,1,4.72,3.38,3.38,0,0,0,2.57.46.48.48,0,0,1,.57.37.47.47,0,0,1-.36.57A4.29,4.29,0,0,1,566.88,282.69Z" fill="#005e94" data-secondary="true"/>
<path d="M574.67,283a4.38,4.38,0,1,1,4.28-5.3,5,5,0,0,1,.08.56.48.48,0,0,1-.44.52.49.49,0,0,1-.52-.44,3.32,3.32,0,0,0-.06-.44,3.42,3.42,0,1,0-2.62,4.06.47.47,0,0,1,.57.37.48.48,0,0,1-.37.57A4.18,4.18,0,0,1,574.67,283Z" fill="#005e94" data-secondary="true"/>
<path d="M582.45,283.39a4.38,4.38,0,1,1,4.27-5.31,3.75,3.75,0,0,1,.09.57.49.49,0,0,1-.44.52.49.49,0,0,1-.52-.44,2.13,2.13,0,0,0-.07-.44,3.41,3.41,0,1,0-2.61,4.06.48.48,0,1,1,.2.94A4.88,4.88,0,0,1,582.45,283.39Z" fill="#005e94" data-secondary="true"/>
<path d="M590.22,283.73a4.37,4.37,0,1,1,4.28-5.3,5.62,5.62,0,0,1,.09.57.49.49,0,0,1-.44.52.5.5,0,0,1-.52-.44,3.5,3.5,0,0,0-.07-.45,3.41,3.41,0,1,0-5.19,3.6,3.44,3.44,0,0,0,2.58.46.49.49,0,0,1,.57.37.48.48,0,0,1-.37.57A4.2,4.2,0,0,1,590.22,283.73Z" fill="#005e94" data-secondary="true"/>
<path d="M598,284.08a4.38,4.38,0,1,1,2.37-8.06,4.32,4.32,0,0,1,1.91,2.76,3.43,3.43,0,0,1,.08.56.48.48,0,1,1-1,.08c0-.15,0-.29-.07-.44a3.37,3.37,0,0,0-1.49-2.15,3.42,3.42,0,1,0-1.13,6.21.48.48,0,1,1,.21.94A4.2,4.2,0,0,1,598,284.08Z" fill="#005e94" data-secondary="true"/>
<path d="M586.67,443.36c-4.23,0-9.5-1.42-16-5.37-7.42-4.52-15.54-12.72-24-22.87-4.23,3.32-10.37,4.45-20.13,1.88-.54.08-2.66.21-5.62-1.73-6.08-4-14.69-15.91-21.25-50.09a117.77,117.77,0,0,0-7.29-24c-10.1-13.1-19.24-23.06-26.56-26.16-13.24-5.62-41.88-6.09-71.25-1.18C374,317.31,335.28,326.46,307.81,349,282.3,370,249.7,378,222.72,369.84,201,363.28,185.05,347,178,323.88l-.32-1.05c-17.26-56.09-26.76-87,17.43-109.79,47.37-24.44,85.39,3.79,103.84,22.79,9.08,9.36,23.78,11,39.3,4.29,14.81-6.37,29.48-20.83,28.85-36.16-.43-10.55-8.47-25.34-17-41-14.12-26-30.12-55.45-21.5-80,6.25-17.77,21.7-29,40.34-29.21h.62c20.13,0,38,12.9,45.7,33,9.12,23.89,8.62,41.48,8.17,57-.35,12.31-.69,23.93,3.64,37.13,9.81,29.9,45.53,56.89,76.86,46.89,20.38-6.5,27-18.77,37.05-37.35,5.37-9.93,11.46-21.19,21-34.42a53.38,53.38,0,0,1,5.32-6.27c-17.73-2.15-24.82-12.28-27.28-52.55-2-33.06-7-49.74-17-57.57-7.84-6.12-19.09-7.26-37.6-3.79-22.82,4.26-30,15.37-35.82,24.3-4.29,6.61-8,12.31-16.77,13-8.29.67-11.85-5.44-16.35-13.18-6.58-11.3-15.6-26.77-45.76-28.84-25.36-1.74-49.23,6.31-65.48,22.08a58.26,58.26,0,0,0-12.77,17.83c12.92,3.21,23,12,25.06,22.56,1.79,9.08-.67,13.22-3,15.09-2.9,2.28-7.36,2.38-11.94.26-6.82-3.15-13.89-11.36-14.32-22.58a35.15,35.15,0,0,1,2.92-14.66,43.26,43.26,0,0,0-6.3-.91c-21.21-1.52-38.62,11.06-46.58,33.67-17.11,48.63,13.2,88.83,13.51,89.23l-.77.59c-.31-.41-30.94-41-13.65-90.14C246.9,77,268.19,68.66,284.9,69.86a43.27,43.27,0,0,1,6.62,1,59.15,59.15,0,0,1,13.05-18.3c16.45-16,40.58-24.11,66.21-22.35,30.68,2.1,39.84,17.83,46.53,29.32,4.5,7.73,7.75,13.32,15.45,12.7,8.29-.67,11.71-5.93,16-12.59,5.9-9.08,13.23-20.38,36.46-24.72,18.8-3.51,30.28-2.33,38.36,4,10.28,8,15.31,24.9,17.36,58.27,2.44,39.95,9.5,49.72,27.23,51.71,14.37-13.86,36.14-19.61,56.95-14.4,23.82,6,40.09,24.51,43.52,49.62,4.83,35.39-13.73,49.82-28.64,61.42-9.08,7.06-16.93,13.16-17,22.34-.06,9.77,5.58,12,12.1,14.61,9.26,3.68,19.76,7.85,14.35,35.7-6.07,31.15-24.19,34.57-43.38,38.19a128.27,128.27,0,0,0-19.81,4.86c5.06,3.59,9.31,8.74,12.34,16.34,10.5,26.34,9.84,52.45-1.57,62.1A15.67,15.67,0,0,1,586.67,443.36Zm-39.23-28.85c8.37,10.07,16.42,18.2,23.74,22.66,10.4,6.32,19.14,6.92,25.27,1.73,10.93-9.23,11.48-35.46,1.29-61-3-7.65-7.38-12.76-12.58-16.28a55.89,55.89,0,0,0-9,4.35c-12.12,7.3-16.06,19.49-19.54,30.23C554.24,403.57,552,410.41,547.44,414.51ZM526.6,416l.11,0c9.43,2.51,15.33,1.52,19.39-1.65-10.19-12.33-20.84-27.44-31.29-42.27-6.93-9.84-13.72-19.47-20.16-28a118.76,118.76,0,0,1,6,20.86c6.47,33.72,14.85,45.48,20.75,49.41,3,2,5.08,1.63,5.1,1.63Zm-33.35-75.29c7.09,9.19,14.63,19.89,22.35,30.84,10.44,14.81,21.08,29.9,31.23,42.21,4.35-3.89,6.48-10.48,8.88-17.88,3.53-10.9,7.53-23.26,19.95-30.75a55.8,55.8,0,0,1,8.51-4.18c-8.45-5.31-19-6.73-29.94-8.21-17.9-2.42-36.41-4.92-49-24-8.52-12.86-11.62-21.73-10-28.76,2.06-9.24,11.9-15.23,26.78-24.3,7.33-4.46,15.64-9.52,24.89-16.07,22.55-16,39.75-19.22,54.92-22.09,13.41-2.54,25-4.72,37.12-15.17,9.6-8.26,11.88-21.34,6.28-35.89-6.9-17.9-26.42-36.62-49.26-36.62h-1l-5.24.14c-8.28.23-15.26.43-21.12-.15a52.72,52.72,0,0,0-5.76,6.69c-9.54,13.19-15.61,24.41-21,34.32-10.15,18.78-16.86,31.18-37.61,37.81a46.2,46.2,0,0,1-14.05,2.16c-27.77,0-55.51-23.76-64-49.67-4.38-13.36-4.05-25.06-3.69-37.45.44-15.43.94-32.92-8.1-56.63-7.62-19.94-25.44-32.65-45.42-32.4-18.22.25-33.33,11.19-39.44,28.57-8.48,24.12,7.41,53.38,21.44,79.19,8.94,16.45,16.66,30.66,17.1,41.43.65,15.76-14.31,30.59-29.43,37.08-15.91,6.84-31,5.15-40.37-4.5C280,217.69,242.32,189.74,195.5,213.89,152,236.32,161.44,267,178.55,322.55l.32,1.05c7,22.76,22.68,38.86,44.13,45.31,26.68,8,58.94.13,84.2-20.62,46.28-38,133.18-45.09,159-34.13,6.89,2.92,15.28,11.7,24.53,23.38C483.08,321.29,471.81,308,458,299.3c-16-10.06-34.22-13.11-51.3-8.59l-.24-.93c17.34-4.59,35.82-1.49,52.05,8.71C473.48,307.87,485.51,322.68,493.25,340.73Zm102.64-191.8c23.27,0,43.14,19,50.16,37.25,5.76,14.95,3.37,28.42-6.55,37-12.33,10.61-24,12.82-37.57,15.38-15.08,2.85-32.16,6.08-54.54,21.93-9.29,6.58-17.61,11.64-24.95,16.11-14.67,8.94-24.37,14.85-26.34,23.69-1.51,6.75,1.55,15.39,9.91,28,12.37,18.68,30.66,21.15,48.35,23.54,11.32,1.53,22.27,3,31,8.72,6.82-2.53,13.79-3.85,20.61-5.13,19.68-3.71,36.67-6.92,42.61-37.44,5.27-27.06-4.4-30.9-13.75-34.62-6.57-2.61-12.78-5.08-12.71-15.51.06-9.64,8.08-15.87,17.37-23.09,14.71-11.45,33-25.69,28.26-60.53-3.37-24.71-19.37-43-42.8-48.82-20.2-5.06-41.31.37-55.45,13.6a184,184,0,0,0,20.15.1l5.24-.14ZM292.08,72a34.47,34.47,0,0,0-2.9,14.4c.42,10.82,7.21,18.72,13.76,21.75,4.24,2,8.33,1.91,10.94-.15,3.07-2.41,4-7.43,2.7-14.14C314.55,83.53,304.72,75,292.08,72Z" fill="#8a0063" data-primary="true"/>
</g>
<path d="M277,516.6s1.22-11.9,5.49-33.57l22-5.85,9.36-.46-14.09,40.72S286.12,513.85,277,516.6Z" opacity="0.2"/>
<path d="M322.94,579.42l9.81-20.21s-5.14-7.6-40.66-14.38L288.35,568S305.18,576.38,322.94,579.42Z" fill="#f9b499"/>
<path d="M272.22,541.33l-4.44,24.07s10.75,9.82,19.17,9.82l5.14-30.39Z" fill="#f9b499"/>
<path d="M261.3,592.41l6.48-27L287,575.22l-4,24.54L262.21,610.6s-12.5-8-11.82-7.28S261.3,592.41,261.3,592.41Z" fill="#e6e7e8"/>
<path d="M277,516.6s1.22-11.9,5.49-33.57l22-5.85,9.36-.46-14.09,40.72S286.12,513.85,277,516.6Z" fill="#005e94" data-secondary="true"/>
<path d="M299.85,516.9,313.05,476,375,465s1.29,14.84-2.11,22.74L345.49,534Z" fill="#005e94" data-secondary="true"/>
<path d="M408.94,265.61s-4.67-14.08,7.72-18.52c0,0,41.13-15.19,49.54,4.21,0,0,19.4,41.13,18,62.86,0,0-2.57,40.9-2.81,51.65,0,0,10.29,18.7.47,37.16l-6.08,13.56L446.57,389l-2.34-10.52s-11.21-7.24-12.85-25l-4-17.76-14.73-57-10.05-5.84Z" fill="#005e94" data-secondary="true"/>
<path d="M394.54,378l4.85,15.54-13.59,4.85,16.24,12,39.84-21s-17.61-18.3-21.19-37.19l-5.76-11.61Z" fill="#f9b499"/>
<path d="M399.39,393.54l8.68-10.6a57,57,0,0,0,12.62-30.72h0l-5.76-11.61L394.54,378Z" fill="#f7a48b"/>
<path d="M392.42,382.67c-16.09,3.66-33.17-11.15-38.17-33.09s4-42.69,20.07-46.36c12.46-2.83,25.52,5.42,33.09,19.48a54,54,0,0,1,5.08,13.61C417.48,358.25,408.5,379,392.42,382.67Z" fill="#f9b499"/>
<path d="M402.63,272.8s2.63-7,6.31-7.19c3.12-.15,17.63,5.22,21.41,15a9.15,9.15,0,0,1-1.76,9.31,15.54,15.54,0,0,1-4.57,3.7Z" fill="#8a0063" data-primary="true"/>
<path d="M316.1,374s8.35,9,18.57,9.28l-16.09,50.75,50.74-32.49s10.36-5.1,16.48-3.17L411.41,417l65.89-4s12.62,23.14,4.21,69.41l-7.36,62.75L430,547.64,387.21,463.5l-82.73,13.68S300.62,494,281,488c0,0-14-6.31-10.87-17.88,0,0,5.61-24.18,13.67-37.51Z" fill="#8a0063" data-primary="true"/>
<path d="M465,639.84s-8.41,9.46-71.51,4.55c0,0-32.95.71-38.56-13.32L327.61,568l18.58-31.2-.7-2.8,27.35-46.28s3.85-8.76-1.06-15.07l18.58-7,42.42,81.68.21,0c2.92-.19,36.46-2.42,41.16-2.09C474.15,545.18,505.35,603.73,465,639.84Z" fill="#005e94" data-secondary="true"/>
<path d="M368.28,603.38l-1.75.52-20.34-55.21s-16.82,21.21-13.49,31.2L327.61,568l18.58-31.2-.7-2.8,28.22-48.21s4.91,13.5-2.63,24.54c0,0-20.15,37.34-18.05,43.3C353,553.6,358.64,582.87,368.28,603.38Z" opacity="0.2"/>
<path d="M465,639.84s-8.41,9.46-71.51,4.55l32.15-11a35,35,0,0,0,11.18-6.29l25.08-21a9.47,9.47,0,0,0,3.36-6.63l1-15.25c-9.75-3.59-16.31-12.57-19.14-17.14a20.78,20.78,0,0,0-3.45-4.26c-5.06-4.8-10.89-15.58-10.89-15.58l.21,0,41.16-2.09S505.35,603.73,465,639.84Z" opacity="0.2"/>
<path d="M449.26,554.65l14.72-2,4,6.78-1.76,19.63S455.33,571.59,449.26,554.65Z" opacity="0.2"/>
<path d="M442.36,555.35l5.26-.35s5.85,18.46,18.47,25.71l-.12,2S454.52,580,442.36,555.35Z" opacity="0.2"/>
<path d="M276.65,516.54l-3.41,1.18a1.94,1.94,0,0,0-1.29,1.63L269.64,541l20.44,3.36,6.11-28.08A47.39,47.39,0,0,0,276.65,516.54Z" fill="#005e94" data-secondary="true"/>
<path d="M276.65,516.54l-3.41,1.18a1.94,1.94,0,0,0-1.29,1.63L269.64,541l20.44,3.36,6.11-28.08A47.39,47.39,0,0,0,276.65,516.54Z" opacity="0.4"/>
<path d="M332.75,559.21s-5.84-8.18-42.67-14.84l6.11-28.08,3.66.61S332.17,514,345.49,534l.7,2.8Z" fill="#005e94" data-secondary="true"/>
<path d="M332.75,559.21s-5.84-8.18-42.67-14.84l6.11-28.08,3.66.61S332.17,514,345.49,534l.7,2.8Z" opacity="0.3"/>
<path d="M307.75,610.74l15.19-31.32A135.28,135.28,0,0,1,288.35,568L283,599.76S294.19,607.94,307.75,610.74Z" fill="#e6e7e8"/>
<path d="M186.29,640.37S182.9,625,199,621.57a67.25,67.25,0,0,0,9.32-2.64c11.07-4.1,34.89-13.34,44.84-20.38l1.44,1.66s11.89,8.63,24.77,11c0,0,3.57,19.86,3.11,28.28Z" fill="#8a0063" data-primary="true"/>
<path d="M186.29,640.37S182.9,625,199,621.57a67.25,67.25,0,0,0,9.32-2.64c11.07-4.1,34.89-13.34,44.84-20.38l1.44,1.66s11.89,8.63,24.77,11c0,0,3.57,19.86,3.11,28.28Z" opacity="0.2"/>
<path d="M265.85,629.69,281.08,624a62.56,62.56,0,0,1,1.14,21.37H185.61v-5l72.06-.68S259.26,631.74,265.85,629.69Z" fill="#005e94" data-secondary="true"/>
<path d="M265.85,629.69,281.08,624a62.56,62.56,0,0,1,1.14,21.37H185.61v-5l72.06-.68S259.26,631.74,265.85,629.69Z" opacity="0.2"/>
<path d="M212.43,617.42s1.82,6.82,15.23,3.18c0,0,31.6-9.55,34.1-16.59,0,0,7.05-8.19,1.14-11.14L255.62,589l-2.5,9.55S242.44,606.51,212.43,617.42Z" fill="#005e94" data-secondary="true"/>
<path d="M212.43,617.42s1.82,6.82,15.23,3.18c0,0,31.6-9.55,34.1-16.59,0,0,7.05-8.19,1.14-11.14L255.62,589l-2.5,9.55S242.44,606.51,212.43,617.42Z" opacity="0.2"/>
<path d="M407.44,323.23c-3.34-.75-2.23,4.81-2.23,4.81,1.86,7-7,6.67-7,6.67-6.3,0-10.37,7-10.37,7-3,8.52-25.2,3.7-25.2,3.7-8.89-.36-8.35,4.13-8.35,4.13-5-21.94,4-42.69,20.07-46.36,12.46-2.83,25.52,5.42,33.09,19.48Z" fill="#f7a48b"/>
<path d="M356.33,318.39s-13.61,8.25-19.39-8.25c0,0-4.54-19,14.44-25.58,0,0,53.22-28.88,68.9-2.89,0,0,22.69,26,12.38,50.74a34,34,0,0,1-12,19.81l-4.53-8.67-8.62-17.47L395,314.32a15.61,15.61,0,0,0-15.48-3.45Z" fill="#005e94" data-secondary="true"/>
<ellipse cx="413.68" cy="332.62" rx="7.43" ry="13" fill="#f9b499"/>
<path d="M316.1,374l8.33-13,6.3-25.57s-.74-11.11,5.56-14.82l9.64-7.41L356.3,308s23.72-6.67,19.64.37l-8.89,5.19,20,2.1a1.24,1.24,0,0,1,1,1.67c-.67,1.62-3.52,3.88-14.36,3.64l-8.15,2.22s5.92-1.11,10.74.74l8.09.9a1.54,1.54,0,0,1,.82,2.73c-1.59,1.21-5.34,2-14.1.08A31.11,31.11,0,0,1,360,331.75s11.85-.37,14.82,1.11l10.34,1.88a1.55,1.55,0,0,1,.89,2.57c-1.61,1.72-5.82,3.49-16.79,1.48L358,342.06a4.51,4.51,0,0,0-3.2,3.57c-1.31,7.65-6,28.46-18.11,27.25l-2,10.42S324.81,383.31,316.1,374Z" fill="#f9b499"/>
<line x1="347.41" y1="319.52" x2="367.05" y2="313.59" fill="none" stroke="#f7a48b" stroke-miterlimit="10"/>
<line x1="352.97" y1="325.08" x2="365.57" y2="323.22" fill="none" stroke="#f7a48b" stroke-miterlimit="10"/>
<line x1="352.6" y1="332.86" x2="360.01" y2="331.75" fill="none" stroke="#f7a48b" stroke-miterlimit="10"/>
<path d="M275.22,439.23l66.25.63,100.41-50.45s31.38-6.12,34.7,21.17c0,0,3.88,23.48-16.92,31.89L367.75,477.7a62.13,62.13,0,0,1-27.34,4.21l-71.31-8.47A7.61,7.61,0,0,1,263,468.8c-2.26-5.44-4.09-15.55,5.77-26.68A8.61,8.61,0,0,1,275.22,439.23Z" fill="#8a0063" data-primary="true"/>
<path d="M275.22,439.23l66.25.63,100.41-50.45s31.38-6.12,34.7,21.17c0,0,3.88,23.48-16.92,31.89L367.75,477.7a62.13,62.13,0,0,1-27.34,4.21l-71.31-8.47A7.61,7.61,0,0,1,263,468.8c-2.26-5.44-4.09-15.55,5.77-26.68A8.61,8.61,0,0,1,275.22,439.23Z" opacity="0.2"/>
<path d="M355.66,443.87c-9.82-3.85-14.19-4-14.19-4s11-2.65,20.5,1.56" fill="none" stroke="#000" stroke-miterlimit="10" opacity="0.2"/>
<line x1="292.21" y1="545.85" x2="288.35" y2="567.97" fill="none" stroke="#f7a48b" stroke-miterlimit="10"/>
<path d="M214.71,639.92s-3.4-15.39,12.66-18.81a66.44,66.44,0,0,0,9.32-2.63c11.07-4.11,34.89-13.35,44.85-20.38l1.43,1.66s11.89,8.62,24.78,11c0,0,3.56,19.86,3.11,28.27Z" fill="#8a0063" data-primary="true"/>
<path d="M294.26,629.24l15.23-5.69a62.6,62.6,0,0,1,1.14,21.37H214v-5l72-.68S287.67,631.28,294.26,629.24Z" fill="#005e94" data-secondary="true"/>
<path d="M240.85,617s1.82,6.82,15.23,3.18c0,0,31.59-9.54,34.09-16.59,0,0,7.05-8.18,1.14-11.14L284,588.55l-2.5,9.55S270.85,606.05,240.85,617Z" fill="#005e94" data-secondary="true"/>
</svg>