 <!DOCTYPE svg PUBLIC "-//W3C//DTD SVG 1.1//EN" "http://www.w3.org/Graphics/SVG/1.1/DTD/svg11.dtd">
<svg id="aae57933-dbdf-445d-91b8-fc3ccac66783" data-name="Layer 1" xmlns="http://www.w3.org/2000/svg" width="865.76" height="682.89" viewBox="0 0 865.76 682.89">
<defs>
<style xmlns="http://www.w3.org/1999/xhtml">*, ::after, ::before { box-sizing: border-box; }
img, svg { vertical-align: middle; }
</style>
<style xmlns="http://www.w3.org/1999/xhtml">*, body, html { -webkit-font-smoothing: antialiased; }
img, svg { max-width: 100%; }
</style>
</defs>
<path id="e0c7d8b4-4e14-4fb6-99d7-6555cc8950c3" data-name="SVGID" d="M196.16,115.1S-42,236.66,26.3,391.53c0,0,45,174.86,319.74,126.56l403-40s98.47-1.19,85.12-117.72c-4.58-40-28-75.15-62.22-96.33-18.79-11.63-37.24-28.6-39.44-51.09a27.84,27.84,0,0,0-.45-3c-3.42-15.55-34.67-134.18-199.49-171.5C532.55,38.49,394.33-13.13,196.16,115.1Z" fill="#8a0063" data-primary="true"/>
<g opacity="0.7" style="isolation:isolate">
<path id="fe2a4ad0-1df2-498f-b77f-3e4534442276" data-name="SVGID" d="M196.16,115.1S-42,236.66,26.3,391.53c0,0,45,174.86,319.74,126.56l403-40s98.47-1.19,85.12-117.72c-4.58-40-28-75.15-62.22-96.33-18.79-11.63-37.24-28.6-39.44-51.09a27.84,27.84,0,0,0-.45-3c-3.42-15.55-34.67-134.18-199.49-171.5C532.55,38.49,394.33-13.13,196.16,115.1Z" fill="#fff"/>
</g>
<ellipse cx="411.22" cy="623.12" rx="325.69" ry="29.46" fill="#8a0063" opacity="0.35" data-primary="true"/>
<path d="M387.78,397.77l39.48,6.88a8.12,8.12,0,0,1,6.56,9.68l-1.71,8.14H387.78Z" fill="#8a0063" data-primary="true"/>
<rect x="339.21" y="392.36" width="54.7" height="45.75" rx="22.87" transform="translate(-186.25 380.81) rotate(-45)" fill="#8a0063" data-primary="true"/>
<rect x="339.21" y="392.36" width="54.7" height="45.75" rx="22.87" transform="translate(-186.25 380.81) rotate(-45)" fill="#fff" opacity="0.5"/>
<polygon points="344.81 408.9 344.81 428.11 382.42 428.11 382.42 415.23 344.81 408.9" fill="#fff" opacity="0.5"/>
<path d="M620,613s9.64,7.06,27.44-4.24c0,0,14.66-5.23,16.12-17.58,0,0,.21-11.31,2.51-17.17,0,0,11.94-18.64-3.56-23.66l-16.33-1.47-1,52.77Z" fill="#e6e7e8"/>
<path d="M654.5,511s1.33,12.34-10.59,23.84l-15-17.33Z" fill="#005e94" data-secondary="true"/>
<path d="M654.5,511s1.33,12.34-10.59,23.84l-15-17.33Z" opacity="0.3"/>
<path d="M616.74,545.64l14.41,18.2a28,28,0,0,1,21.91-22.65,101.62,101.62,0,0,1-16.28-21.38L622,505.9S609.82,529.37,616.74,545.64Z" fill="#f9b499"/>
<path d="M439.12,454.8l61.05,189.44,4.07-2.07a19.26,19.26,0,0,0,9.66-22.94l-47.32-151a21,21,0,0,0-27.46-13.41Z" fill="#d1d3d4"/>
<path d="M529.79,578s9.65,13.09,57.12-23l-8.64-27.21-48.48,36.52Z" fill="#005e94" data-secondary="true"/>
<path d="M529.79,578s9.65,13.09,57.12-23l-8.64-27.21-48.48,36.52Z" opacity="0.3"/>
<path d="M529,107V302.86a15,15,0,0,1-15,15H238.67a15,15,0,0,1-15-15V107a15,15,0,0,1,15-15H514A15,15,0,0,1,529,107Z" fill="#8a0063" data-primary="true"/>
<path d="M529,107V302.86a15,15,0,0,1-15,15H238.67a15,15,0,0,1-15-15V107a15,15,0,0,1,15-15H514A15,15,0,0,1,529,107Z" fill="#fff" opacity="0.5"/>
<path d="M654.5,511c-5.43,7.15-24.59,10.29-24.59,10.29-14,4-13.17,24.32-13.17,24.32l-40-47.78C563.83,486.71,559,454.38,559,454.38c.86,44.92,31.74,98.41,31.74,98.41-5.42,5.43-25.17,3.14-26.6,3.14-23.16,0-34.32,22-34.32,22-36.9-93.1-16.09-190.88-16.09-190.88l18.1-3.68L554.1,378h20.59l1.71,4c7.33,10.19,12.94,33.07,15.56,45.34a86.15,86.15,0,0,0,12.19,29.53C622.37,484.54,654.5,511,654.5,511Z" fill="#005e94" data-secondary="true"/>
<path d="M559,454.39l-3.42-16.66s10.15-11.35,6.92-35.53c0,0,7.87,14.66,1.08,40.26a10.43,10.43,0,0,0-.33,3.34c.52,7,2.64,33.78,5.81,41.6C569,487.4,562.29,474.88,559,454.39Z" opacity="0.2"/>
<path d="M590.71,552.79c-5.42,5.43-25.17,3.14-26.6,3.14-23.16,0-34.32,22-34.32,22-36.9-93.1-16.09-190.88-16.09-190.88s-1.93,72.47,8.37,88.34h15l-16.73,9.44,5,2.55s-17.41,15.9,2.32,67.39c0,0,2.58,6,19.31-3.44C547,551.35,577.42,540.48,590.71,552.79Z" opacity="0.2"/>
<path d="M602.08,344.76c-2.91,0-5.57,3.19-7.19,5.62-.91,1.39-1.5,2.55-1.59,2.72v0a24.61,24.61,0,0,1-3.8,6.29l-.12.12a15,15,0,0,1-5.5,4.31h0l4.29,16.52c-1.89,1.21-8.69,1.58-13.48,1.68a20.08,20.08,0,0,1-7.6-1.26,11.59,11.59,0,0,0-10.88,1.08c-19.95,19.1-30.46,9.86-30.46,9.86A53.93,53.93,0,0,0,511,386.46a1.79,1.79,0,0,1-1.41-2.17l6.86-29.66c-6.82,2.8-11.82.75-15.35-2.66C496,347,494,339.18,494,339.18c-.87-13.51,9.52-16.73,9.52-16.73l.12-11.58c-1.71-24.46,13.95-25.74,13.95-25.74A33.54,33.54,0,0,0,536,278.27l17-2.37,37.33,39.69Z" fill="#8a0063" data-primary="true"/>
<path d="M597,347.64s8.19,16.91-10.89,25l-2.29-8.81a21.43,21.43,0,0,0,9.45-10.73A22.29,22.29,0,0,1,597,347.64Z" fill="#f9b499"/>
<path d="M464.15,300.14s4.21,2.58,7.4,1.61l-1-1.61S465,294.14,464.15,300.14Z" fill="#f7a48b"/>
<path d="M542,595.12,533.2,572.7S544.81,556,561.92,556c0,0,4.56,19.17,8,25.39C569.91,581.39,549.53,581.39,542,595.12Z" fill="#f9b499"/>
<path d="M512,633.73s-2.79,4.51,8.36,6.65c0,0,21.45,4.51,30.25-9.65l7.75-15.45s6.84-23.81,18.42-21.23l-2.14-2.36L563.47,587l-24.88,41.19Z" fill="#005e94" data-secondary="true"/>
<path d="M514,638.26s5.89,9.85,31.42,4.27c0,0,15.79,0,21.44-17.42a18.69,18.69,0,0,1,4-7.16,15,15,0,0,1,2-1.81s15.45-13.3,3.86-22.09c0,0-3.25-2.22-9.59,1.31a23.7,23.7,0,0,0-10.84,13.54l-3.17,9.9S544.39,644.71,514,638.26Z" fill="#e6e7e8"/>
<path d="M616.67,609.78s0,3.56,5.65,3.35c0,0,34,.69,30.74-35.18,0,0-1.84-24.91,9.46-27.63l-1.67-1.47s-16.46,2.44-15,32.95a18.24,18.24,0,0,1-.19,3.76c-.87,5.31-4.45,18-19,21.37C626.68,606.93,618.34,608.11,616.67,609.78Z" fill="#005e94" data-secondary="true"/>
<path d="M529,107v8.41H223.64V107a15,15,0,0,1,15-15H514A15,15,0,0,1,529,107Z" fill="#8a0063" data-primary="true"/>
<circle cx="479.53" cy="103.73" r="4.09" fill="#fff" opacity="0.5"/>
<circle cx="496.32" cy="103.73" r="4.09" fill="#fff" opacity="0.5"/>
<circle cx="513.12" cy="103.73" r="4.09" fill="#fff" opacity="0.5"/>
<path d="M353.46,185A48.48,48.48,0,1,1,305,136.49,48.28,48.28,0,0,1,353.46,185Z" fill="#fff"/>
<path d="M344.81,212.62a48.48,48.48,0,0,1-79.31.49c4.56-14.26,20.62-24.8,39.74-24.8C324.13,188.31,340,198.61,344.81,212.62Z" fill="#005e94" data-secondary="true"/>
<circle cx="305.75" cy="164.71" r="18.47" fill="#005e94" data-secondary="true"/>
<path d="M469.41,181.39H384.76a4.88,4.88,0,0,1,0-9.76h84.65a4.88,4.88,0,0,1,0,9.76Z" fill="#005e94" data-secondary="true"/>
<path d="M492.23,205.5H384.76a4.88,4.88,0,0,1,0-9.76H492.23a4.88,4.88,0,0,1,0,9.76Z" fill="#005e94" data-secondary="true"/>
<rect x="276.51" y="256.03" width="207.11" height="38.99" rx="19.49" fill="#8a0063" data-primary="true"/>
<path d="M345.65,266.44a9,9,0,0,1,3.85,3.64,10.87,10.87,0,0,1,1.36,5.53,10.65,10.65,0,0,1-1.36,5.49,8.87,8.87,0,0,1-3.85,3.57,12.8,12.8,0,0,1-5.8,1.24h-6.78V265.17h6.78A12.55,12.55,0,0,1,345.65,266.44Zm-.22,14.72a7.58,7.58,0,0,0,1.94-5.55,7.87,7.87,0,0,0-1.94-5.64,7.37,7.37,0,0,0-5.58-2h-3.37v15.19h3.37A7.46,7.46,0,0,0,345.43,281.16Z" fill="#fff"/>
<path d="M357.63,267.91V274h7.17v2.78h-7.17v6.35h8.06v2.78H354.23V265.14h11.46v2.77Z" fill="#fff"/>
<path d="M373.27,283.16h7v2.75H369.87V265.17h3.4Z" fill="#fff"/>
<path d="M386.52,267.91V274h7.16v2.78h-7.16v6.35h8.06v2.78H383.12V265.14h11.46v2.77Z" fill="#fff"/>
<path d="M412.16,265.17v2.77h-5.52v18h-3.41v-18h-5.55v-2.77Z" fill="#fff"/>
<path d="M419,267.91V274h7.16v2.78H419v6.35h8.06v2.78H415.59V265.14h11.46v2.77Z" fill="#fff"/>
<polygon points="429.62 645.9 268.73 645.9 256.79 428.11 440.44 428.11 429.62 645.9" fill="#d1d3d4"/>
<path d="M344.81,428.11h-77v-50.5A10.17,10.17,0,0,1,278,367.44h46l20.83,21.22Z" fill="#8a0063" data-primary="true"/>
<path d="M324,367.44v15a6.26,6.26,0,0,0,6.26,6.26h14.57Z" fill="#fff" opacity="0.5"/>
<g opacity="0.5">
<rect x="299.91" y="394.18" width="25.63" height="4.44" fill="#fff"/>
</g>
<g opacity="0.5">
<rect x="288.34" y="403.87" width="37.19" height="4.44" fill="#fff"/>
</g>
<g opacity="0.5">
<rect x="288.34" y="413.56" width="37.19" height="4.44" fill="#fff"/>
</g>
<path d="M485.54,528.74s9.91-3.82,16.75,3.84a16.25,16.25,0,0,1,3.95,12c-.34,4.94-2.61,11.33-11.58,13.25Z" fill="#bcbec0"/>
<path d="M292.78,627.89a1.77,1.77,0,0,1-1.77-1.77V453.45a1.78,1.78,0,0,1,3.55,0V626.12A1.78,1.78,0,0,1,292.78,627.89Z" fill="#bcbec0"/>
<path d="M320.67,627.89a1.77,1.77,0,0,1-1.77-1.77V453.45a1.78,1.78,0,0,1,3.55,0V626.12A1.78,1.78,0,0,1,320.67,627.89Z" fill="#bcbec0"/>
<path d="M348.62,627.89a1.78,1.78,0,0,1-1.78-1.77V453.45a1.78,1.78,0,0,1,3.55,0V626.12A1.77,1.77,0,0,1,348.62,627.89Z" fill="#bcbec0"/>
<path d="M376.34,627.89a1.78,1.78,0,0,1-1.78-1.77V453.45a1.78,1.78,0,0,1,3.55,0V626.12A1.77,1.77,0,0,1,376.34,627.89Z" fill="#bcbec0"/>
<path d="M404.28,627.89a1.77,1.77,0,0,1-1.77-1.77V453.45a1.78,1.78,0,0,1,3.55,0V626.12A1.78,1.78,0,0,1,404.28,627.89Z" fill="#bcbec0"/>
<path d="M536,265.85s1.55,8.54,0,12.42c0,0-3.52,3.1,2.89,4.27,0,0,6.42,1.55,11.85,0l-6.21-26.39Z" fill="#f7a48b"/>
<path d="M588.14,380.38c-1.89,1.21-8.68,1.57-13.48,1.68a19.89,19.89,0,0,1-7.6-1.27,11.63,11.63,0,0,0-10.89,1.09c-19.94,19.09-30.45,9.86-30.45,9.86A53.47,53.47,0,0,0,511,386.47a1.81,1.81,0,0,1-1.41-2.18l6.86-29.66c-6.82,2.81-11.82.75-15.36-2.66,0,0,8.92,4,14.93-17,0,0,6.23-19.78,7.51-28.14,0,0,1.72,21.68-1.93,36.68a72.25,72.25,0,0,0-2,12.82l-.95,15.88a4.35,4.35,0,0,0,1,3c2.5,3,9.5,8.8,21.68-.2,0,0,4.71-4.94,14.79-2.8,0,0,23.61,1.29,27.68-8.36Z" opacity="0.2"/>
<path d="M594.9,350.39l-1.6,2.71v0a24.61,24.61,0,0,1-3.8,6.29l-.12.12a24.12,24.12,0,0,1-5.5,4.31h0c-2.13-8.26-4.93-44.83-4.93-44.83h2.36a147.29,147.29,0,0,0,8.15,21c1.78,3.72,3.62,7.15,5.46,10.34Z" opacity="0.2"/>
<path d="M494.38,340.53s-.15-7.86,3.28-11.36a2.29,2.29,0,0,1,3.37.16l4.73,5.61-2.28-12.48S492.82,324.55,494.38,340.53Z" opacity="0.2"/>
<path d="M494,339.18l-23.38-39s-5.79-6-6.43,0c0,0-2.07,1.69-1.81-4.24a4.51,4.51,0,0,0-.49-2.22c-.54-1.09-.92-3.05,1.65-4.91a6.93,6.93,0,0,0,0-5.54s-2.36-5.4,7.08-5.61L460,266.11a1.9,1.9,0,0,1,.3-2.83h0a1.9,1.9,0,0,1,2.39.15l12.37,11.39a4.46,4.46,0,0,1,1.41,2.65,95.25,95.25,0,0,0,2.74,13.37,7,7,0,0,0,1.64,2.66l22.68,22.95-.07,6S494,324.81,494,339.18Z" fill="#f9b499"/>
<ellipse cx="538.87" cy="252.08" rx="17.27" ry="12.61" transform="translate(97.89 651.4) rotate(-67.23)" fill="#f9b499"/>
<path d="M535,237.59s-6.4,6.18,7.66,10.49a6.38,6.38,0,0,1,4.48,7.11,25.32,25.32,0,0,1-2.77,7.63,15.76,15.76,0,0,0,2.86,19.09s5.21,5.58,0,11.8c0,0-15.52,17,5.29,24A31,31,0,0,0,565,318.81s-3.64-5.37-1.93-9c0,0,6.65,12.44,23.17,8.36,0,0,13.18-2.32,13.7-9.47a6.09,6.09,0,0,0-2.63-5.31c-2.75-2-7.79-6.25-4.42-9.46,0,0,16.52-21.43-13.08-24.23,0,0-12-2.61-3.87-13.54,0,0,9.76-16.32-9.17-18.56,0,0,4.67-11.89-14-10.39,0,0-28.73-3.12-23.38,16C529.37,243.23,531.79,239.16,535,237.59Z" fill="#005e94" data-secondary="true"/>
<path d="M574.63,591.69l-4.72-10.3s-20.6,0-27.89,13.73c0,0,6.44,10.51-2.15,21.88,0,0-4.32,6.81-10.09,10.71a14.21,14.21,0,0,1-7.62,2.32c-3.12.06-8.28.64-10.17,3.7a32,32,0,0,1,7,1.53,11,11,0,0,0,4.28.81c6.78,0,22.69-2.32,29-23.15C552.32,612.92,557.25,593.4,574.63,591.69Z" fill="#8a0063" data-primary="true"/>
<path d="M631.15,563.84s9.18,6.16,6.67,18.93c0,0-4.82,17.59-13.61,20.52,0,0-9,3.14-7.54,6.49a45,45,0,0,1,10-2.85,21.94,21.94,0,0,0,12.15-6.65,27.22,27.22,0,0,0,7-15.72,15.26,15.26,0,0,0,0-2.53c-.32-5.44-.71-28.39,15-33.18l-7.79-7.66S633.28,544.71,631.15,563.84Z" fill="#8a0063" data-primary="true"/>
<rect x="250.16" y="422.47" width="196.25" height="11.27" rx="5.64" fill="#bcbec0"/>
</svg>