 <!DOCTYPE svg PUBLIC "-//W3C//DTD SVG 1.1//EN" "http://www.w3.org/Graphics/SVG/1.1/DTD/svg11.dtd">
<svg id="b3d9521c-d65b-4155-97a6-ac90d3439632" data-name="Layer 1" xmlns="http://www.w3.org/2000/svg" xmlns:xlink="http://www.w3.org/1999/xlink" width="865.76" height="682.89" viewBox="0 0 865.76 682.89">
<defs>
<clipPath id="a97140f9-194d-412b-ab4c-947ac708685f">
<path id="f380146b-7fa6-4a74-aaea-28cdcf8b2f2c" data-name="SVGID" d="M308.85,16.74C195.64,31.57,229.23,122.71,249,158.1a147.73,147.73,0,0,0,15.59,22.45c59.69,71.68-33.17,97.74-60.46,103.65-11,2.39-22,5.13-32.74,8.49C94.54,316.63,70.64,349.6,70.64,349.6c-106.49,124,14,211.25,14,211.25s95.71,115.73,428.55,111c0,0,268.38-7,321.12-252,0,0,27-143-46.88-235.56C787.4,184.36,640.12-26.65,308.85,16.74Z" fill="none"/>
</clipPath>
<clipPath id="b1fc69da-2202-482d-9c4a-075a3814e95a">
<path id="b1af76e8-e33a-45d1-8e31-f57ce38e03c5" data-name="SVGID" d="M462,361.32s-40.61,61.56-19.66,89.14c0,0,23,27.08,23.5,43.42.05,1.84,58.74,5.11,70.49-9.7,0,0-.51-24,6.64-31.67,0,0-21.45-64.37,14.3-85.82l-9.19-6.6-23.5-23.54Z" fill="#8a0063" data-primary="true"/>
</clipPath>
<style xmlns="http://www.w3.org/1999/xhtml">*, ::after, ::before { box-sizing: border-box; }
img, svg { vertical-align: middle; }
</style>
<style xmlns="http://www.w3.org/1999/xhtml">*, body, html { -webkit-font-smoothing: antialiased; }
img, svg { max-width: 100%; }
</style>
</defs>
<path d="M308.85,16.74C195.64,31.57,229.23,122.71,249,158.1a147.73,147.73,0,0,0,15.59,22.45c59.69,71.68-33.17,97.74-60.46,103.65-11,2.39-22,5.13-32.74,8.49C94.54,316.63,70.64,349.6,70.64,349.6c-106.49,124,14,211.25,14,211.25s95.71,115.73,428.55,111c0,0,268.38-7,321.12-252,0,0,27-143-46.88-235.56C787.4,184.36,640.12-26.65,308.85,16.74Z" fill="#8a0063" data-primary="true"/>
<path d="M308.85,16.74C195.64,31.57,229.23,122.71,249,158.1a147.73,147.73,0,0,0,15.59,22.45c59.69,71.68-33.17,97.74-60.46,103.65-11,2.39-22,5.13-32.74,8.49C94.54,316.63,70.64,349.6,70.64,349.6c-106.49,124,14,211.25,14,211.25s95.71,115.73,428.55,111c0,0,268.38-7,321.12-252,0,0,27-143-46.88-235.56C787.4,184.36,640.12-26.65,308.85,16.74Z" fill="#fff" opacity="0.7"/>
<g clip-path="url(#a97140f9-194d-412b-ab4c-947ac708685f)">
<polygon points="256.68 657.51 336.68 657.51 412.68 455.8 571.82 455.8 697.82 231.8 735.96 252.8 714.53 125.09 593.25 173.94 630.53 194.51 522.96 388.01 358.87 388.01 256.68 657.51" fill="#e6e7e8"/>
<rect x="515.53" y="109.31" width="2" height="254.13" fill="#005e94" data-secondary="true"/>
<rect x="565.68" y="170.01" width="2" height="216.14" fill="#005e94" data-secondary="true"/>
<rect x="617.11" y="215.88" width="2" height="164.71" fill="#005e94" data-secondary="true"/>
<rect x="724.25" y="238.15" width="2" height="155.31" fill="#005e94" data-secondary="true"/>
<rect x="669.39" y="271.58" width="2" height="242.71" fill="#005e94" data-secondary="true"/>
<rect x="779.68" y="179.87" width="2" height="216.43" fill="#005e94" data-secondary="true"/>
<rect x="417.39" y="81.47" width="2" height="166.14" fill="#005e94" data-secondary="true"/>
<rect x="465.96" y="61.87" width="2" height="166.14" fill="#005e94" data-secondary="true"/>
<g opacity="0.2">
<rect x="515.53" y="109.31" width="2" height="254.13"/>
<rect x="565.68" y="170.01" width="2" height="216.14"/>
<rect x="617.11" y="215.88" width="2" height="164.71"/>
<rect x="724.25" y="238.15" width="2" height="155.31"/>
<rect x="669.39" y="271.58" width="2" height="242.71"/>
<rect x="779.68" y="179.87" width="2" height="216.43"/>
<rect x="417.39" y="81.47" width="2" height="166.14"/>
<rect x="465.96" y="61.87" width="2" height="166.14"/>
</g>
<circle cx="196.83" cy="484.8" r="59.32" fill="#8a0063" data-primary="true"/>
<path d="M256.15,484.8a59.33,59.33,0,0,1-48.35,58.3,67.77,67.77,0,0,0,0-116.6A59.32,59.32,0,0,1,256.15,484.8Z" opacity="0.2"/>
<circle cx="657.44" cy="545.26" r="59.32" fill="#8a0063" data-primary="true"/>
<path d="M715.47,546.54a59.34,59.34,0,0,1-48.34,58.31,67.77,67.77,0,0,0,0-116.6A59.31,59.31,0,0,1,715.47,546.54Z" opacity="0.2"/>
<rect x="182.13" y="199.23" width="1" height="213.14" fill="#005e94" data-secondary="true"/>
<g opacity="0.2">
<rect x="182.13" y="199.23" width="1" height="213.14"/>
</g>
<rect x="273.32" y="128.6" width="1" height="193.48" fill="#005e94" data-secondary="true"/>
<g opacity="0.2">
<rect x="273.32" y="128.6" width="1" height="193.48"/>
</g>
<rect x="324.18" y="73.74" width="1" height="212.34" fill="#005e94" data-secondary="true"/>
<g opacity="0.2">
<rect x="324.18" y="73.74" width="1" height="212.34"/>
</g>
<rect x="373.32" y="45.51" width="1" height="165.14" fill="#005e94" data-secondary="true"/>
<g opacity="0.2">
<rect x="373.32" y="45.51" width="1" height="165.14"/>
</g>
<rect x="501.58" y="148.23" width="29.91" height="180.86" fill="#8a0063" data-primary="true"/>
<rect x="551.72" y="203.51" width="29.91" height="150" fill="#8a0063" data-primary="true"/>
<rect x="603.15" y="264.37" width="29.91" height="93.5" fill="#8a0063" data-primary="true"/>
<rect x="710.29" y="277.25" width="29.91" height="93.5" fill="#8a0063" data-primary="true"/>
<rect x="655.44" y="301.23" width="29.91" height="173.57" fill="#8a0063" data-primary="true"/>
<rect x="765.72" y="210.65" width="29.91" height="160.1" fill="#8a0063" data-primary="true"/>
<rect x="403.44" y="144.94" width="29.91" height="71.44" fill="#8a0063" data-primary="true"/>
<rect x="452.01" y="87.8" width="29.91" height="108.97" fill="#8a0063" data-primary="true"/>
<g opacity="0.2">
<rect x="501.58" y="148.23" width="29.91" height="180.86" fill="#fff"/>
<rect x="551.72" y="203.51" width="29.91" height="150" fill="#fff"/>
<rect x="603.15" y="264.37" width="29.91" height="93.5" fill="#fff"/>
<rect x="710.29" y="277.25" width="29.91" height="93.5" fill="#fff"/>
<rect x="655.44" y="301.23" width="29.91" height="173.57" fill="#fff"/>
<rect x="765.72" y="210.65" width="29.91" height="160.1" fill="#fff"/>
<rect x="403.44" y="144.94" width="29.91" height="71.44" fill="#fff"/>
<rect x="452.01" y="87.8" width="29.91" height="108.97" fill="#fff"/>
</g>
<rect x="224.75" y="150.08" width="1" height="193.14" fill="#005e94" data-secondary="true"/>
<g opacity="0.2">
<rect x="224.75" y="150.08" width="1" height="193.14"/>
</g>
<path d="M304.5,104.6a32.27,32.27,0,0,0,0-19.85l-11.69-3c0,.13.07.26.1.39a37.58,37.58,0,0,0-1.63-4.22l6.53-10.75a32.33,32.33,0,0,0-14-14l-10.41,6.13.37.22a37,37,0,0,0-4.17-1.85l-3-12.22a32.35,32.35,0,0,0-19.85,0l-3,11.69.39-.1a38.34,38.34,0,0,0-4.22,1.63l-10.75-6.53a32.38,32.38,0,0,0-14,14l6.13,10.42.22-.38a37,37,0,0,0-1.85,4.17l-12.22,3a32.35,32.35,0,0,0,0,19.85l11.69,3c0-.13-.06-.26-.1-.39a37.58,37.58,0,0,0,1.63,4.22l-6.53,10.76a32.39,32.39,0,0,0,14,14l10.42-6.13-.38-.22a37,37,0,0,0,4.17,1.85l3,12.22a32.27,32.27,0,0,0,19.85,0l3-11.69-.39.1a37.58,37.58,0,0,0,4.22-1.63l10.76,6.53a32.34,32.34,0,0,0,14-14l-6.13-10.41-.22.37a37,37,0,0,0,1.85-4.17Zm-48.56,7.53A18.19,18.19,0,1,1,274.12,94,18.18,18.18,0,0,1,255.94,112.13Z" fill="#e6e7e8"/>
<path d="M201.05,57.05a17.27,17.27,0,0,0-1.64-10.48L193,45.94l.09.19a21.63,21.63,0,0,0-1.21-2.1l2.56-6.21a17.31,17.31,0,0,0-8.57-6.26l-5,4.1.21.08a18.93,18.93,0,0,0-2.35-.63l-2.59-6.21a17.27,17.27,0,0,0-10.48,1.64L165,37l.19-.09a22,22,0,0,0-2.1,1.21l-6.21-2.56a17.31,17.31,0,0,0-6.26,8.57l4.1,5,.08-.21a20.3,20.3,0,0,0-.63,2.35L148,53.81a17.32,17.32,0,0,0,1.64,10.49l6.43.63-.09-.2a19.74,19.74,0,0,0,1.21,2.1l-2.56,6.22a17.25,17.25,0,0,0,8.57,6.25l5-4.09-.21-.09a20.33,20.33,0,0,0,2.35.64L172.89,82a17.32,17.32,0,0,0,10.49-1.64L184,73.9l-.2.09a21.63,21.63,0,0,0,2.1-1.21l6.22,2.56a17.25,17.25,0,0,0,6.25-8.57l-4.09-5a1.8,1.8,0,0,0-.08.21,23.22,23.22,0,0,0,.63-2.35Zm-25,8a9.72,9.72,0,1,1,8.11-11.11A9.73,9.73,0,0,1,176,65Z" fill="#e6e7e8"/>
<path d="M137.38,136.12a23.36,23.36,0,0,0-2.21-14.18l-8.7-.86.12.26a28.18,28.18,0,0,0-1.64-2.83l3.47-8.42a23.46,23.46,0,0,0-11.6-8.46l-6.75,5.55.29.11a28.26,28.26,0,0,0-3.19-.86L103.68,98a23.4,23.4,0,0,0-14.18,2.22l-.86,8.69.26-.11a28.11,28.11,0,0,0-2.83,1.63L77.65,107a23.34,23.34,0,0,0-8.46,11.59l5.55,6.76c0-.1.07-.19.11-.29a26.64,26.64,0,0,0-.86,3.18l-8.4,3.5a23.4,23.4,0,0,0,2.22,14.18l8.69.86c0-.09-.08-.18-.11-.27A27.47,27.47,0,0,0,78,149.35l-3.47,8.41a23.39,23.39,0,0,0,11.6,8.46l6.76-5.54-.29-.11a28.63,28.63,0,0,0,3.18.85l3.5,8.4a23.36,23.36,0,0,0,14.18-2.21l.86-8.7-.27.12a27.55,27.55,0,0,0,2.84-1.64l8.41,3.47a23.38,23.38,0,0,0,8.46-11.59l-5.54-6.76c0,.1-.08.19-.11.29a28.63,28.63,0,0,0,.85-3.18Zm-33.86,10.8a13.15,13.15,0,1,1,11-15A13.16,13.16,0,0,1,103.52,146.92Z" fill="#e6e7e8"/>
<path d="M282.86,683.21c1.85,0,16.68-35.24,16.68-35.24l29.06,8.66-19.78,27.81Z" fill="#f9b499"/>
<rect x="528.12" y="650.42" width="15.45" height="35.31" transform="translate(-84.39 77.52) rotate(-7.67)" fill="#a7a9ac"/>
<polygon points="422.55 646.74 419.46 684.44 433.67 684.44 437.38 648.59 422.55 646.74" fill="#a7a9ac"/>
<rect x="467.05" y="662.81" width="15.45" height="24.11" fill="#a7a9ac"/>
<rect x="481.89" y="661.57" width="15.45" height="25.07" fill="#939598"/>
<ellipse cx="489" cy="636.23" rx="75.1" ry="34" fill="#bcbec0"/>
<rect x="465.92" y="344.33" width="14.05" height="18.81" fill="#005e94" data-secondary="true"/>
<path d="M451.17,340.45l.09,26s5.81-3.83,10.73-5.16v-11A32,32,0,0,1,451.17,340.45Z" fill="#005e94" data-secondary="true"/>
<path d="M462,361.32s-28.55,7.36-26.59,38.37l-5.1,68.7,16.49,37.68s7.45-13.74,7.06-39.25Z" fill="#8a0063" data-primary="true"/>
<path d="M462,361.32s-28.55,7.36-26.59,38.37l-5.1,68.7,16.49,37.68s7.45-13.74,7.06-39.25Z" opacity="0.2"/>
<path d="M502,311.57c.54,0,10.92.78,10.8,1a54,54,0,0,0-.54,6.12c.06.78.12,6.36-.24,6.48s-10.32,1.14-10.08.24S502,311.57,502,311.57Z" fill="#005e94" data-secondary="true"/>
<path id="b2890526-75a8-43e7-8505-8d2f02eb5452" data-name="SVGID" d="M462,361.32s-40.61,61.56-19.66,89.14c0,0,23,27.08,23.5,43.42.05,1.84,58.74,5.11,70.49-9.7,0,0-.51-24,6.64-31.67,0,0-21.45-64.37,14.3-85.82l-9.19-6.6-23.5-23.54Z" fill="#8a0063" data-primary="true"/>
<g clip-path="url(#b1fc69da-2202-482d-9c4a-075a3814e95a)">
<path d="M438.21,413.76s14.11,0,23.79,7.86a24.23,24.23,0,0,0,23.63,4q1.31-.48,2.73-1.08s28.21-15.22,49.7,7.17c0,0,23.29,0,23.29,1.34s-20.6,36.72-20.6,36.72l-1.79,21-54.63,14.77-29.11-7.16-18.36-43.88S427.91,424.5,438.21,413.76Z" fill="#fff" opacity="0.2"/>
</g>
<path d="M474,354.17s-10.73,23-2.3,23.25c0,0,3.07,2.81,12.52-10.73,0,0,3.55,8.38,9.9,12.21A10.31,10.31,0,0,0,505.8,378a35.21,35.21,0,0,0,2.8-2.45,32.07,32.07,0,0,0,8.83-17.28c2.13-11.74,4.83-36.24-9.84-35.7Z" fill="#e6e7e8"/>
<path d="M504.28,314.45a61.28,61.28,0,0,0,3.31,8.11,7.38,7.38,0,0,1,.76,2.71c1.52,23.53-20.05,35.29-20.05,35.29-8.68,3.06-8.29-6.65-8.29-6.65Z" fill="#f7a48b"/>
<path d="M510.27,314.58s3.16,47.13,1.7,69.32a42.08,42.08,0,0,1-3.21,13.52c-4.45,10.67-14.53,36.85-12.19,49.9a2.33,2.33,0,0,0,3.62,1.46c7.24-4.88,26.54-20.51,25.91-48.12,0,0,4.48-32.66,5-50.94L523,322l-4.85-17.88S507.2,306.92,510.27,314.58Z" fill="#005e94" data-secondary="true"/>
<path d="M510.27,314.58s3.16,47.13,1.7,69.32a42.08,42.08,0,0,1-3.21,13.52c-4.45,10.67-14.53,36.85-12.19,49.9a2.33,2.33,0,0,0,3.62,1.46c7.24-4.88,26.54-20.51,25.91-48.12,0,0,4.48-32.66,5-50.94L523,322l-4.85-17.88S507.2,306.92,510.27,314.58Z" opacity="0.2"/>
<path d="M462,350.34s0,20.18-3.83,27.33c0,0-28.86,47.51-5.62,68.2,0,0-1-30.14,6.9-44.7,0,0,11-18.14,8.68-48.27l1-6.13Z" fill="#005e94" data-secondary="true"/>
<path d="M462,350.34s0,20.18-3.83,27.33c0,0-28.86,47.51-5.62,68.2,0,0-1-30.14,6.9-44.7,0,0,11-18.14,8.68-48.27l1-6.13Z" opacity="0.2"/>
<polygon points="420.36 449.44 425.47 449.78 454.42 523.68 450.67 523.68 420.36 449.44" fill="#005e94" data-secondary="true"/>
<path d="M299.54,648l45.74-109.4s1.24-25.34,55-11.13l34.61,4.33,29,.62-1-11.09,2.9-27.42s53.86,5.47,70.49-9.7l26.54,64.28s20.4,51.92-6.8,74.79c0,0-13,7.42-45.12,4.94L404.62,627l17.93,55.63H353.32l-3.71-22.87S338.49,678.88,299.54,648Z" fill="#005e94" data-secondary="true"/>
<path d="M363.83,578.13s-12.36,0-12.36,13l-1.86,68.61-2.47-68.61S344.05,577.51,363.83,578.13Z" opacity="0.2"/>
<polygon points="404.62 626.96 395.35 605.33 412.04 626.96 404.62 626.96" opacity="0.2"/>
<polygon points="400.92 586.78 478.18 627.58 510.94 628.2 400.92 586.78" opacity="0.2"/>
<path d="M493.41,521s51.52,5.86,64.5,15.14l-9.27-23.49-47.59,1.85Z" opacity="0.2"/>
<polygon points="469.52 531.77 535.04 554.64 509.7 537.33 544.93 539.19 514.03 527.44 484.98 530.53 469.52 531.77" opacity="0.2"/>
<ellipse cx="473.39" cy="316.15" rx="30.93" ry="38.33" transform="translate(-47.09 85.61) rotate(-9.85)" fill="#f9b499"/>
<path d="M454.76,284.13s7.65,25.22,44.75,21.67L511,299a165.25,165.25,0,0,0,20.18,50.74l16.92,10.37s-16.92-20.19-30.56-65.47l-7.63-24s-7.1-21.28-23.46-17.46c0,0-8.19-10.36-22.92,2.19,0,0-28.79,26.17-25.35,41.08a7.35,7.35,0,0,1,.22,1.81c-.07,3.14-.11,14.12,4.05,19.67A42.71,42.71,0,0,1,454.76,284.13Z" fill="#005e94" data-secondary="true"/>
<g opacity="0.2">
<path d="M454.77,283.71a8.66,8.66,0,0,1,.62-2.75,22.53,22.53,0,0,1,1.18-2.58,33.87,33.87,0,0,1,3.19-4.68,62.18,62.18,0,0,1,8-8c1.47-1.17,2.91-2.39,4.43-3.5s3-2.25,4.61-3.23,3.14-2.07,4.76-3,3.25-1.88,4.9-2.78c-3.08,2.16-6.2,4.22-9.22,6.43s-6,4.47-8.84,6.86a81.44,81.44,0,0,0-8,7.75,34.5,34.5,0,0,0-3.36,4.44A14.27,14.27,0,0,0,454.77,283.71Z"/>
</g>
<ellipse cx="506.87" cy="305.8" rx="7.37" ry="9.55" fill="#f9b499"/>
<path d="M327.05,523.34,299.57,452a2.14,2.14,0,0,1,2-2.91l118.79.33,30.31,74.24Z" fill="#8a0063" data-primary="true"/>
<path d="M327.05,523.34s2.73,7.83,9.54,8.17l148.14,1s3.4-1,2-9.2l-32.35.34Z" fill="#8a0063" data-primary="true"/>
<path d="M327.05,523.34s2.73,7.83,9.54,8.17l148.14,1s3.4-1,2-9.2l-32.35.34Z" opacity="0.2"/>
<path d="M557.26,366.69s15.33,5.11,16.35,35.25l3.58,91.94s2.55,11.75-16.35,15.84c0,0-26.56,9.19-46,8.68L493.41,521s5.62-12.26-2.55-16.86l7.1-.19a39.76,39.76,0,0,0,20.95-6.65c7.69-5.12,19-12.19,29.16-16.66,0,0,1.53-12.77-5.11-28.09C543,452.51,521,387.63,557.26,366.69Z" fill="#8a0063" data-primary="true"/>
<path d="M557.26,366.69s15.33,5.11,16.35,35.25l3.58,91.94s2.55,11.75-16.35,15.84c0,0-26.56,9.19-46,8.68L493.41,521s5.62-12.26-2.55-16.86l7.1-.19a39.76,39.76,0,0,0,20.95-6.65c7.69-5.12,19-12.19,29.16-16.66,0,0,1.53-12.77-5.11-28.09C543,452.51,521,387.63,557.26,366.69Z" opacity="0.2"/>
<path d="M493.42,505.53l-21.14-16.19a6,6,0,0,0-1.41-.82c-3.12-1.27-14.67-5.32-18.66,2.66,0,0-3.73,6.8-.25,6.8,0,0,2.89-1,6.14-5a5.62,5.62,0,0,1,4.46-2.13,10.45,10.45,0,0,1,4.27.79s1.9,2.53-2.22,3.79c0,0-15.5,6.64-7.9,14.23a2.45,2.45,0,0,0,2,3.2,5,5,0,0,0,4-1c1.68-1.27,4.72-3.05,6.06-.6,0,0-7.78,4.44-5.38,7.86a1.61,1.61,0,0,0,1.79.63c.84-.26,2.09-1,3.61-3.24a1.29,1.29,0,0,1,1.67-.37c1.11.61,3.8,1.13,10.32-.46,0,0,6.31,8.07,13.74,5.52a5.36,5.36,0,0,0,3.43-4.19C498.48,513.7,498.51,508.25,493.42,505.53Z" fill="#f9b499"/>
<path d="M458.89,508.15a10.77,10.77,0,0,1,9.79-5.66" fill="none" stroke="#f7a48b" stroke-miterlimit="10" stroke-width="0.5"/>
<rect x="167.68" y="235.17" width="29.91" height="143.32" fill="#8a0063" data-primary="true"/>
<rect x="167.68" y="235.17" width="29.91" height="143.32" fill="#fff" opacity="0.2"/>
<rect x="210.29" y="190.08" width="29.91" height="96" fill="#8a0063" data-primary="true"/>
<rect x="210.29" y="190.08" width="29.91" height="96" fill="#fff" opacity="0.2"/>
<rect x="258.87" y="164.55" width="29.91" height="141.25" fill="#8a0063" data-primary="true"/>
<rect x="258.87" y="164.55" width="29.91" height="141.25" fill="#fff" opacity="0.2"/>
<rect x="309.72" y="109.69" width="29.91" height="141.25" fill="#8a0063" data-primary="true"/>
<rect x="309.72" y="109.69" width="29.91" height="141.25" fill="#fff" opacity="0.2"/>
<rect x="358.87" y="70.26" width="29.91" height="109.65" fill="#8a0063" data-primary="true"/>
<rect x="358.87" y="70.26" width="29.91" height="109.65" fill="#fff" opacity="0.2"/>
<path d="M167.6,471a30.85,30.85,0,0,1,5.89-.52c3.22,0,5.29.55,6.85,1.81a5.24,5.24,0,0,1,2.07,4.41,5.94,5.94,0,0,1-4.22,5.49v.07a6.44,6.44,0,0,1,5.15,6.26,6.72,6.72,0,0,1-2.11,5c-1.74,1.6-4.56,2.34-8.63,2.34a37.07,37.07,0,0,1-5-.3Zm3.22,10.22h2.93c3.4,0,5.4-1.78,5.4-4.18,0-2.93-2.22-4.08-5.48-4.08a14,14,0,0,0-2.85.22Zm0,12a17.25,17.25,0,0,0,2.7.15c3.34,0,6.41-1.22,6.41-4.86,0-3.4-2.92-4.81-6.44-4.81h-2.67Z" fill="#fff"/>
<path d="M190.9,470.7v14.79c0,5.59,2.48,8,5.82,8,3.7,0,6.07-2.44,6.07-8V470.7h3.26v14.56c0,7.67-4,10.82-9.45,10.82-5.11,0-9-2.92-9-10.67V470.7Z" fill="#fff"/>
<path d="M217.21,495.67V485.08l-7.9-14.38H213l3.52,6.89c1,1.89,1.71,3.41,2.48,5.15h.08c.7-1.62,1.55-3.26,2.52-5.15l3.59-6.89h3.67L220.47,485v10.63Z" fill="#fff"/>
<path d="M622.79,553.49a11.41,11.41,0,0,0,5.78,1.63c3.3,0,5.22-1.74,5.22-4.26,0-2.33-1.33-3.66-4.7-5-4.08-1.45-6.6-3.56-6.6-7.08,0-3.89,3.23-6.78,8.08-6.78a11.35,11.35,0,0,1,5.52,1.23l-.89,2.63a9.88,9.88,0,0,0-4.74-1.19c-3.41,0-4.71,2-4.71,3.74,0,2.34,1.52,3.48,5,4.82,4.22,1.63,6.37,3.67,6.37,7.33,0,3.86-2.85,7.19-8.74,7.19A12.94,12.94,0,0,1,622,556.2Z" fill="#fff"/>
<path d="M654.43,545.71h-9.71v9h10.82v2.7h-14v-25H655v2.71H644.72v7.89h9.71Z" fill="#fff"/>
<path d="M659.73,532.45H663v22.27h10.67v2.7H659.73Z" fill="#fff"/>
<path d="M677.22,532.45h3.22v22.27h10.67v2.7H677.22Z" fill="#fff"/>
</g>
</svg>